<?xml version="1.0" standalone="no"?>
<!DOCTYPE svg PUBLIC "-//W3C//DTD SVG 1.1//EN" "http://www.w3.org/Graphics/SVG/1.1/DTD/svg11.dtd" >
<svg xmlns="http://www.w3.org/2000/svg" xmlns:xlink="http://www.w3.org/1999/xlink" version="1.1">
<metadata>
Created by FontForge 20190801 at Tue May 17 10:06:56 2022
 By www-data
Copyright (c) 2019-2022 by TypeType. All rights reserved.
</metadata>
<defs>
<font id="TTHovesProTrialRegular" horiz-adv-x="560" >
  <font-face 
    font-family="TTHovesProTrialRegular"
    font-weight="400"
    font-stretch="normal"
    units-per-em="1000"
    panose-1="2 11 0 3 2 0 0 2 2 3"
    ascent="800"
    descent="-200"
    x-height="500"
    cap-height="700"
    bbox="-375 -245 1438 980"
    underline-thickness="70"
    underline-position="-200"
    unicode-range="U+000D-F8FF"
  />
<missing-glyph horiz-adv-x="900" 
d="M100 0v284h45v-139h33v139h50v31h-128v126l19 -61h23l34 106l33 -106h23l54 170h-32l-34 -110l-35 110h-19l-35 -110l-31 103v157h700v-150h-110v-170h110v-91q-6 13 -19.5 20t-30.5 7q-27 0 -43.5 -14.5t-16.5 -34.5q0 -22 14.5 -32.5t39.5 -17.5q17 -5 25.5 -9.5
t8.5 -13.5q0 -21 -28 -21q-14 0 -21 7t-7 18h-33q0 -24 17 -39.5t44 -15.5q17 0 30.5 6.5t19.5 13.5v-163h-700zM311 380h33v62h24l35 -62h37l-40 67q36 17 36 50q0 22 -16 37.5t-41 15.5h-68v-170zM469 550v-170h33v170h-33zM580 519v-139h32v139h50v31h-132v-31h50z
M344 473v46h35q10 0 17 -6.5t7 -16.5q0 -12 -7.5 -17.5t-16.5 -5.5h-35zM800 483h-78v36h78v-36zM800 411h-78v41h78v-41zM387.5 167.5q22.5 24.5 22.5 61.5t-23 62t-59 25t-59 -25t-23 -62t22.5 -61.5t59.5 -24.5t59.5 24.5zM633 162q19 19 19 47v106h-32v-106
q0 -15 -9.5 -25t-25.5 -10q-17 0 -26.5 10.5t-9.5 24.5v106h-32v-106q0 -28 19.5 -47t48.5 -19t48 19zM800 224q-15 14 -46 22q-16 5 -23 9t-7 12q0 9 7.5 14.5t18.5 5.5q10 0 18 -7t8 -18h24v-38zM291.5 190q-14.5 16 -14.5 39q0 25 14 40.5t37 15.5q24 0 37.5 -15.5
t13.5 -40.5q0 -23 -14.5 -39t-36.5 -16t-36.5 16z" />
    <glyph glyph-name="f_f.liga" unicode="ff" horiz-adv-x="550" 
d="M105 0v430h-80v70h80v95q0 38 24.5 61.5t65.5 23.5h90v-70h-75q-30 0 -30 -30v-80h165v95q0 38 24.5 61.5t65.5 23.5h90v-70h-75q-30 0 -30 -30v-80h105v-70h-105v-430h-75v430h-165v-430h-75z" />
    <glyph glyph-name="fi.liga" unicode="fi" horiz-adv-x="489" 
d="M105 0v430h-80v70h80v95q0 38 24.5 61.5t65.5 23.5h80v-70h-65q-30 0 -30 -30v-80h240v-500h-75v430h-165v-430h-75zM425 595h-85v85h85v-85z" />
    <glyph glyph-name="f_j.liga" unicode="fj" horiz-adv-x="489" 
d="M240 -200v70h65q19 0 29.5 10.5t10.5 29.5v520h-165v-430h-75v430h-80v70h80v95q0 38 24.5 61.5t65.5 23.5h80v-70h-65q-30 0 -30 -30v-80h240v-600q0 -45 -29.5 -72.5t-75.5 -27.5h-75zM425 595h-85v85h85v-85z" />
    <glyph glyph-name="fl.liga" unicode="fl" horiz-adv-x="495" 
d="M105 0v430h-80v70h80v95q0 38 24.5 61.5t65.5 23.5h225v-680h-75v610h-135q-30 0 -30 -30v-80h95v-70h-95v-430h-75z" />
    <glyph glyph-name="f_f_i.liga" unicode="ffi" horiz-adv-x="729" 
d="M105 0v430h-80v70h80v95q0 38 24.5 61.5t65.5 23.5h90v-70h-75q-30 0 -30 -30v-80h165v95q0 38 24.5 61.5t65.5 23.5h80v-70h-65q-30 0 -30 -30v-80h240v-500h-75v430h-165v-430h-75v430h-165v-430h-75zM665 595h-85v85h85v-85z" />
    <glyph glyph-name="f_f_j.liga" unicode="ffj" horiz-adv-x="729" 
d="M480 -200v70h65q19 0 29.5 10.5t10.5 29.5v520h-165v-430h-75v430h-165v-430h-75v430h-80v70h80v95q0 38 24.5 61.5t65.5 23.5h90v-70h-75q-30 0 -30 -30v-80h165v95q0 38 24.5 61.5t65.5 23.5h80v-70h-65q-30 0 -30 -30v-80h240v-600q0 -45 -29.5 -72.5t-75.5 -27.5h-75
zM665 595h-85v85h85v-85z" />
    <glyph glyph-name="f_f_l.liga" unicode="ffl" horiz-adv-x="735" 
d="M105 0v430h-80v70h80v95q0 38 24.5 61.5t65.5 23.5h90v-70h-75q-30 0 -30 -30v-80h165v95q0 38 24.5 61.5t65.5 23.5h225v-680h-75v610h-135q-30 0 -30 -30v-80h95v-70h-95v-430h-75v430h-165v-430h-75z" />
    <glyph glyph-name=".notdef" horiz-adv-x="900" 
d="M100 0v284h45v-139h33v139h50v31h-128v126l19 -61h23l34 106l33 -106h23l54 170h-32l-34 -110l-35 110h-19l-35 -110l-31 103v157h700v-150h-110v-170h110v-91q-6 13 -19.5 20t-30.5 7q-27 0 -43.5 -14.5t-16.5 -34.5q0 -22 14.5 -32.5t39.5 -17.5q17 -5 25.5 -9.5
t8.5 -13.5q0 -21 -28 -21q-14 0 -21 7t-7 18h-33q0 -24 17 -39.5t44 -15.5q17 0 30.5 6.5t19.5 13.5v-163h-700zM311 380h33v62h24l35 -62h37l-40 67q36 17 36 50q0 22 -16 37.5t-41 15.5h-68v-170zM469 550v-170h33v170h-33zM580 519v-139h32v139h50v31h-132v-31h50z
M344 473v46h35q10 0 17 -6.5t7 -16.5q0 -12 -7.5 -17.5t-16.5 -5.5h-35zM800 483h-78v36h78v-36zM800 411h-78v41h78v-41zM387.5 167.5q22.5 24.5 22.5 61.5t-23 62t-59 25t-59 -25t-23 -62t22.5 -61.5t59.5 -24.5t59.5 24.5zM633 162q19 19 19 47v106h-32v-106
q0 -15 -9.5 -25t-25.5 -10q-17 0 -26.5 10.5t-9.5 24.5v106h-32v-106q0 -28 19.5 -47t48.5 -19t48 19zM800 224q-15 14 -46 22q-16 5 -23 9t-7 12q0 9 7.5 14.5t18.5 5.5q10 0 18 -7t8 -18h24v-38zM291.5 190q-14.5 16 -14.5 39q0 25 14 40.5t37 15.5q24 0 37.5 -15.5
t13.5 -40.5q0 -23 -14.5 -39t-36.5 -16t-36.5 16z" />
    <glyph glyph-name=".null" horiz-adv-x="0" 
 />
    <glyph glyph-name="nonmarkingreturn" unicode="&#xd;" horiz-adv-x="230" 
 />
    <glyph glyph-name="space" unicode=" " horiz-adv-x="230" 
 />
    <glyph glyph-name="exclam" unicode="!" horiz-adv-x="250" 
d="M155 160h-60l-10 240v300h80v-300zM170 0h-90v90h90v-90z" />
    <glyph glyph-name="quotedbl" unicode="&#x22;" horiz-adv-x="335" 
d="M130 490h-75v210h75v-210zM280 490h-75v210h75v-210z" />
    <glyph glyph-name="numbersign" unicode="#" horiz-adv-x="685" 
d="M190 0h-75l40 185h-140l15 70h140l41 190h-141l15 70h141l39 185h75l-40 -185h155l40 185h75l-40 -185h140l-15 -70h-140l-41 -190h141l-15 -70h-141l-39 -185h-75l40 185h-155zM285 445l-40 -190h155l40 190h-155z" />
    <glyph glyph-name="dollar" unicode="$" horiz-adv-x="615" 
d="M506 52.5q-59 -54.5 -166 -61.5v-101h-75v103q-67 8 -117 38.5t-76.5 76t-26.5 97.5h80q0 -38 21.5 -70t63.5 -51t100 -19q89 0 132 34.5t43 90.5q0 45 -30 74.5t-90 40.5l-135 25q-170 32 -170 180q0 81 55 135t150 63v102h75v-102q67 -7 116.5 -36.5t76.5 -75.5
t27 -101h-80q0 38 -21.5 70t-62 51t-96.5 19q-76 0 -118 -35t-42 -90q0 -42 28.5 -71t86.5 -39l110 -20q104 -19 152 -65t48 -125q0 -83 -59 -137.5z" />
    <glyph glyph-name="percent" unicode="%" horiz-adv-x="765" 
d="M117.5 420q-35.5 20 -56.5 55.5t-21 79.5t21 79.5t56.5 55.5t77.5 20t77.5 -20t56.5 -55.5t21 -79.5t-21 -79.5t-56.5 -55.5t-77.5 -20t-77.5 20zM205 0h-80l435 700h80zM255 490q25 25 25 65t-25 65t-60 25t-60 -25t-25 -65t25 -65t60 -25t60 25zM492.5 10
q-35.5 20 -56.5 55.5t-21 79.5t21 79.5t56.5 55.5t77.5 20t77.5 -20t56.5 -55.5t21 -79.5t-21 -79.5t-56.5 -55.5t-77.5 -20t-77.5 20zM630 80q25 25 25 65t-25 65t-60 25t-60 -25t-25 -65t25 -65t60 -25t60 25z" />
    <glyph glyph-name="ampersand" unicode="&#x26;" horiz-adv-x="630" 
d="M145.5 14q-48.5 24 -74.5 65t-26 91q0 51 24.5 91t75.5 79l40 30l-45 50q-29 33 -44.5 60.5t-15.5 64.5q0 47 23 84.5t64 59t93 21.5q51 0 92.5 -22.5t64.5 -61.5t23 -86q0 -77 -95 -145l-55 -40l160 -170q17 23 31 63t14 82h75q0 -62 -20 -117t-45 -83l125 -130h-100
l-70 75q-30 -33 -85 -59t-115 -26q-66 0 -114.5 24zM295 445q30 22 47.5 44.5t17.5 50.5q0 42 -27.5 68.5t-72.5 26.5q-44 0 -72 -26t-28 -64q0 -22 9 -41t31 -44l45 -50zM339 81q33 16 66 49l-170 185l-35 -25q-40 -28 -57.5 -53.5t-17.5 -61.5q0 -47 36.5 -78.5
t98.5 -31.5q46 0 79 16z" />
    <glyph glyph-name="quotesingle" unicode="'" horiz-adv-x="185" 
d="M130 490h-75v210h75v-210z" />
    <glyph glyph-name="parenleft" unicode="(" horiz-adv-x="315" 
d="M210 -200q-70 103 -105 221t-35 244t35 244t105 221h80q-73 -103 -109 -220.5t-36 -244.5t36 -244.5t109 -220.5h-80z" />
    <glyph glyph-name="parenright" unicode=")" horiz-adv-x="315" 
d="M25 -200q73 103 109 220.5t36 244.5t-36 244.5t-109 220.5h80q70 -103 105 -221t35 -244t-35 -244t-105 -221h-80z" />
    <glyph glyph-name="asterisk" unicode="*" horiz-adv-x="460" 
d="M230 460l-85 -125l-55 45l90 115l-140 40l20 65l140 -50l-5 150h70l-5 -150l140 50l20 -65l-140 -40l90 -115l-55 -45z" />
    <glyph glyph-name="plus" unicode="+" horiz-adv-x="535" 
d="M305 60h-75v195h-180v70h180v195h75v-195h180v-70h-180v-195z" />
    <glyph glyph-name="comma" unicode="," horiz-adv-x="210" 
d="M110 -80h-65l20 170h90z" />
    <glyph glyph-name="hyphen" unicode="-" horiz-adv-x="410" 
d="M365 250h-320v70h320v-70z" />
    <glyph glyph-name="period" unicode="." horiz-adv-x="210" 
d="M150 0h-90v90h90v-90z" />
    <glyph glyph-name="slash" unicode="/" horiz-adv-x="350" 
d="M75 -200h-75l275 930h75z" />
    <glyph glyph-name="zero" unicode="0" horiz-adv-x="650" 
d="M189.5 32q-61.5 42 -98 123.5t-36.5 194.5t36.5 194.5t98 123.5t135.5 42t135.5 -42t98 -123.5t36.5 -194.5t-36.5 -194.5t-98 -123.5t-135.5 -42t-135.5 42zM419.5 97.5q43.5 32.5 69.5 97t26 155.5t-26 155.5t-69.5 97t-94.5 32.5t-94.5 -32.5t-69.5 -97t-26 -155.5
t26 -155.5t69.5 -97t94.5 -32.5t94.5 32.5z" />
    <glyph glyph-name="one" unicode="1" horiz-adv-x="335" 
d="M175 0v550h-150v70h120q30 0 30 30v50h80v-700h-80z" />
    <glyph glyph-name="two" unicode="2" horiz-adv-x="535" 
d="M55 0v65l285 305q32 34 46 62.5t14 67.5q0 60 -37.5 97.5t-97.5 37.5q-37 0 -68 -19t-49 -53t-18 -78h-80q0 64 27.5 115.5t76.5 80.5t111 29t111 -26.5t76.5 -74t27.5 -109.5q0 -59 -21 -100t-64 -85l-225 -235v-5h325v-75h-440z" />
    <glyph glyph-name="three" unicode="3" horiz-adv-x="550" 
d="M144.5 16.5q-52.5 26.5 -81 71t-28.5 97.5h80q0 -51 40.5 -85.5t109.5 -34.5q66 0 108 36t42 89q0 57 -41.5 93.5t-108.5 36.5h-45v75h45q65 0 102.5 35t37.5 88q0 31 -17.5 58t-49.5 43t-73 16q-39 0 -71 -16t-50.5 -42.5t-18.5 -56.5h-80q0 50 28 93.5t78.5 70
t113.5 26.5q64 0 114 -25.5t78 -70t28 -98.5q0 -58 -34 -99.5t-76 -56.5v-5q46 -15 83 -59t37 -106q0 -55 -29.5 -100.5t-82 -72.5t-118.5 -27q-68 0 -120.5 26.5z" />
    <glyph glyph-name="four" unicode="4" horiz-adv-x="540" 
d="M425 0h-80v160h-325v60l275 480h130v-470h90v-70h-90v-160zM120 235v-5h225v365h-20z" />
    <glyph glyph-name="five" unicode="5" horiz-adv-x="565" 
d="M167 13q-50 23 -82.5 67t-39.5 105h80q11 -56 52 -88t98 -32q44 0 81 21.5t58 58.5t21 83q0 72 -43.5 117t-111.5 45q-42 0 -77.5 -15.5t-57.5 -44.5h-85l40 370h375v-75h-308l-22 -205h5q26 22 62 33.5t78 11.5q60 0 111.5 -31t82.5 -85t31 -121q0 -68 -31 -122.5
t-85.5 -85t-123.5 -30.5q-58 0 -108 23z" />
    <glyph glyph-name="six" unicode="6" 
d="M159 21.5q-55 31.5 -87 85.5t-32 118q0 35 12 73t28 62l220 340h90l-165 -260h5q33 10 65 10q62 0 113.5 -29t81.5 -80.5t30 -115.5t-32 -118t-87 -85.5t-121 -31.5t-121 31.5zM361 86q37 21 58 58t21 81t-21 81t-58 58t-81 21t-81 -21t-58 -58t-21 -81t21 -81t58 -58
t81 -21t81 21z" />
    <glyph glyph-name="seven" unicode="7" horiz-adv-x="495" 
d="M215 0h-85l246 625h-351v75h440v-65z" />
    <glyph glyph-name="eight" unicode="8" 
d="M159.5 17.5q-52.5 27.5 -81 73.5t-28.5 99q0 62 34 107.5t76 62.5v5q-36 17 -65.5 57t-29.5 93q0 54 27.5 99t77 70.5t110.5 25.5t110.5 -25.5t77 -70.5t27.5 -99q0 -53 -29.5 -93t-65.5 -57v-5q42 -17 76 -62.5t34 -107.5q0 -52 -28.5 -98t-81 -74t-120.5 -28
t-120.5 27.5zM378.5 429.5q36.5 34.5 36.5 85.5t-36.5 85.5t-98.5 34.5t-98.5 -34.5t-36.5 -85.5t36.5 -85.5t98.5 -34.5t98.5 34.5zM387 102q43 37 43 93t-43 93t-107 37t-107 -37t-43 -93t43 -93t107 -37t107 37z" />
    <glyph glyph-name="nine" unicode="9" 
d="M170 0l165 260h-5q-32 -10 -65 -10q-62 0 -113.5 29t-81.5 80.5t-30 115.5t32 118t87 85.5t121 31.5t121 -31.5t87 -85.5t32 -118q0 -35 -12 -73t-28 -62l-220 -340h-90zM361 336q37 21 58 58t21 81t-21 81t-58 58t-81 21t-81 -21t-58 -58t-21 -81t21 -81t58 -58t81 -21
t81 21z" />
    <glyph glyph-name="colon" unicode=":" horiz-adv-x="210" 
d="M150 410h-90v90h90v-90zM150 0h-90v90h90v-90z" />
    <glyph glyph-name="semicolon" unicode=";" horiz-adv-x="210" 
d="M155 410h-90v90h90v-90zM110 -80h-65l20 170h90z" />
    <glyph glyph-name="less" unicode="&#x3c;" horiz-adv-x="535" 
d="M480 145v-75l-425 185v70l425 185v-75l-345 -145z" />
    <glyph glyph-name="equal" unicode="=" horiz-adv-x="525" 
d="M455 340h-385v70h385v-70zM455 170h-385v70h385v-70z" />
    <glyph glyph-name="greater" unicode="&#x3e;" horiz-adv-x="535" 
d="M480 255l-425 -185v75l345 145l-345 145v75l425 -185v-70z" />
    <glyph glyph-name="question" unicode="?" horiz-adv-x="505" 
d="M200 220q0 59 24.5 94.5t85.5 65.5q75 38 75 125q0 56 -40 93t-100 37q-62 0 -101 -35t-39 -85h-80q0 55 28 99.5t78 70t114 25.5t114 -27t78 -74t28 -104q0 -65 -30 -111.5t-85 -73.5q-42 -21 -56 -44t-14 -56v-60h-80v60zM285 0h-90v90h90v-90z" />
    <glyph glyph-name="at" unicode="@" horiz-adv-x="925" 
d="M460 -90q-118 0 -209 50t-141 138t-50 197q0 113 52 203t143 141t205 51q122 0 216.5 -51t146.5 -139t52 -195q0 -111 -47.5 -168t-122.5 -57q-42 0 -71 20t-39 45h-5q-19 -25 -58.5 -45t-87.5 -20q-57 0 -102 26.5t-71 74.5t-26 109t26 109t71.5 74.5t102.5 26.5
q47 0 82 -18.5t48 -41.5h5l10 50h65v-285q0 -26 13.5 -40.5t36.5 -14.5q95 0 95 155q0 90 -42.5 161.5t-119.5 112.5t-178 41q-94 0 -168 -41.5t-115.5 -115.5t-41.5 -168q0 -92 40.5 -163.5t114.5 -111.5t170 -40h205v-70h-205zM543.5 188.5q36.5 38.5 36.5 101.5
t-36.5 101.5t-93.5 38.5t-93.5 -38.5t-36.5 -101.5t36.5 -101.5t93.5 -38.5t93.5 38.5z" />
    <glyph glyph-name="A" unicode="A" horiz-adv-x="650" 
d="M650 0h-85l-67 180h-346l-67 -180h-85l265 700h120zM315 615l-135 -360h290l-135 360h-20z" />
    <glyph glyph-name="B" unicode="B" horiz-adv-x="640" 
d="M80 0v700h300q52 0 95.5 -26t69 -70.5t25.5 -98.5q0 -53 -23.5 -93t-51.5 -57v-5q33 -15 59 -56t26 -99q0 -54 -25.5 -98.5t-69 -70.5t-95.5 -26h-310zM380 385q46 0 78 34t32 86t-32 86t-78 34h-220v-240h220zM390 75q46 0 78 34t32 86t-32 86t-78 34h-230v-240h230z
" />
    <glyph glyph-name="C" unicode="C" horiz-adv-x="730" 
d="M216 35.5q-77 45.5 -121.5 127.5t-44.5 187t44.5 187t121.5 127.5t169 45.5q113 0 196.5 -63t113.5 -172h-85q-26 75 -86 117.5t-139 42.5q-70 0 -128.5 -36t-92.5 -101t-34 -148t34 -148t92.5 -101t128.5 -36q79 0 139 43.5t86 121.5h85q-30 -112 -113.5 -176
t-196.5 -64q-92 0 -169 45.5z" />
    <glyph glyph-name="D" unicode="D" horiz-adv-x="700" 
d="M80 0v700h235q96 0 172.5 -44.5t119.5 -124.5t43 -181t-43 -181t-119.5 -124.5t-172.5 -44.5h-235zM315 75q72 0 130 34.5t91.5 97t33.5 143.5t-33.5 143.5t-91.5 97t-130 34.5h-155v-550h155z" />
    <glyph glyph-name="E" unicode="E" horiz-adv-x="585" 
d="M530 0h-450v700h450v-75h-370v-235h350v-75h-350v-240h370v-75z" />
    <glyph glyph-name="F" unicode="F" horiz-adv-x="565" 
d="M160 0h-80v700h440v-75h-360v-235h340v-75h-340v-315z" />
    <glyph glyph-name="G" unicode="G" horiz-adv-x="770" 
d="M410 360h290v-360h-65l-10 100h-5q-33 -42 -96.5 -76t-138.5 -34q-92 0 -169 45.5t-121.5 127.5t-44.5 187t44.5 187t121.5 127.5t169 45.5q106 0 191.5 -60t118.5 -160h-85q-30 67 -91.5 106t-133.5 39q-70 0 -128.5 -36t-92.5 -101t-34 -148t34 -148t92.5 -101
t128.5 -36q61 0 115.5 30.5t87 80.5t32.5 104v10h-210v70z" />
    <glyph glyph-name="H" unicode="H" horiz-adv-x="710" 
d="M160 0h-80v700h80v-310h390v310h80v-700h-80v315h-390v-315z" />
    <glyph glyph-name="I" unicode="I" horiz-adv-x="240" 
d="M160 0h-80v700h80v-700z" />
    <glyph glyph-name="J" unicode="J" horiz-adv-x="385" 
d="M10 0v75h170q23 0 36.5 14t13.5 36v575h80v-585q0 -54 -30.5 -84.5t-89.5 -30.5h-180z" />
    <glyph glyph-name="K" unicode="K" horiz-adv-x="555" 
d="M160 0h-80v700h80v-330l295 330h100l-310 -345l330 -355h-101l-314 340v-340z" />
    <glyph glyph-name="L" unicode="L" horiz-adv-x="530" 
d="M510 0h-430v700h80v-625h350v-75z" />
    <glyph glyph-name="M" unicode="M" horiz-adv-x="900" 
d="M160 0h-80v700h145l215 -610h20l215 610h145v-700h-80v595h-20l-210 -595h-120l-210 595h-20v-595z" />
    <glyph glyph-name="N" unicode="N" horiz-adv-x="710" 
d="M160 0h-80v700h135l315 -605h20v605h80v-700h-135l-315 605h-20v-605z" />
    <glyph glyph-name="O" unicode="O" horiz-adv-x="770" 
d="M216 35.5q-77 45.5 -121.5 127.5t-44.5 187t44.5 187t121.5 127.5t169 45.5t169 -45.5t121.5 -127.5t44.5 -187t-44.5 -187t-121.5 -127.5t-169 -45.5t-169 45.5zM513.5 101q58.5 36 92.5 101t34 148t-34 148t-92.5 101t-128.5 36t-128.5 -36t-92.5 -101t-34 -148
t34 -148t92.5 -101t128.5 -36t128.5 36z" />
    <glyph glyph-name="P" unicode="P" horiz-adv-x="635" 
d="M80 0v700h305q55 0 100.5 -28t72.5 -77t27 -110t-27 -110t-72.5 -77t-100.5 -28h-225v-270h-80zM385 345q50 0 85 39t35 101t-35 101t-85 39h-225v-280h225z" />
    <glyph glyph-name="Q" unicode="Q" horiz-adv-x="770" 
d="M693.5 202.5q-26.5 -67.5 -74.5 -116.5l101 -96h-100l-55 52q-82 -52 -180 -52q-92 0 -169 45.5t-121.5 127.5t-44.5 187t44.5 187t121.5 127.5t169 45.5t169 -45.5t121.5 -127.5t44.5 -187q0 -80 -26.5 -147.5zM164 202q34 -65 92.5 -101t128.5 -36q67 0 122 32
l-167 163h100l122 -119q37 39 57.5 92t20.5 117q0 83 -34 148t-92.5 101t-128.5 36t-128.5 -36t-92.5 -101t-34 -148t34 -148z" />
    <glyph glyph-name="R" unicode="R" horiz-adv-x="640" 
d="M319 270l281 -270h-100l-280 270h-60v-270h-80v700h305q55 0 100.5 -28t72.5 -77t27 -110t-27 -110t-72.5 -77t-100.5 -28h-66zM160 345h225q50 0 85 39t35 101t-35 101t-85 39h-225v-280z" />
    <glyph glyph-name="S" unicode="S" horiz-adv-x="615" 
d="M170 19.5q-60 29.5 -92.5 78.5t-32.5 107h80q0 -38 21.5 -70t63.5 -51t100 -19q89 0 132 34.5t43 90.5q0 45 -30 74.5t-90 40.5l-135 25q-170 32 -170 180q0 58 29 103t83.5 71t127.5 26q78 0 137 -28.5t91 -77.5t32 -109h-80q0 38 -21.5 70t-62 51t-96.5 19
q-76 0 -118 -35t-42 -90q0 -42 28.5 -71t86.5 -39l110 -20q104 -19 152 -65t48 -125q0 -58 -29.5 -103.5t-87.5 -71t-138 -25.5t-140 29.5z" />
    <glyph glyph-name="T" unicode="T" horiz-adv-x="590" 
d="M335 0h-80v625h-230v75h540v-75h-230v-625z" />
    <glyph glyph-name="U" unicode="U" horiz-adv-x="690" 
d="M205 26q-63 36 -99 101t-36 148v425h80v-425q0 -61 25.5 -109t70 -74.5t99.5 -26.5t99.5 26.5t70 74.5t25.5 109v425h80v-425q0 -83 -36 -148t-99 -101t-140 -36t-140 36z" />
    <glyph glyph-name="V" unicode="V" horiz-adv-x="650" 
d="M385 0h-120l-255 700h85l220 -615h20l220 615h85z" />
    <glyph glyph-name="W" unicode="W" horiz-adv-x="980" 
d="M328 0h-138l-175 700h85l150 -615h20l160 615h120l160 -615h20l150 615h85l-175 -700h-138l-152 585h-20z" />
    <glyph glyph-name="X" unicode="X" horiz-adv-x="620" 
d="M101 0h-91l245 360l-230 340h90l185 -275h20l185 275h90l-230 -340l245 -360h-91l-199 295h-20z" />
    <glyph glyph-name="Y" unicode="Y" horiz-adv-x="590" 
d="M335 0h-80v265l-255 435h85l200 -345h20l200 345h85l-255 -435v-265z" />
    <glyph glyph-name="Z" unicode="Z" horiz-adv-x="575" 
d="M540 0h-505v65l400 560h-395v75h495v-65l-400 -560h405v-75z" />
    <glyph glyph-name="bracketleft" unicode="[" horiz-adv-x="315" 
d="M280 -200h-200v930h200v-70h-125v-790h125v-70z" />
    <glyph glyph-name="backslash" unicode="\" horiz-adv-x="350" 
d="M350 -200h-75l-275 930h75z" />
    <glyph glyph-name="bracketright" unicode="]" horiz-adv-x="315" 
d="M235 -200h-200v70h125v790h-125v70h200v-930z" />
    <glyph glyph-name="asciicircum" unicode="^" horiz-adv-x="405" 
d="M125 430h-70l110 270h75l110 -270h-70l-75 195h-5z" />
    <glyph glyph-name="underscore" unicode="_" horiz-adv-x="360" 
d="M380 -170h-400v70h400v-70z" />
    <glyph glyph-name="grave" unicode="`" horiz-adv-x="245" 
d="M215 580h-70l-115 140h90z" />
    <glyph glyph-name="a" unicode="a" horiz-adv-x="530" 
d="M98.5 33.5q-48.5 43.5 -48.5 111.5q0 75 49.5 117.5t150.5 42.5h135v15q0 56 -32 88t-88 32q-54 0 -87.5 -24.5t-37.5 -60.5h-75q3 41 27 76.5t68.5 57t104.5 21.5q91 0 143 -50.5t52 -139.5v-320h-65l-10 60h-5q-17 -27 -58.5 -48.5t-96.5 -21.5q-78 0 -126.5 43.5z
M342.5 101.5q42.5 41.5 42.5 113.5v20h-135q-64 0 -94.5 -25t-30.5 -65q0 -38 26 -61.5t74 -23.5q75 0 117.5 41.5z" />
    <glyph glyph-name="b" unicode="b" horiz-adv-x="585" 
d="M225 10.5q-39 20.5 -70 59.5h-5l-10 -70h-65v700h75v-270h5q31 39 70 59.5t90 20.5q65 0 117.5 -33t82.5 -92t30 -135t-30 -135t-82.5 -92t-117.5 -33q-51 0 -90 20.5zM389.5 84q36.5 24 58.5 67t22 99t-22 99t-58.5 67t-79.5 24t-79.5 -24t-58.5 -67t-22 -99t22 -99
t58.5 -67t79.5 -24t79.5 24z" />
    <glyph glyph-name="c" unicode="c" horiz-adv-x="535" 
d="M158 23q-55 33 -86.5 92t-31.5 135t31.5 135t86.5 92t122 33q83 0 142 -45.5t78 -124.5h-75q-15 48 -53.5 74t-91.5 26q-45 0 -83 -23.5t-60 -67t-22 -99.5t22 -99.5t60 -67t83 -23.5q54 0 92 27t53 78h75q-19 -82 -78 -128.5t-142 -46.5q-67 0 -122 33z" />
    <glyph glyph-name="d" unicode="d" horiz-adv-x="585" 
d="M152.5 23q-52.5 33 -82.5 92t-30 135t30 135t82.5 92t117.5 33q51 0 90 -20.5t70 -59.5h5v270h75v-700h-65l-10 70h-5q-31 -39 -70 -59.5t-90 -20.5q-65 0 -117.5 33zM354.5 84q36.5 24 58.5 67t22 99t-22 99t-58.5 67t-79.5 24t-79.5 -24t-58.5 -67t-22 -99t22 -99
t58.5 -67t79.5 -24t79.5 24z" />
    <glyph glyph-name="e" unicode="e" horiz-adv-x="550" 
d="M158 23q-55 33 -86.5 92t-31.5 135t31.5 135t86.5 92t122 33q64 0 117 -31t83 -85.5t30 -123.5q0 -40 -5 -55h-390q7 -70 54 -112.5t111 -42.5q45 0 80.5 21t54.5 59h80q-26 -72 -81.5 -111t-133.5 -39q-67 0 -122 33zM435 285q-4 68 -47.5 111.5t-107.5 43.5
q-67 0 -112 -43.5t-53 -111.5h320z" />
    <glyph glyph-name="f" unicode="f" horiz-adv-x="310" 
d="M105 0v430h-80v70h80v95q0 38 24.5 61.5t65.5 23.5h90v-70h-75q-30 0 -30 -30v-80h105v-70h-105v-430h-75z" />
    <glyph glyph-name="g" unicode="g" horiz-adv-x="580" 
d="M168 -186q-50 24 -77.5 63t-30.5 83h75q4 -41 43.5 -70.5t106.5 -29.5q68 0 109 38t41 102v90h-5q-30 -34 -71 -52t-89 -18q-65 0 -117.5 31t-82.5 87t-30 127t30 127t82.5 87t117.5 31q48 0 90.5 -20.5t69.5 -54.5h5l10 65h65v-500q0 -62 -27 -109.5t-78 -74t-120 -26.5
q-67 0 -117 24zM356.5 112q36.5 22 57.5 62t21 91t-21 91t-57.5 62t-81.5 22t-81.5 -22t-57.5 -62t-21 -91t21 -91t57.5 -62t81.5 -22t81.5 22z" />
    <glyph glyph-name="h" unicode="h" horiz-adv-x="575" 
d="M75 0v700h75v-255h5q20 25 60 45t90 20q57 0 102.5 -26.5t71.5 -74.5t26 -109v-300h-75v300q0 39 -18 71t-49 50.5t-68 18.5q-39 0 -72.5 -19.5t-53 -51.5t-19.5 -69v-300h-75z" />
    <glyph glyph-name="i" unicode="i" horiz-adv-x="215" 
d="M145 0h-75v500h75v-500zM151 605h-85v85h85v-85z" />
    <glyph glyph-name="j" unicode="j" horiz-adv-x="215" 
d="M-35 -200v70h75q30 0 30 30v600h75v-615q0 -38 -24.5 -61.5t-65.5 -23.5h-90zM151 605h-85v85h85v-85z" />
    <glyph glyph-name="k" unicode="k" horiz-adv-x="480" 
d="M150 0h-75v700h75v-430l224 230h96l-240 -245l250 -255h-96l-234 240v-240z" />
    <glyph glyph-name="l" unicode="l" horiz-adv-x="225" 
d="M150 0h-75v700h75v-700z" />
    <glyph glyph-name="m" unicode="m" horiz-adv-x="845" 
d="M70 0v500h65l10 -55h5q20 25 55 45t75 20q53 0 91.5 -26t53.5 -59h5q21 33 65.5 59t99.5 26q52 0 93 -25t64 -69t23 -101v-315h-75v315q0 56 -31.5 90.5t-83.5 34.5q-32 0 -61 -16.5t-46.5 -45.5t-17.5 -63v-315h-75v315q0 56 -31.5 90.5t-83.5 34.5q-32 0 -61 -16.5
t-46.5 -45.5t-17.5 -63v-315h-75z" />
    <glyph glyph-name="n" unicode="n" horiz-adv-x="570" 
d="M70 0v500h65l10 -55h5q20 25 60 45t90 20q57 0 102.5 -26.5t71.5 -74.5t26 -109v-300h-75v300q0 39 -18 71t-49 50.5t-68 18.5q-39 0 -72.5 -19.5t-53 -51.5t-19.5 -69v-300h-75z" />
    <glyph glyph-name="o" unicode="o" 
d="M158 23q-55 33 -86.5 92t-31.5 135t31.5 135t86.5 92t122 33t122 -33t86.5 -92t31.5 -135t-31.5 -135t-86.5 -92t-122 -33t-122 33zM363 83.5q38 23.5 60 67t22 99.5t-22 99.5t-60 67t-83 23.5t-83 -23.5t-60 -67t-22 -99.5t22 -99.5t60 -67t83 -23.5t83 23.5z" />
    <glyph glyph-name="p" unicode="p" horiz-adv-x="580" 
d="M70 -200v700h65l10 -70h5q31 39 70 59.5t90 20.5q65 0 117.5 -33t82.5 -92t30 -135t-30 -135t-82.5 -92t-117.5 -33q-51 0 -90 20.5t-70 59.5h-5v-270h-75zM384.5 84q36.5 24 58.5 67t22 99t-22 99t-58.5 67t-79.5 24t-79.5 -24t-58.5 -67t-22 -99t22 -99t58.5 -67
t79.5 -24t79.5 24z" />
    <glyph glyph-name="q" unicode="q" horiz-adv-x="580" 
d="M435 -200v270h-5q-31 -39 -70 -59.5t-90 -20.5q-65 0 -117.5 33t-82.5 92t-30 135t30 135t82.5 92t117.5 33q51 0 90 -20.5t70 -59.5h5l10 70h65v-700h-75zM354.5 84q36.5 24 58.5 67t22 99t-22 99t-58.5 67t-79.5 24t-79.5 -24t-58.5 -67t-22 -99t22 -99t58.5 -67
t79.5 -24t79.5 24z" />
    <glyph glyph-name="r" unicode="r" horiz-adv-x="340" 
d="M70 0v500h65l10 -50h5q17 26 37 38t58 12h85v-70h-75q-52 0 -81 -28.5t-29 -81.5v-320h-75z" />
    <glyph glyph-name="s" unicode="s" horiz-adv-x="460" 
d="M124.5 11.5q-45.5 21.5 -70 57t-24.5 76.5h75q0 -35 33.5 -60t91.5 -25q57 0 88.5 21.5t31.5 53.5q0 30 -20.5 48.5t-64.5 26.5l-85 15q-140 24 -140 140q0 63 47.5 104t137.5 41q58 0 102.5 -21.5t68.5 -57.5t24 -76h-75q0 35 -33 60t-87 25q-53 0 -81.5 -21.5
t-28.5 -53.5q0 -28 18.5 -45t61.5 -25l85 -15q75 -13 110 -49t35 -96q0 -63 -50.5 -104t-144.5 -41q-60 0 -105.5 21.5z" />
    <glyph glyph-name="t" unicode="t" horiz-adv-x="340" 
d="M195 0q-41 0 -65.5 23.5t-24.5 61.5v345h-80v70h80v140h75v-140h115v-70h-115v-330q0 -30 30 -30h85v-70h-100z" />
    <glyph glyph-name="u" unicode="u" horiz-adv-x="570" 
d="M167.5 16.5q-45.5 26.5 -71.5 74.5t-26 109v300h75v-300q0 -39 18 -71t49 -50.5t68 -18.5q39 0 72.5 19.5t53 51.5t19.5 69v300h75v-500h-65l-10 55h-5q-21 -26 -60.5 -45.5t-89.5 -19.5q-57 0 -102.5 26.5z" />
    <glyph glyph-name="v" unicode="v" horiz-adv-x="500" 
d="M310 0h-120l-180 500h80l150 -420h20l150 420h80z" />
    <glyph glyph-name="w" unicode="w" horiz-adv-x="790" 
d="M280 0h-130l-135 500h80l110 -420h20l110 420h120l110 -420h20l110 420h80l-135 -500h-130l-105 405h-20z" />
    <glyph glyph-name="x" unicode="x" horiz-adv-x="480" 
d="M100 0h-90l170 255l-165 245h90l125 -190h20l125 190h90l-165 -245l170 -255h-90l-130 200h-20z" />
    <glyph glyph-name="y" unicode="y" horiz-adv-x="495" 
d="M405 500h80l-225 -630q-13 -36 -34 -53t-61 -17h-100v70h95q25 0 35 30l20 60l-205 540h80l155 -415h20z" />
    <glyph glyph-name="z" unicode="z" horiz-adv-x="430" 
d="M405 0h-380v65l280 365h-275v70h370v-65l-280 -365h285v-70z" />
    <glyph glyph-name="braceleft" unicode="{" horiz-adv-x="315" 
d="M230 -200q-49 0 -79.5 30.5t-30.5 79.5v260q0 23 -18 39t-47 16v80q29 0 47 16t18 39v260q0 49 30.5 79.5t79.5 30.5h50v-65h-40q-45 0 -45 -45v-260q0 -40 -25 -61.5t-55 -23.5v-20q30 -2 55 -23.5t25 -61.5v-260q0 -45 45 -45h40v-65h-50z" />
    <glyph glyph-name="bar" unicode="|" horiz-adv-x="315" 
d="M195 -200h-75v930h75v-930z" />
    <glyph glyph-name="braceright" unicode="}" horiz-adv-x="315" 
d="M35 -200v65h40q45 0 45 45v260q0 40 25 61.5t55 23.5v20q-30 2 -55 23.5t-25 61.5v260q0 45 -45 45h-40v65h50q49 0 79.5 -30.5t30.5 -79.5v-260q0 -23 18 -39t47 -16v-80q-29 0 -47 -16t-18 -39v-260q0 -49 -30.5 -79.5t-79.5 -30.5h-50z" />
    <glyph glyph-name="asciitilde" unicode="~" horiz-adv-x="565" 
d="M45 195q0 78 38.5 121.5t106.5 43.5q35 0 60.5 -15.5t54.5 -43.5q24 -22 38 -31.5t32 -9.5q70 0 70 95h75q0 -78 -38.5 -121.5t-106.5 -43.5q-35 0 -60.5 15.5t-54.5 43.5q-24 22 -38 31.5t-32 9.5q-70 0 -70 -95h-75z" />
    <glyph glyph-name="uni00A0" unicode="&#xa0;" horiz-adv-x="230" 
 />
    <glyph glyph-name="exclamdown" unicode="&#xa1;" horiz-adv-x="250" 
d="M170 410h-90v90h90v-90zM165 -200h-80v300l10 240h60l10 -240v-300z" />
    <glyph glyph-name="cent" unicode="&#xa2;" horiz-adv-x="535" 
d="M240 -5q-58 10 -103.5 44t-71 88.5t-25.5 122.5t25.5 122.5t71 88.5t103.5 44v105h75v-105q72 -11 119 -52.5t66 -112.5h-75q-15 48 -53.5 74t-91.5 26q-45 0 -83 -23.5t-60 -67t-22 -99.5t22 -99.5t60 -67t83 -23.5q54 0 92 27t53 78h75q-37 -147 -185 -170v-105h-75
v105z" />
    <glyph glyph-name="sterling" unicode="&#xa3;" horiz-adv-x="590" 
d="M35 0v75h25q60 0 60 60v165h-85v70h85v135q0 57 27 104t75.5 74t112.5 27t112.5 -25.5t75.5 -70t27 -99.5h-80q0 51 -36.5 85.5t-98.5 34.5q-60 0 -97.5 -36.5t-37.5 -93.5v-135h195v-70h-195v-165q0 -25 -9.5 -41t-20.5 -19h395v-75h-530z" />
    <glyph glyph-name="currency" unicode="&#xa4;" horiz-adv-x="580" 
d="M135 140l-55 50l55 65q-10 13 -17.5 39t-7.5 56t7.5 56t17.5 39l-55 65l55 50l55 -60q15 11 42.5 20.5t57.5 9.5t57.5 -9.5t42.5 -20.5l55 60l55 -50l-55 -65q10 -13 17.5 -39t7.5 -56t-7.5 -56t-17.5 -39l55 -65l-55 -50l-55 60q-15 -11 -42.5 -20.5t-57.5 -9.5
t-57.5 9.5t-42.5 20.5zM367.5 272.5q32.5 32.5 32.5 77.5t-32.5 77.5t-77.5 32.5t-77.5 -32.5t-32.5 -77.5t32.5 -77.5t77.5 -32.5t77.5 32.5z" />
    <glyph glyph-name="yen" unicode="&#xa5;" horiz-adv-x="580" 
d="M330 0h-80v140h-170v70h170v80h-170v70h120l-190 340h85l185 -340h20l185 340h85l-190 -340h120v-70h-170v-80h170v-70h-170v-140z" />
    <glyph glyph-name="brokenbar" unicode="&#xa6;" horiz-adv-x="315" 
d="M195 360h-75v370h75v-370zM195 -200h-75v370h75v-370z" />
    <glyph glyph-name="section" unicode="&#xa7;" horiz-adv-x="620" 
d="M187.5 -143q-54.5 27 -83.5 73.5t-29 104.5h80q0 -58 41.5 -94t118.5 -36q72 0 108.5 28t36.5 72q0 84 -105 105l-100 20q-190 38 -190 175q0 40 18.5 74t41.5 51q-15 13 -27.5 41.5t-12.5 63.5q0 78 57.5 126.5t162.5 48.5q71 0 124 -27t82 -73.5t29 -104.5h-80
q0 58 -41 94t-114 36q-68 0 -104 -28t-36 -72q0 -38 22 -58.5t78 -31.5l100 -20q98 -20 144 -62t46 -113q0 -43 -18.5 -78t-41.5 -52q17 -13 31 -44t14 -71q0 -48 -26.5 -88t-77.5 -63.5t-121 -23.5q-73 0 -127.5 27zM462.5 194q12.5 24 12.5 56q0 78 -110 100l-100 20
q-58 12 -75 20q-17 -10 -31 -32.5t-14 -52.5q0 -78 110 -100l100 -20q54 -11 80 -25q15 10 27.5 34z" />
    <glyph glyph-name="dieresis" unicode="&#xa8;" horiz-adv-x="320" 
d="M115 605h-85v85h85v-85zM290 605h-85v85h85v-85z" />
    <glyph glyph-name="copyright" unicode="&#xa9;" horiz-adv-x="840" 
d="M236.5 37q-82.5 47 -129.5 129.5t-47 183.5t47 183.5t129.5 129.5t183.5 47t183.5 -47t129.5 -129.5t47 -183.5t-47 -183.5t-129.5 -129.5t-183.5 -47t-183.5 47zM565.5 93.5q66.5 38.5 105.5 106t39 150.5t-39 150.5t-105.5 106t-145.5 38.5t-145.5 -38.5t-105.5 -106
t-39 -150.5t39 -150.5t105.5 -106t145.5 -38.5t145.5 38.5zM332 184.5q-41 24.5 -64 68t-23 97.5t24 97.5t65 68t91 24.5q60 0 105 -34.5t60 -90.5h-65q-22 65 -100 65q-50 0 -82.5 -35.5t-32.5 -94.5t32.5 -94.5t82.5 -35.5q79 0 100 70h65q-15 -60 -60 -95t-105 -35
q-52 0 -93 24.5z" />
    <glyph glyph-name="ordfeminine" unicode="&#xaa;" horiz-adv-x="335" 
d="M65.5 417.5q-30.5 27.5 -30.5 72.5q0 43 31 69t89 26h80v10q0 29 -18.5 44.5t-46.5 15.5q-49 0 -65 -40h-60q8 42 41 68.5t84 26.5q53 0 86.5 -31.5t33.5 -83.5v-200h-40l-10 40h-5q-12 -20 -35 -32.5t-55 -12.5q-49 0 -79.5 27.5zM213 467q22 22 22 63v5h-80
q-27 0 -43.5 -11.5t-16.5 -33.5t15.5 -33.5t39.5 -11.5q41 0 63 22z" />
    <glyph glyph-name="guillemotleft" unicode="&#xab;" horiz-adv-x="495" 
d="M265 55h-80l-140 195l140 195h80l-140 -195zM450 55h-80l-140 195l140 195h80l-140 -195z" />
    <glyph glyph-name="logicalnot" unicode="&#xac;" horiz-adv-x="525" 
d="M450 165h-75v130h-305v70h380v-200z" />
    <glyph glyph-name="uni00AD" unicode="&#xad;" horiz-adv-x="410" 
d="M365 250h-320v70h320v-70z" />
    <glyph glyph-name="registered" unicode="&#xae;" horiz-adv-x="840" 
d="M603.5 663q82.5 -47 129.5 -129.5t47 -183.5t-47 -183.5t-129.5 -129.5t-183.5 -47t-183.5 47t-129.5 129.5t-47 183.5t47 183.5t129.5 129.5t183.5 47t183.5 -47zM565.5 93.5q66.5 38.5 105.5 106t39 150.5t-39 150.5t-105.5 106t-145.5 38.5t-145.5 -38.5t-105.5 -106
t-39 -150.5t39 -150.5t105.5 -106t145.5 -38.5t145.5 38.5zM542 328q-33 -35 -82 -38l125 -125h-80l-125 125h-30v-125h-65v375h165q53 0 89 -36t36 -89q0 -52 -33 -87zM350 350h100q27 0 43.5 17.5t16.5 47.5t-16.5 47.5t-43.5 17.5h-100v-130z" />
    <glyph glyph-name="macron" unicode="&#xaf;" horiz-adv-x="340" 
d="M310 618h-280v60h280v-60z" />
    <glyph glyph-name="degree" unicode="&#xb0;" horiz-adv-x="370" 
d="M92 487q-37 37 -37 93t37 93t93 37t93 -37t37 -93t-37 -93t-93 -37t-93 37zM235 530q20 20 20 50t-20 50t-50 20t-50 -20t-20 -50t20 -50t50 -20t50 20z" />
    <glyph glyph-name="plusminus" unicode="&#xb1;" horiz-adv-x="535" 
d="M305 140h-75v185h-180v70h180v185h75v-185h180v-70h-180v-185zM480 0h-425v70h425v-70z" />
    <glyph glyph-name="uni00B2" unicode="&#xb2;" horiz-adv-x="335" 
d="M55 440v50l140 145q16 16 23 29t7 31q0 23 -15 39t-40 16q-27 0 -43.5 -15.5t-16.5 -44.5h-60q0 49 34 82t86 33t83.5 -30.5t31.5 -79.5q0 -31 -11.5 -51.5t-38.5 -48.5l-90 -95v-5h145v-55h-235z" />
    <glyph glyph-name="uni00B3" unicode="&#xb3;" horiz-adv-x="335" 
d="M79 465q-34 30 -34 75h60q0 -19 17.5 -34.5t42.5 -15.5q27 0 43.5 14.5t16.5 40.5t-17.5 40.5t-47.5 14.5h-25v55h25q29 0 44.5 13.5t15.5 36.5q0 19 -15 32t-40 13t-40 -13t-15 -32h-60q0 42 32 71t83 29t83 -29t32 -71q0 -22 -13.5 -43t-36.5 -32v-5q24 -8 39.5 -29.5
t15.5 -50.5q0 -47 -32.5 -78.5t-87.5 -31.5q-52 0 -86 30z" />
    <glyph glyph-name="acute" unicode="&#xb4;" horiz-adv-x="245" 
d="M100 580h-70l95 140h90z" />
    <glyph glyph-name="uni00B5" unicode="&#xb5;" horiz-adv-x="570" 
d="M70 -200v700h75v-300q0 -39 18 -71t49 -50.5t68 -18.5q39 0 72.5 19.5t53 51.5t19.5 69v300h75v-500h-65l-10 55h-5q-18 -25 -58 -45t-87 -20q-45 0 -80 17t-50 38v-245h-75z" />
    <glyph glyph-name="paragraph" unicode="&#xb6;" horiz-adv-x="525" 
d="M205 360q-45 0 -81.5 21.5t-57.5 60.5t-21 88t21 88t57.5 60.5t81.5 21.5h240v-800h-75v730h-90v-730h-75v460z" />
    <glyph glyph-name="periodcentered" unicode="&#xb7;" horiz-adv-x="230" 
d="M160 220h-90v90h90v-90z" />
    <glyph glyph-name="cedilla" unicode="&#xb8;" horiz-adv-x="205" 
d="M30 -200v50h40q22 0 33.5 9.5t11.5 25.5t-11.5 25.5t-33.5 9.5h-25v35l27 60l53 -15l-20 -45q29 -4 49.5 -26t20.5 -49q0 -35 -25.5 -57.5t-69.5 -22.5h-50z" />
    <glyph glyph-name="uni00B9" unicode="&#xb9;" horiz-adv-x="255" 
d="M120 440v260h-85v55h55q30 0 30 30v15h60v-360h-60z" />
    <glyph glyph-name="ordmasculine" unicode="&#xba;" horiz-adv-x="370" 
d="M80.5 434.5q-40.5 44.5 -40.5 115.5t40.5 115.5t104.5 44.5t104.5 -44.5t40.5 -115.5t-40.5 -115.5t-104.5 -44.5t-104.5 44.5zM245 474q25 29 25 76t-25 76t-60 29t-60 -29t-25 -76t25 -76t60 -29t60 29z" />
    <glyph glyph-name="guillemotright" unicode="&#xbb;" horiz-adv-x="495" 
d="M125 55h-80l140 195l-140 195h80l140 -195zM310 55h-80l140 195l-140 195h80l140 -195z" />
    <glyph glyph-name="onequarter" unicode="&#xbc;" horiz-adv-x="680" 
d="M120 340v260h-85v55h55q30 0 30 30v15h60v-360h-60zM135 0h-70l435 700h70zM605 0h-60v75h-165v50l135 235h90v-230h50v-55h-50v-75zM455 135v-5h90v150h-10z" />
    <glyph glyph-name="onehalf" unicode="&#xbd;" horiz-adv-x="695" 
d="M120 340v260h-85v55h55q30 0 30 30v15h60v-360h-60zM135 0h-70l435 700h70zM415 0v50l140 145q16 16 23 29t7 31q0 23 -15 39t-40 16q-27 0 -43.5 -15.5t-16.5 -44.5h-60q0 49 34 82t86 33t83.5 -30.5t31.5 -79.5q0 -31 -11.5 -51.5t-38.5 -48.5l-90 -95v-5h145v-55h-235
z" />
    <glyph glyph-name="threequarters" unicode="&#xbe;" horiz-adv-x="740" 
d="M79 365q-34 30 -34 75h60q0 -19 17.5 -34.5t42.5 -15.5q27 0 43.5 14.5t16.5 40.5t-17.5 40.5t-47.5 14.5h-25v55h25q29 0 44.5 13.5t15.5 36.5q0 19 -15 32t-40 13t-40 -13t-15 -32h-60q0 42 32 71t83 29t83 -29t32 -71q0 -22 -13.5 -43t-36.5 -32v-5q24 -8 39.5 -29.5
t15.5 -50.5q0 -47 -32.5 -78.5t-87.5 -31.5q-52 0 -86 30zM195 0h-70l435 700h70zM665 0h-60v75h-165v50l135 235h90v-230h50v-55h-50v-75zM515 135v-5h90v150h-10z" />
    <glyph glyph-name="questiondown" unicode="&#xbf;" horiz-adv-x="505" 
d="M310 410h-90v90h90v-90zM146 -183q-50 27 -78 74t-28 104q0 65 30 111.5t85 73.5q42 21 56 44t14 56v60h80v-60q0 -59 -24.5 -94.5t-85.5 -65.5q-75 -37 -75 -125q0 -56 40 -93t100 -37q62 0 101 35t39 85h80q0 -55 -28 -99.5t-78 -70t-114 -25.5t-114 27z" />
    <glyph glyph-name="Agrave" unicode="&#xc0;" horiz-adv-x="650" 
d="M650 0h-85l-67 180h-346l-67 -180h-85l265 700h120zM315 615l-135 -360h290l-135 360h-20zM360 770h-70l-115 140h90z" />
    <glyph glyph-name="Aacute" unicode="&#xc1;" horiz-adv-x="650" 
d="M650 0h-85l-67 180h-346l-67 -180h-85l265 700h120zM315 615l-135 -360h290l-135 360h-20zM359 770h-70l95 140h90z" />
    <glyph glyph-name="Acircumflex" unicode="&#xc2;" horiz-adv-x="650" 
d="M650 0h-85l-67 180h-346l-67 -180h-85l265 700h120zM315 615l-135 -360h290l-135 360h-20zM250 770h-80l115 135h80l115 -135h-80l-75 90z" />
    <glyph glyph-name="Atilde" unicode="&#xc3;" horiz-adv-x="650" 
d="M650 0h-85l-67 180h-346l-67 -180h-85l265 700h120zM315 615l-135 -360h290l-135 360h-20zM168 790q0 44 29 72t71 28q18 0 33.5 -6.5t34.5 -18.5q29 -20 47 -20q16 0 28 12t12 33h60q0 -44 -29 -72t-71 -28q-18 0 -33.5 6.5t-34.5 18.5q-29 20 -47 20q-16 0 -28 -12
t-12 -33h-60z" />
    <glyph glyph-name="Adieresis" unicode="&#xc4;" horiz-adv-x="650" 
d="M650 0h-85l-67 180h-346l-67 -180h-85l265 700h120zM315 615l-135 -360h290l-135 360h-20zM280 800h-85v85h85v-85zM455 800h-85v85h85v-85z" />
    <glyph glyph-name="Aring" unicode="&#xc5;" horiz-adv-x="650" 
d="M650 0h-85l-67 180h-346l-67 -180h-85l265 700h120zM315 615l-135 -360h290l-135 360h-20zM261 786.5q-26 26.5 -26 63.5q0 38 26 64t64 26q37 0 63.5 -26t26.5 -64q0 -37 -26.5 -63.5t-63.5 -26.5q-38 0 -64 26.5zM353 821q12 11 12 29t-12 29t-28 11t-28 -11t-12 -29
t12 -29t28 -11t28 11z" />
    <glyph glyph-name="AE" unicode="&#xc6;" horiz-adv-x="925" 
d="M870 700v-75h-370v-235h350v-75h-350v-240h370v-75h-450v175h-269l-76 -175h-85l305 700h575zM345 625l-162 -375h237v375h-75z" />
    <glyph glyph-name="Ccedilla" unicode="&#xc7;" horiz-adv-x="730" 
d="M524 108.5q60 43.5 86 121.5h85q-28 -106 -105.5 -169.5t-183.5 -69.5l-16 -36q29 -4 49.5 -26t20.5 -49q0 -35 -25.5 -57.5t-69.5 -22.5h-50v50h40q22 0 33.5 9.5t11.5 25.5t-11.5 25.5t-33.5 9.5h-25v35l17 37q-84 10 -151.5 57t-106.5 125t-39 176q0 105 44.5 187
t121.5 127.5t169 45.5q113 0 196.5 -63t113.5 -172h-85q-26 75 -86 117.5t-139 42.5q-70 0 -128.5 -36t-92.5 -101t-34 -148t34 -148t92.5 -101t128.5 -36q79 0 139 43.5z" />
    <glyph glyph-name="Egrave" unicode="&#xc8;" horiz-adv-x="585" 
d="M530 0h-450v700h450v-75h-370v-235h350v-75h-350v-240h370v-75zM345 770h-70l-115 140h90z" />
    <glyph glyph-name="Eacute" unicode="&#xc9;" horiz-adv-x="585" 
d="M530 0h-450v700h450v-75h-370v-235h350v-75h-350v-240h370v-75zM344 770h-70l95 140h90z" />
    <glyph glyph-name="Ecircumflex" unicode="&#xca;" horiz-adv-x="585" 
d="M530 0h-450v700h450v-75h-370v-235h350v-75h-350v-240h370v-75zM235 770h-80l115 135h80l115 -135h-80l-75 90z" />
    <glyph glyph-name="Edieresis" unicode="&#xcb;" horiz-adv-x="585" 
d="M530 0h-450v700h450v-75h-370v-235h350v-75h-350v-240h370v-75zM265 800h-85v85h85v-85zM440 800h-85v85h85v-85z" />
    <glyph glyph-name="Igrave" unicode="&#xcc;" horiz-adv-x="240" 
d="M160 0h-80v700h80v-700zM155 770h-70l-115 140h90z" />
    <glyph glyph-name="Iacute" unicode="&#xcd;" horiz-adv-x="240" 
d="M160 0h-80v700h80v-700zM154 770h-70l95 140h90z" />
    <glyph glyph-name="Icircumflex" unicode="&#xce;" horiz-adv-x="240" 
d="M160 0h-80v700h80v-700zM45 770h-80l115 135h80l115 -135h-80l-75 90z" />
    <glyph glyph-name="Idieresis" unicode="&#xcf;" horiz-adv-x="240" 
d="M160 0h-80v700h80v-700zM75 800h-85v85h85v-85zM250 800h-85v85h85v-85z" />
    <glyph glyph-name="Eth" unicode="&#xd0;" horiz-adv-x="740" 
d="M355 700q96 0 172.5 -44.5t119.5 -124.5t43 -181t-43 -181t-119.5 -124.5t-172.5 -44.5h-235v315h-95v75h95v310h235zM355 75q72 0 130 34.5t91.5 97t33.5 143.5t-33.5 143.5t-91.5 97t-130 34.5h-155v-235h185v-75h-185v-240h155z" />
    <glyph glyph-name="Ntilde" unicode="&#xd1;" horiz-adv-x="710" 
d="M160 0h-80v700h135l315 -605h20v605h80v-700h-135l-315 605h-20v-605zM198 790q0 44 29 72t71 28q18 0 33.5 -6.5t34.5 -18.5q29 -20 47 -20q16 0 28 12t12 33h60q0 -44 -29 -72t-71 -28q-18 0 -33.5 6.5t-34.5 18.5q-29 20 -47 20q-16 0 -28 -12t-12 -33h-60z" />
    <glyph glyph-name="Ograve" unicode="&#xd2;" horiz-adv-x="770" 
d="M216 35.5q-77 45.5 -121.5 127.5t-44.5 187t44.5 187t121.5 127.5t169 45.5t169 -45.5t121.5 -127.5t44.5 -187t-44.5 -187t-121.5 -127.5t-169 -45.5t-169 45.5zM513.5 101q58.5 36 92.5 101t34 148t-34 148t-92.5 101t-128.5 36t-128.5 -36t-92.5 -101t-34 -148
t34 -148t92.5 -101t128.5 -36t128.5 36zM420 770h-70l-115 140h90z" />
    <glyph glyph-name="Oacute" unicode="&#xd3;" horiz-adv-x="770" 
d="M216 35.5q-77 45.5 -121.5 127.5t-44.5 187t44.5 187t121.5 127.5t169 45.5t169 -45.5t121.5 -127.5t44.5 -187t-44.5 -187t-121.5 -127.5t-169 -45.5t-169 45.5zM513.5 101q58.5 36 92.5 101t34 148t-34 148t-92.5 101t-128.5 36t-128.5 -36t-92.5 -101t-34 -148
t34 -148t92.5 -101t128.5 -36t128.5 36zM419 770h-70l95 140h90z" />
    <glyph glyph-name="Ocircumflex" unicode="&#xd4;" horiz-adv-x="770" 
d="M216 35.5q-77 45.5 -121.5 127.5t-44.5 187t44.5 187t121.5 127.5t169 45.5t169 -45.5t121.5 -127.5t44.5 -187t-44.5 -187t-121.5 -127.5t-169 -45.5t-169 45.5zM513.5 101q58.5 36 92.5 101t34 148t-34 148t-92.5 101t-128.5 36t-128.5 -36t-92.5 -101t-34 -148
t34 -148t92.5 -101t128.5 -36t128.5 36zM310 770h-80l115 135h80l115 -135h-80l-75 90z" />
    <glyph glyph-name="Otilde" unicode="&#xd5;" horiz-adv-x="770" 
d="M216 35.5q-77 45.5 -121.5 127.5t-44.5 187t44.5 187t121.5 127.5t169 45.5t169 -45.5t121.5 -127.5t44.5 -187t-44.5 -187t-121.5 -127.5t-169 -45.5t-169 45.5zM513.5 101q58.5 36 92.5 101t34 148t-34 148t-92.5 101t-128.5 36t-128.5 -36t-92.5 -101t-34 -148
t34 -148t92.5 -101t128.5 -36t128.5 36zM228 790q0 44 29 72t71 28q18 0 33.5 -6.5t34.5 -18.5q29 -20 47 -20q16 0 28 12t12 33h60q0 -44 -29 -72t-71 -28q-18 0 -33.5 6.5t-34.5 18.5q-29 20 -47 20q-16 0 -28 -12t-12 -33h-60z" />
    <glyph glyph-name="Odieresis" unicode="&#xd6;" horiz-adv-x="770" 
d="M216 35.5q-77 45.5 -121.5 127.5t-44.5 187t44.5 187t121.5 127.5t169 45.5t169 -45.5t121.5 -127.5t44.5 -187t-44.5 -187t-121.5 -127.5t-169 -45.5t-169 45.5zM513.5 101q58.5 36 92.5 101t34 148t-34 148t-92.5 101t-128.5 36t-128.5 -36t-92.5 -101t-34 -148
t34 -148t92.5 -101t128.5 -36t128.5 36zM340 800h-85v85h85v-85zM515 800h-85v85h85v-85z" />
    <glyph glyph-name="multiply" unicode="&#xd7;" horiz-adv-x="530" 
d="M265 245l-140 -140l-50 50l140 140l-140 140l50 50l140 -140l140 140l50 -50l-140 -140l140 -140l-50 -50z" />
    <glyph glyph-name="Oslash" unicode="&#xd8;" horiz-adv-x="770" 
d="M583 645q64 -48 100.5 -124t36.5 -171q0 -105 -44.5 -187t-121.5 -127.5t-169 -45.5q-71 0 -133 27l-27 -52h-85l47 90q-64 48 -100.5 124t-36.5 171q0 105 44.5 187t121.5 127.5t169 45.5q71 0 133 -27l27 52h85zM155 222q25 -58 69 -97l258 490q-46 20 -97 20
q-70 0 -128.5 -36t-92.5 -101t-34 -148q0 -70 25 -128zM513.5 101q58.5 36 92.5 101t34 148q0 70 -25 128t-69 97l-258 -490q46 -20 97 -20q70 0 128.5 36z" />
    <glyph glyph-name="Ugrave" unicode="&#xd9;" horiz-adv-x="690" 
d="M205 26q-63 36 -99 101t-36 148v425h80v-425q0 -61 25.5 -109t70 -74.5t99.5 -26.5t99.5 26.5t70 74.5t25.5 109v425h80v-425q0 -83 -36 -148t-99 -101t-140 -36t-140 36zM380 770h-70l-115 140h90z" />
    <glyph glyph-name="Uacute" unicode="&#xda;" horiz-adv-x="690" 
d="M205 26q-63 36 -99 101t-36 148v425h80v-425q0 -61 25.5 -109t70 -74.5t99.5 -26.5t99.5 26.5t70 74.5t25.5 109v425h80v-425q0 -83 -36 -148t-99 -101t-140 -36t-140 36zM379 770h-70l95 140h90z" />
    <glyph glyph-name="Ucircumflex" unicode="&#xdb;" horiz-adv-x="690" 
d="M205 26q-63 36 -99 101t-36 148v425h80v-425q0 -61 25.5 -109t70 -74.5t99.5 -26.5t99.5 26.5t70 74.5t25.5 109v425h80v-425q0 -83 -36 -148t-99 -101t-140 -36t-140 36zM270 770h-80l115 135h80l115 -135h-80l-75 90z" />
    <glyph glyph-name="Udieresis" unicode="&#xdc;" horiz-adv-x="690" 
d="M205 26q-63 36 -99 101t-36 148v425h80v-425q0 -61 25.5 -109t70 -74.5t99.5 -26.5t99.5 26.5t70 74.5t25.5 109v425h80v-425q0 -83 -36 -148t-99 -101t-140 -36t-140 36zM300 800h-85v85h85v-85zM475 800h-85v85h85v-85z" />
    <glyph glyph-name="Yacute" unicode="&#xdd;" horiz-adv-x="590" 
d="M335 0h-80v265l-255 435h85l200 -345h20l200 345h85l-255 -435v-265zM329 770h-70l95 140h90z" />
    <glyph glyph-name="Thorn" unicode="&#xde;" horiz-adv-x="695" 
d="M80 0v700h80v-150h290q57 0 102.5 -26t71.5 -71.5t26 -102.5t-26 -102.5t-71.5 -71.5t-102.5 -26h-290v-150h-80zM450 225q53 0 86.5 34.5t33.5 90.5t-33.5 90.5t-86.5 34.5h-290v-250h290z" />
    <glyph glyph-name="germandbls" unicode="&#xdf;" horiz-adv-x="550" 
d="M70 515q0 57 25 101.5t71.5 69t108.5 24.5q63 0 111 -25.5t73.5 -70t25.5 -99.5q0 -60 -29.5 -101t-65.5 -54v-5q46 -13 83 -55.5t37 -104.5q0 -55 -27.5 -99.5t-79.5 -70t-123 -25.5h-35v70h35q73 0 114 35.5t41 89.5t-41 89.5t-114 35.5h-35v70h35q59 0 94.5 35.5
t35.5 89.5q0 53 -38 89t-97 36q-56 0 -93 -36t-37 -89v-515h-75v515z" />
    <glyph glyph-name="agrave" unicode="&#xe0;" horiz-adv-x="530" 
d="M98.5 33.5q-48.5 43.5 -48.5 111.5q0 75 49.5 117.5t150.5 42.5h135v15q0 56 -32 88t-88 32q-54 0 -87.5 -24.5t-37.5 -60.5h-75q3 41 27 76.5t68.5 57t104.5 21.5q91 0 143 -50.5t52 -139.5v-320h-65l-10 60h-5q-17 -27 -58.5 -48.5t-96.5 -21.5q-78 0 -126.5 43.5z
M342.5 101.5q42.5 41.5 42.5 113.5v20h-135q-64 0 -94.5 -25t-30.5 -65q0 -38 26 -61.5t74 -23.5q75 0 117.5 41.5zM305 580h-70l-115 140h90z" />
    <glyph glyph-name="aacute" unicode="&#xe1;" horiz-adv-x="530" 
d="M98.5 33.5q-48.5 43.5 -48.5 111.5q0 75 49.5 117.5t150.5 42.5h135v15q0 56 -32 88t-88 32q-54 0 -87.5 -24.5t-37.5 -60.5h-75q3 41 27 76.5t68.5 57t104.5 21.5q91 0 143 -50.5t52 -139.5v-320h-65l-10 60h-5q-17 -27 -58.5 -48.5t-96.5 -21.5q-78 0 -126.5 43.5z
M342.5 101.5q42.5 41.5 42.5 113.5v20h-135q-64 0 -94.5 -25t-30.5 -65q0 -38 26 -61.5t74 -23.5q75 0 117.5 41.5zM300 580h-70l95 140h90z" />
    <glyph glyph-name="acircumflex" unicode="&#xe2;" horiz-adv-x="530" 
d="M98.5 33.5q-48.5 43.5 -48.5 111.5q0 75 49.5 117.5t150.5 42.5h135v15q0 56 -32 88t-88 32q-54 0 -87.5 -24.5t-37.5 -60.5h-75q3 41 27 76.5t68.5 57t104.5 21.5q91 0 143 -50.5t52 -139.5v-320h-65l-10 60h-5q-17 -27 -58.5 -48.5t-96.5 -21.5q-78 0 -126.5 43.5z
M342.5 101.5q42.5 41.5 42.5 113.5v20h-135q-64 0 -94.5 -25t-30.5 -65q0 -38 26 -61.5t74 -23.5q75 0 117.5 41.5zM190 580h-80l115 135h80l115 -135h-80l-75 90z" />
    <glyph glyph-name="atilde" unicode="&#xe3;" horiz-adv-x="530" 
d="M98.5 33.5q-48.5 43.5 -48.5 111.5q0 75 49.5 117.5t150.5 42.5h135v15q0 56 -32 88t-88 32q-54 0 -87.5 -24.5t-37.5 -60.5h-75q3 41 27 76.5t68.5 57t104.5 21.5q91 0 143 -50.5t52 -139.5v-320h-65l-10 60h-5q-17 -27 -58.5 -48.5t-96.5 -21.5q-78 0 -126.5 43.5z
M342.5 101.5q42.5 41.5 42.5 113.5v20h-135q-64 0 -94.5 -25t-30.5 -65q0 -38 26 -61.5t74 -23.5q75 0 117.5 41.5zM108 600q0 44 29 72t71 28q18 0 33.5 -6.5t34.5 -18.5q29 -20 47 -20q16 0 28 12t12 33h60q0 -44 -29 -72t-71 -28q-18 0 -33.5 6.5t-34.5 18.5
q-29 20 -47 20q-16 0 -28 -12t-12 -33h-60z" />
    <glyph glyph-name="adieresis" unicode="&#xe4;" horiz-adv-x="530" 
d="M98.5 33.5q-48.5 43.5 -48.5 111.5q0 75 49.5 117.5t150.5 42.5h135v15q0 56 -32 88t-88 32q-54 0 -87.5 -24.5t-37.5 -60.5h-75q3 41 27 76.5t68.5 57t104.5 21.5q91 0 143 -50.5t52 -139.5v-320h-65l-10 60h-5q-17 -27 -58.5 -48.5t-96.5 -21.5q-78 0 -126.5 43.5z
M342.5 101.5q42.5 41.5 42.5 113.5v20h-135q-64 0 -94.5 -25t-30.5 -65q0 -38 26 -61.5t74 -23.5q75 0 117.5 41.5zM220 605h-85v85h85v-85zM395 605h-85v85h85v-85z" />
    <glyph glyph-name="aring" unicode="&#xe5;" horiz-adv-x="530" 
d="M98.5 33.5q-48.5 43.5 -48.5 111.5q0 75 49.5 117.5t150.5 42.5h135v15q0 56 -32 88t-88 32q-54 0 -87.5 -24.5t-37.5 -60.5h-75q3 41 27 76.5t68.5 57t104.5 21.5q91 0 143 -50.5t52 -139.5v-320h-65l-10 60h-5q-17 -27 -58.5 -48.5t-96.5 -21.5q-78 0 -126.5 43.5z
M342.5 101.5q42.5 41.5 42.5 113.5v20h-135q-64 0 -94.5 -25t-30.5 -65q0 -38 26 -61.5t74 -23.5q75 0 117.5 41.5zM201 596.5q-26 26.5 -26 63.5q0 38 26 64t64 26q37 0 63.5 -26t26.5 -64q0 -37 -26.5 -63.5t-63.5 -26.5q-38 0 -64 26.5zM293 631q12 11 12 29t-12 29
t-28 11t-28 -11t-12 -29t12 -29t28 -11t28 11z" />
    <glyph glyph-name="ae" unicode="&#xe6;" horiz-adv-x="885" 
d="M840 220h-380q8 -71 52 -115.5t108 -44.5q44 0 77.5 21t52.5 59h80q-27 -73 -80 -111.5t-130 -38.5q-59 0 -114 31t-81 79q-25 -48 -81 -79t-119 -31q-51 0 -91 19.5t-62 54t-22 76.5q0 71 49.5 113t150.5 42h135v25q0 56 -32 88t-88 32q-54 0 -87.5 -24.5t-37.5 -60.5
h-75q3 41 27 76.5t68.5 57t104.5 21.5q61 0 105.5 -29t64.5 -76q28 48 74.5 76.5t110.5 28.5q65 0 116 -30t80 -84.5t29 -125.5q0 -30 -5 -50zM770 290q-4 69 -46 109.5t-104 40.5q-65 0 -109 -40t-51 -110h310zM342.5 101.5q42.5 41.5 42.5 113.5v10h-135q-62 0 -93.5 -23
t-31.5 -62q0 -35 26.5 -57.5t73.5 -22.5q75 0 117.5 41.5z" />
    <glyph glyph-name="ccedilla" unicode="&#xe7;" horiz-adv-x="535" 
d="M372 87q38 27 53 78h75q-17 -75 -68.5 -120.5t-125.5 -53.5l-16 -36q29 -4 49.5 -26t20.5 -49q0 -35 -25.5 -57.5t-69.5 -22.5h-50v50h40q22 0 33.5 9.5t11.5 25.5t-11.5 25.5t-33.5 9.5h-25v35l17 37q-59 8 -106.5 42.5t-74 90t-26.5 125.5q0 76 31.5 135t86.5 92
t122 33q83 0 142 -45.5t78 -124.5h-75q-15 48 -53.5 74t-91.5 26q-45 0 -83 -23.5t-60 -67t-22 -99.5t22 -99.5t60 -67t83 -23.5q54 0 92 27z" />
    <glyph glyph-name="egrave" unicode="&#xe8;" horiz-adv-x="550" 
d="M158 23q-55 33 -86.5 92t-31.5 135t31.5 135t86.5 92t122 33q64 0 117 -31t83 -85.5t30 -123.5q0 -40 -5 -55h-390q7 -70 54 -112.5t111 -42.5q45 0 80.5 21t54.5 59h80q-26 -72 -81.5 -111t-133.5 -39q-67 0 -122 33zM435 285q-4 68 -47.5 111.5t-107.5 43.5
q-67 0 -112 -43.5t-53 -111.5h320zM315 580h-70l-115 140h90z" />
    <glyph glyph-name="eacute" unicode="&#xe9;" horiz-adv-x="550" 
d="M158 23q-55 33 -86.5 92t-31.5 135t31.5 135t86.5 92t122 33q64 0 117 -31t83 -85.5t30 -123.5q0 -40 -5 -55h-390q7 -70 54 -112.5t111 -42.5q45 0 80.5 21t54.5 59h80q-26 -72 -81.5 -111t-133.5 -39q-67 0 -122 33zM435 285q-4 68 -47.5 111.5t-107.5 43.5
q-67 0 -112 -43.5t-53 -111.5h320zM310 580h-70l95 140h90z" />
    <glyph glyph-name="ecircumflex" unicode="&#xea;" horiz-adv-x="550" 
d="M158 23q-55 33 -86.5 92t-31.5 135t31.5 135t86.5 92t122 33q64 0 117 -31t83 -85.5t30 -123.5q0 -40 -5 -55h-390q7 -70 54 -112.5t111 -42.5q45 0 80.5 21t54.5 59h80q-26 -72 -81.5 -111t-133.5 -39q-67 0 -122 33zM435 285q-4 68 -47.5 111.5t-107.5 43.5
q-67 0 -112 -43.5t-53 -111.5h320zM200 580h-80l115 135h80l115 -135h-80l-75 90z" />
    <glyph glyph-name="edieresis" unicode="&#xeb;" horiz-adv-x="550" 
d="M158 23q-55 33 -86.5 92t-31.5 135t31.5 135t86.5 92t122 33q64 0 117 -31t83 -85.5t30 -123.5q0 -40 -5 -55h-390q7 -70 54 -112.5t111 -42.5q45 0 80.5 21t54.5 59h80q-26 -72 -81.5 -111t-133.5 -39q-67 0 -122 33zM435 285q-4 68 -47.5 111.5t-107.5 43.5
q-67 0 -112 -43.5t-53 -111.5h320zM230 605h-85v85h85v-85zM405 605h-85v85h85v-85z" />
    <glyph glyph-name="igrave" unicode="&#xec;" horiz-adv-x="215" 
d="M145 0h-75v500h75v-500zM148 580h-70l-115 140h90z" />
    <glyph glyph-name="iacute" unicode="&#xed;" horiz-adv-x="215" 
d="M145 0h-75v500h75v-500zM143 580h-70l95 140h90z" />
    <glyph glyph-name="icircumflex" unicode="&#xee;" horiz-adv-x="215" 
d="M145 0h-75v500h75v-500zM33 580h-80l115 135h80l115 -135h-80l-75 90z" />
    <glyph glyph-name="idieresis" unicode="&#xef;" horiz-adv-x="215" 
d="M145 0h-75v500h75v-500zM73 605h-85v85h85v-85zM228 605h-85v85h85v-85z" />
    <glyph glyph-name="eth" unicode="&#xf0;" horiz-adv-x="545" 
d="M152.5 19.5q-52.5 29.5 -82.5 83t-30 122.5t30 122.5t82.5 83t117.5 29.5q73 0 125 -45h5q-29 74 -105 150l-125 -65l-30 55l105 55q-50 41 -110 75l60 35q24 -14 55.5 -37t54.5 -43l115 60l30 -55l-100 -50q150 -159 150 -350q0 -78 -30 -136t-82.5 -88.5t-117.5 -30.5
t-117.5 29.5zM381.5 105.5q43.5 45.5 43.5 119.5t-43.5 119.5t-111.5 45.5t-111.5 -45.5t-43.5 -119.5t43.5 -119.5t111.5 -45.5t111.5 45.5z" />
    <glyph glyph-name="ntilde" unicode="&#xf1;" horiz-adv-x="570" 
d="M70 0v500h65l10 -55h5q20 25 60 45t90 20q57 0 102.5 -26.5t71.5 -74.5t26 -109v-300h-75v300q0 39 -18 71t-49 50.5t-68 18.5q-39 0 -72.5 -19.5t-53 -51.5t-19.5 -69v-300h-75zM138 600q0 44 29 72t71 28q18 0 33.5 -6.5t34.5 -18.5q29 -20 47 -20q16 0 28 12t12 33h60
q0 -44 -29 -72t-71 -28q-18 0 -33.5 6.5t-34.5 18.5q-29 20 -47 20q-16 0 -28 -12t-12 -33h-60z" />
    <glyph glyph-name="ograve" unicode="&#xf2;" 
d="M158 23q-55 33 -86.5 92t-31.5 135t31.5 135t86.5 92t122 33t122 -33t86.5 -92t31.5 -135t-31.5 -135t-86.5 -92t-122 -33t-122 33zM363 83.5q38 23.5 60 67t22 99.5t-22 99.5t-60 67t-83 23.5t-83 -23.5t-60 -67t-22 -99.5t22 -99.5t60 -67t83 -23.5t83 23.5zM320 580
h-70l-115 140h90z" />
    <glyph glyph-name="oacute" unicode="&#xf3;" 
d="M158 23q-55 33 -86.5 92t-31.5 135t31.5 135t86.5 92t122 33t122 -33t86.5 -92t31.5 -135t-31.5 -135t-86.5 -92t-122 -33t-122 33zM363 83.5q38 23.5 60 67t22 99.5t-22 99.5t-60 67t-83 23.5t-83 -23.5t-60 -67t-22 -99.5t22 -99.5t60 -67t83 -23.5t83 23.5zM315 580
h-70l95 140h90z" />
    <glyph glyph-name="ocircumflex" unicode="&#xf4;" 
d="M158 23q-55 33 -86.5 92t-31.5 135t31.5 135t86.5 92t122 33t122 -33t86.5 -92t31.5 -135t-31.5 -135t-86.5 -92t-122 -33t-122 33zM363 83.5q38 23.5 60 67t22 99.5t-22 99.5t-60 67t-83 23.5t-83 -23.5t-60 -67t-22 -99.5t22 -99.5t60 -67t83 -23.5t83 23.5zM205 580
h-80l115 135h80l115 -135h-80l-75 90z" />
    <glyph glyph-name="otilde" unicode="&#xf5;" 
d="M158 23q-55 33 -86.5 92t-31.5 135t31.5 135t86.5 92t122 33t122 -33t86.5 -92t31.5 -135t-31.5 -135t-86.5 -92t-122 -33t-122 33zM363 83.5q38 23.5 60 67t22 99.5t-22 99.5t-60 67t-83 23.5t-83 -23.5t-60 -67t-22 -99.5t22 -99.5t60 -67t83 -23.5t83 23.5zM123 600
q0 44 29 72t71 28q18 0 33.5 -6.5t34.5 -18.5q29 -20 47 -20q16 0 28 12t12 33h60q0 -44 -29 -72t-71 -28q-18 0 -33.5 6.5t-34.5 18.5q-29 20 -47 20q-16 0 -28 -12t-12 -33h-60z" />
    <glyph glyph-name="odieresis" unicode="&#xf6;" 
d="M158 23q-55 33 -86.5 92t-31.5 135t31.5 135t86.5 92t122 33t122 -33t86.5 -92t31.5 -135t-31.5 -135t-86.5 -92t-122 -33t-122 33zM363 83.5q38 23.5 60 67t22 99.5t-22 99.5t-60 67t-83 23.5t-83 -23.5t-60 -67t-22 -99.5t22 -99.5t60 -67t83 -23.5t83 23.5zM235 605
h-85v85h85v-85zM410 605h-85v85h85v-85z" />
    <glyph glyph-name="divide" unicode="&#xf7;" horiz-adv-x="530" 
d="M233 418q-13 13 -13 32t13 32t32 13t32 -13t13 -32t-13 -32t-32 -13t-32 13zM465 255h-400v70h400v-70zM233 98q-13 13 -13 32t13 32t32 13t32 -13t13 -32t-13 -32t-32 -13t-32 13z" />
    <glyph glyph-name="oslash" unicode="&#xf8;" 
d="M429 458q43 -34 67 -88t24 -120q0 -76 -31.5 -135t-86.5 -92t-122 -33q-50 0 -92 18l-23 -43h-75l41 77q-43 34 -67 88t-24 120q0 76 31.5 135t86.5 92t122 33q50 0 92 -18l23 43h75zM128.5 170.5q13.5 -36.5 38.5 -61.5l171 320q-28 11 -58 11q-45 0 -83 -23.5t-60 -67
t-22 -99.5q0 -43 13.5 -79.5zM363 83.5q38 23.5 60 67t22 99.5q0 43 -13.5 79.5t-38.5 61.5l-171 -320q28 -11 58 -11q45 0 83 23.5z" />
    <glyph glyph-name="ugrave" unicode="&#xf9;" horiz-adv-x="570" 
d="M167.5 16.5q-45.5 26.5 -71.5 74.5t-26 109v300h75v-300q0 -39 18 -71t49 -50.5t68 -18.5q39 0 72.5 19.5t53 51.5t19.5 69v300h75v-500h-65l-10 55h-5q-21 -26 -60.5 -45.5t-89.5 -19.5q-57 0 -102.5 26.5zM325 580h-70l-115 140h90z" />
    <glyph glyph-name="uacute" unicode="&#xfa;" horiz-adv-x="570" 
d="M167.5 16.5q-45.5 26.5 -71.5 74.5t-26 109v300h75v-300q0 -39 18 -71t49 -50.5t68 -18.5q39 0 72.5 19.5t53 51.5t19.5 69v300h75v-500h-65l-10 55h-5q-21 -26 -60.5 -45.5t-89.5 -19.5q-57 0 -102.5 26.5zM320 580h-70l95 140h90z" />
    <glyph glyph-name="ucircumflex" unicode="&#xfb;" horiz-adv-x="570" 
d="M167.5 16.5q-45.5 26.5 -71.5 74.5t-26 109v300h75v-300q0 -39 18 -71t49 -50.5t68 -18.5q39 0 72.5 19.5t53 51.5t19.5 69v300h75v-500h-65l-10 55h-5q-21 -26 -60.5 -45.5t-89.5 -19.5q-57 0 -102.5 26.5zM210 580h-80l115 135h80l115 -135h-80l-75 90z" />
    <glyph glyph-name="udieresis" unicode="&#xfc;" horiz-adv-x="570" 
d="M167.5 16.5q-45.5 26.5 -71.5 74.5t-26 109v300h75v-300q0 -39 18 -71t49 -50.5t68 -18.5q39 0 72.5 19.5t53 51.5t19.5 69v300h75v-500h-65l-10 55h-5q-21 -26 -60.5 -45.5t-89.5 -19.5q-57 0 -102.5 26.5zM240 605h-85v85h85v-85zM415 605h-85v85h85v-85z" />
    <glyph glyph-name="yacute" unicode="&#xfd;" horiz-adv-x="495" 
d="M405 500h80l-225 -630q-13 -36 -34 -53t-61 -17h-100v70h95q25 0 35 30l20 60l-205 540h80l155 -415h20zM290 580h-70l95 140h90z" />
    <glyph glyph-name="thorn" unicode="&#xfe;" horiz-adv-x="585" 
d="M75 -200v900h75v-270h5q31 39 70 59.5t90 20.5q65 0 117.5 -33t82.5 -92t30 -135t-30 -135t-82.5 -92t-117.5 -33q-51 0 -90 20.5t-70 59.5h-5v-270h-75zM389.5 84q36.5 24 58.5 67t22 99t-22 99t-58.5 67t-79.5 24t-79.5 -24t-58.5 -67t-22 -99t22 -99t58.5 -67
t79.5 -24t79.5 24z" />
    <glyph glyph-name="ydieresis" unicode="&#xff;" horiz-adv-x="495" 
d="M405 500h80l-225 -630q-13 -36 -34 -53t-61 -17h-100v70h95q25 0 35 30l20 60l-205 540h80l155 -415h20zM210 605h-85v85h85v-85zM385 605h-85v85h85v-85z" />
    <glyph glyph-name="Amacron" unicode="&#x100;" horiz-adv-x="650" 
d="M650 0h-85l-67 180h-346l-67 -180h-85l265 700h120zM315 615l-135 -360h290l-135 360h-20zM465 813h-280v60h280v-60z" />
    <glyph glyph-name="amacron" unicode="&#x101;" horiz-adv-x="530" 
d="M98.5 33.5q-48.5 43.5 -48.5 111.5q0 75 49.5 117.5t150.5 42.5h135v15q0 56 -32 88t-88 32q-54 0 -87.5 -24.5t-37.5 -60.5h-75q3 41 27 76.5t68.5 57t104.5 21.5q91 0 143 -50.5t52 -139.5v-320h-65l-10 60h-5q-17 -27 -58.5 -48.5t-96.5 -21.5q-78 0 -126.5 43.5z
M342.5 101.5q42.5 41.5 42.5 113.5v20h-135q-64 0 -94.5 -25t-30.5 -65q0 -38 26 -61.5t74 -23.5q75 0 117.5 41.5zM405 618h-280v60h280v-60z" />
    <glyph glyph-name="Abreve" unicode="&#x102;" horiz-adv-x="650" 
d="M650 0h-85l-67 180h-346l-67 -180h-85l265 700h120zM315 615l-135 -360h290l-135 360h-20zM228.5 814.5q-39.5 34.5 -43.5 90.5h65q4 -33 24 -51.5t51 -18.5t51 18.5t24 51.5h65q-4 -56 -43.5 -90.5t-96.5 -34.5t-96.5 34.5z" />
    <glyph glyph-name="abreve" unicode="&#x103;" horiz-adv-x="530" 
d="M98.5 33.5q-48.5 43.5 -48.5 111.5q0 75 49.5 117.5t150.5 42.5h135v15q0 56 -32 88t-88 32q-54 0 -87.5 -24.5t-37.5 -60.5h-75q3 41 27 76.5t68.5 57t104.5 21.5q91 0 143 -50.5t52 -139.5v-320h-65l-10 60h-5q-17 -27 -58.5 -48.5t-96.5 -21.5q-78 0 -126.5 43.5z
M342.5 101.5q42.5 41.5 42.5 113.5v20h-135q-64 0 -94.5 -25t-30.5 -65q0 -38 26 -61.5t74 -23.5q75 0 117.5 41.5zM168.5 619.5q-39.5 34.5 -43.5 90.5h65q4 -33 24 -51.5t51 -18.5t51 18.5t24 51.5h65q-4 -56 -43.5 -90.5t-96.5 -34.5t-96.5 34.5z" />
    <glyph glyph-name="Aogonek" unicode="&#x104;" horiz-adv-x="650" 
d="M602 -98q12 -12 33 -12h15v-55h-20q-48 0 -74 23.5t-26 61.5q0 28 17 50t38 30h-20l-67 180h-346l-67 -180h-85l265 700h120l265 -700q-30 -15 -45 -33t-15 -37q0 -16 12 -28zM315 615l-135 -360h290l-135 360h-20z" />
    <glyph glyph-name="aogonek" unicode="&#x105;" horiz-adv-x="530" 
d="M460 0q-30 -15 -45 -33t-15 -37q0 -16 12 -28t33 -12h15v-55h-20q-48 0 -74 23.5t-26 61.5q0 28 17 50t38 30l-10 60h-5q-17 -27 -58.5 -48.5t-96.5 -21.5q-78 0 -126.5 43.5t-48.5 111.5q0 75 49.5 117.5t150.5 42.5h135v15q0 56 -32 88t-88 32q-54 0 -87.5 -24.5
t-37.5 -60.5h-75q3 41 27 76.5t68.5 57t104.5 21.5q91 0 143 -50.5t52 -139.5v-320zM385 235h-135q-64 0 -94.5 -25t-30.5 -65q0 -38 26 -61.5t74 -23.5q75 0 117.5 41.5t42.5 113.5v20z" />
    <glyph glyph-name="Cacute" unicode="&#x106;" horiz-adv-x="730" 
d="M216 35.5q-77 45.5 -121.5 127.5t-44.5 187t44.5 187t121.5 127.5t169 45.5q113 0 196.5 -63t113.5 -172h-85q-26 75 -86 117.5t-139 42.5q-70 0 -128.5 -36t-92.5 -101t-34 -148t34 -148t92.5 -101t128.5 -36q79 0 139 43.5t86 121.5h85q-30 -112 -113.5 -176
t-196.5 -64q-92 0 -169 45.5zM410 770h-70l95 140h90z" />
    <glyph glyph-name="cacute" unicode="&#x107;" horiz-adv-x="535" 
d="M158 23q-55 33 -86.5 92t-31.5 135t31.5 135t86.5 92t122 33q83 0 142 -45.5t78 -124.5h-75q-15 48 -53.5 74t-91.5 26q-45 0 -83 -23.5t-60 -67t-22 -99.5t22 -99.5t60 -67t83 -23.5q54 0 92 27t53 78h75q-19 -82 -78 -128.5t-142 -46.5q-67 0 -122 33zM315 580h-70
l95 140h90z" />
    <glyph glyph-name="Ccircumflex" unicode="&#x108;" horiz-adv-x="730" 
d="M216 35.5q-77 45.5 -121.5 127.5t-44.5 187t44.5 187t121.5 127.5t169 45.5q113 0 196.5 -63t113.5 -172h-85q-26 75 -86 117.5t-139 42.5q-70 0 -128.5 -36t-92.5 -101t-34 -148t34 -148t92.5 -101t128.5 -36q79 0 139 43.5t86 121.5h85q-30 -112 -113.5 -176
t-196.5 -64q-92 0 -169 45.5zM301 770h-80l115 135h80l115 -135h-80l-75 90z" />
    <glyph glyph-name="ccircumflex" unicode="&#x109;" horiz-adv-x="535" 
d="M158 23q-55 33 -86.5 92t-31.5 135t31.5 135t86.5 92t122 33q83 0 142 -45.5t78 -124.5h-75q-15 48 -53.5 74t-91.5 26q-45 0 -83 -23.5t-60 -67t-22 -99.5t22 -99.5t60 -67t83 -23.5q54 0 92 27t53 78h75q-19 -82 -78 -128.5t-142 -46.5q-67 0 -122 33zM205 580h-80
l115 135h80l115 -135h-80l-75 90z" />
    <glyph glyph-name="Cdotaccent" unicode="&#x10a;" horiz-adv-x="730" 
d="M216 35.5q-77 45.5 -121.5 127.5t-44.5 187t44.5 187t121.5 127.5t169 45.5q113 0 196.5 -63t113.5 -172h-85q-26 75 -86 117.5t-139 42.5q-70 0 -128.5 -36t-92.5 -101t-34 -148t34 -148t92.5 -101t128.5 -36q79 0 139 43.5t86 121.5h85q-30 -112 -113.5 -176
t-196.5 -64q-92 0 -169 45.5zM419 800h-85v85h85v-85z" />
    <glyph glyph-name="cdotaccent" unicode="&#x10b;" horiz-adv-x="535" 
d="M158 23q-55 33 -86.5 92t-31.5 135t31.5 135t86.5 92t122 33q83 0 142 -45.5t78 -124.5h-75q-15 48 -53.5 74t-91.5 26q-45 0 -83 -23.5t-60 -67t-22 -99.5t22 -99.5t60 -67t83 -23.5q54 0 92 27t53 78h75q-19 -82 -78 -128.5t-142 -46.5q-67 0 -122 33zM323 605h-85v85
h85v-85z" />
    <glyph glyph-name="Ccaron" unicode="&#x10c;" horiz-adv-x="730" 
d="M216 35.5q-77 45.5 -121.5 127.5t-44.5 187t44.5 187t121.5 127.5t169 45.5q113 0 196.5 -63t113.5 -172h-85q-26 75 -86 117.5t-139 42.5q-70 0 -128.5 -36t-92.5 -101t-34 -148t34 -148t92.5 -101t128.5 -36q79 0 139 43.5t86 121.5h85q-30 -112 -113.5 -176
t-196.5 -64q-92 0 -169 45.5zM416 770h-80l-115 135h80l75 -90l75 90h80z" />
    <glyph glyph-name="ccaron" unicode="&#x10d;" horiz-adv-x="535" 
d="M158 23q-55 33 -86.5 92t-31.5 135t31.5 135t86.5 92t122 33q83 0 142 -45.5t78 -124.5h-75q-15 48 -53.5 74t-91.5 26q-45 0 -83 -23.5t-60 -67t-22 -99.5t22 -99.5t60 -67t83 -23.5q54 0 92 27t53 78h75q-19 -82 -78 -128.5t-142 -46.5q-67 0 -122 33zM320 580h-80
l-115 135h80l75 -90l75 90h80z" />
    <glyph glyph-name="Dcaron" unicode="&#x10e;" horiz-adv-x="700" 
d="M80 0v700h235q96 0 172.5 -44.5t119.5 -124.5t43 -181t-43 -181t-119.5 -124.5t-172.5 -44.5h-235zM315 75q72 0 130 34.5t91.5 97t33.5 143.5t-33.5 143.5t-91.5 97t-130 34.5h-155v-550h155zM385 770h-80l-115 135h80l75 -90l75 90h80z" />
    <glyph glyph-name="dcaron" unicode="&#x10f;" horiz-adv-x="585" 
d="M152.5 23q-52.5 33 -82.5 92t-30 135t30 135t82.5 92t117.5 33q51 0 90 -20.5t70 -59.5h5v270h75v-700h-65l-10 70h-5q-31 -39 -70 -59.5t-90 -20.5q-65 0 -117.5 33zM354.5 84q36.5 24 58.5 67t22 99t-22 99t-58.5 67t-79.5 24t-79.5 -24t-58.5 -67t-22 -99t22 -99
t58.5 -67t79.5 -24t79.5 24zM635 540h-60l18 160h85z" />
    <glyph glyph-name="Dcroat" unicode="&#x110;" horiz-adv-x="740" 
d="M355 700q96 0 172.5 -44.5t119.5 -124.5t43 -181t-43 -181t-119.5 -124.5t-172.5 -44.5h-235v315h-95v75h95v310h235zM355 75q72 0 130 34.5t91.5 97t33.5 143.5t-33.5 143.5t-91.5 97t-130 34.5h-155v-235h185v-75h-185v-240h155z" />
    <glyph glyph-name="dcroat" unicode="&#x111;" horiz-adv-x="585" 
d="M151.5 19.5q-51.5 29.5 -81.5 83.5t-30 122t30 122t81.5 83.5t113.5 29.5q51 0 87.5 -17.5t67.5 -52.5h5v160h-160v70h160v80h75v-80h85v-70h-85v-550h-65l-10 60h-5q-31 -35 -67.5 -52.5t-87.5 -17.5q-62 0 -113.5 29.5zM381.5 105.5q43.5 45.5 43.5 119.5t-43.5 119.5
t-111.5 45.5t-111.5 -45.5t-43.5 -119.5t43.5 -119.5t111.5 -45.5t111.5 45.5z" />
    <glyph glyph-name="Emacron" unicode="&#x112;" horiz-adv-x="585" 
d="M530 0h-450v700h450v-75h-370v-235h350v-75h-350v-240h370v-75zM450 813h-280v60h280v-60z" />
    <glyph glyph-name="emacron" unicode="&#x113;" horiz-adv-x="550" 
d="M158 23q-55 33 -86.5 92t-31.5 135t31.5 135t86.5 92t122 33q64 0 117 -31t83 -85.5t30 -123.5q0 -40 -5 -55h-390q7 -70 54 -112.5t111 -42.5q45 0 80.5 21t54.5 59h80q-26 -72 -81.5 -111t-133.5 -39q-67 0 -122 33zM435 285q-4 68 -47.5 111.5t-107.5 43.5
q-67 0 -112 -43.5t-53 -111.5h320zM415 618h-280v60h280v-60z" />
    <glyph glyph-name="Ebreve" unicode="&#x114;" horiz-adv-x="585" 
d="M530 0h-450v700h450v-75h-370v-235h350v-75h-350v-240h370v-75zM213.5 814.5q-39.5 34.5 -43.5 90.5h65q4 -33 24 -51.5t51 -18.5t51 18.5t24 51.5h65q-4 -56 -43.5 -90.5t-96.5 -34.5t-96.5 34.5z" />
    <glyph glyph-name="ebreve" unicode="&#x115;" horiz-adv-x="550" 
d="M158 23q-55 33 -86.5 92t-31.5 135t31.5 135t86.5 92t122 33q64 0 117 -31t83 -85.5t30 -123.5q0 -40 -5 -55h-390q7 -70 54 -112.5t111 -42.5q45 0 80.5 21t54.5 59h80q-26 -72 -81.5 -111t-133.5 -39q-67 0 -122 33zM435 285q-4 68 -47.5 111.5t-107.5 43.5
q-67 0 -112 -43.5t-53 -111.5h320zM178.5 619.5q-39.5 34.5 -43.5 90.5h65q4 -33 24 -51.5t51 -18.5t51 18.5t24 51.5h65q-4 -56 -43.5 -90.5t-96.5 -34.5t-96.5 34.5z" />
    <glyph glyph-name="Edotaccent" unicode="&#x116;" horiz-adv-x="585" 
d="M530 0h-450v700h450v-75h-370v-235h350v-75h-350v-240h370v-75zM353 800h-85v85h85v-85z" />
    <glyph glyph-name="edotaccent" unicode="&#x117;" horiz-adv-x="550" 
d="M158 23q-55 33 -86.5 92t-31.5 135t31.5 135t86.5 92t122 33q64 0 117 -31t83 -85.5t30 -123.5q0 -40 -5 -55h-390q7 -70 54 -112.5t111 -42.5q45 0 80.5 21t54.5 59h80q-26 -72 -81.5 -111t-133.5 -39q-67 0 -122 33zM435 285q-4 68 -47.5 111.5t-107.5 43.5
q-67 0 -112 -43.5t-53 -111.5h320zM318 605h-85v85h85v-85z" />
    <glyph glyph-name="Eogonek" unicode="&#x118;" horiz-adv-x="585" 
d="M530 625h-370v-235h350v-75h-350v-240h370v-75q-30 -15 -45 -33t-15 -37q0 -16 12 -28t33 -12h15v-55h-20q-48 0 -74 23.5t-26 61.5q0 28 17 50t38 30h-385v700h450v-75z" />
    <glyph glyph-name="eogonek" unicode="&#x119;" horiz-adv-x="550" 
d="M505 215h-390q7 -70 54 -112.5t111 -42.5q45 0 80.5 21t54.5 59h80q-23 -61 -71 -105q-41 -36 -57.5 -57t-16.5 -48q0 -16 12 -28t33 -12h15v-55h-20q-48 0 -74 23.5t-26 61.5q0 22 9.5 41t24.5 33q-19 -4 -44 -4q-67 0 -122 33t-86.5 92t-31.5 135t31.5 135t86.5 92
t122 33q64 0 117 -31t83 -85.5t30 -123.5q0 -40 -5 -55zM435 285q-4 68 -47.5 111.5t-107.5 43.5q-67 0 -112 -43.5t-53 -111.5h320z" />
    <glyph glyph-name="Ecaron" unicode="&#x11a;" horiz-adv-x="585" 
d="M530 0h-450v700h450v-75h-370v-235h350v-75h-350v-240h370v-75zM350 770h-80l-115 135h80l75 -90l75 90h80z" />
    <glyph glyph-name="ecaron" unicode="&#x11b;" horiz-adv-x="550" 
d="M158 23q-55 33 -86.5 92t-31.5 135t31.5 135t86.5 92t122 33q64 0 117 -31t83 -85.5t30 -123.5q0 -40 -5 -55h-390q7 -70 54 -112.5t111 -42.5q45 0 80.5 21t54.5 59h80q-26 -72 -81.5 -111t-133.5 -39q-67 0 -122 33zM435 285q-4 68 -47.5 111.5t-107.5 43.5
q-67 0 -112 -43.5t-53 -111.5h320zM315 580h-80l-115 135h80l75 -90l75 90h80z" />
    <glyph glyph-name="Gcircumflex" unicode="&#x11c;" horiz-adv-x="770" 
d="M410 360h290v-360h-65l-10 100h-5q-33 -42 -96.5 -76t-138.5 -34q-92 0 -169 45.5t-121.5 127.5t-44.5 187t44.5 187t121.5 127.5t169 45.5q106 0 191.5 -60t118.5 -160h-85q-30 67 -91.5 106t-133.5 39q-70 0 -128.5 -36t-92.5 -101t-34 -148t34 -148t92.5 -101
t128.5 -36q61 0 115.5 30.5t87 80.5t32.5 104v10h-210v70zM307 770h-80l115 135h80l115 -135h-80l-75 90z" />
    <glyph glyph-name="gcircumflex" unicode="&#x11d;" horiz-adv-x="580" 
d="M168 -186q-50 24 -77.5 63t-30.5 83h75q4 -41 43.5 -70.5t106.5 -29.5q68 0 109 38t41 102v90h-5q-30 -34 -71 -52t-89 -18q-65 0 -117.5 31t-82.5 87t-30 127t30 127t82.5 87t117.5 31q48 0 90.5 -20.5t69.5 -54.5h5l10 65h65v-500q0 -62 -27 -109.5t-78 -74t-120 -26.5
q-67 0 -117 24zM356.5 112q36.5 22 57.5 62t21 91t-21 91t-57.5 62t-81.5 22t-81.5 -22t-57.5 -62t-21 -91t21 -91t57.5 -62t81.5 -22t81.5 22zM215 580h-80l115 135h80l115 -135h-80l-75 90z" />
    <glyph glyph-name="Gbreve" unicode="&#x11e;" horiz-adv-x="770" 
d="M410 360h290v-360h-65l-10 100h-5q-33 -42 -96.5 -76t-138.5 -34q-92 0 -169 45.5t-121.5 127.5t-44.5 187t44.5 187t121.5 127.5t169 45.5q106 0 191.5 -60t118.5 -160h-85q-30 67 -91.5 106t-133.5 39q-70 0 -128.5 -36t-92.5 -101t-34 -148t34 -148t92.5 -101
t128.5 -36q61 0 115.5 30.5t87 80.5t32.5 104v10h-210v70zM285.5 814.5q-39.5 34.5 -43.5 90.5h65q4 -33 24 -51.5t51 -18.5t51 18.5t24 51.5h65q-4 -56 -43.5 -90.5t-96.5 -34.5t-96.5 34.5z" />
    <glyph glyph-name="gbreve" unicode="&#x11f;" horiz-adv-x="580" 
d="M168 -186q-50 24 -77.5 63t-30.5 83h75q4 -41 43.5 -70.5t106.5 -29.5q68 0 109 38t41 102v90h-5q-30 -34 -71 -52t-89 -18q-65 0 -117.5 31t-82.5 87t-30 127t30 127t82.5 87t117.5 31q48 0 90.5 -20.5t69.5 -54.5h5l10 65h65v-500q0 -62 -27 -109.5t-78 -74t-120 -26.5
q-67 0 -117 24zM356.5 112q36.5 22 57.5 62t21 91t-21 91t-57.5 62t-81.5 22t-81.5 -22t-57.5 -62t-21 -91t21 -91t57.5 -62t81.5 -22t81.5 22zM193.5 619.5q-39.5 34.5 -43.5 90.5h65q4 -33 24 -51.5t51 -18.5t51 18.5t24 51.5h65q-4 -56 -43.5 -90.5t-96.5 -34.5
t-96.5 34.5z" />
    <glyph glyph-name="Gdotaccent" unicode="&#x120;" horiz-adv-x="770" 
d="M410 360h290v-360h-65l-10 100h-5q-33 -42 -96.5 -76t-138.5 -34q-92 0 -169 45.5t-121.5 127.5t-44.5 187t44.5 187t121.5 127.5t169 45.5q106 0 191.5 -60t118.5 -160h-85q-30 67 -91.5 106t-133.5 39q-70 0 -128.5 -36t-92.5 -101t-34 -148t34 -148t92.5 -101
t128.5 -36q61 0 115.5 30.5t87 80.5t32.5 104v10h-210v70zM425 800h-85v85h85v-85z" />
    <glyph glyph-name="gdotaccent" unicode="&#x121;" horiz-adv-x="580" 
d="M168 -186q-50 24 -77.5 63t-30.5 83h75q4 -41 43.5 -70.5t106.5 -29.5q68 0 109 38t41 102v90h-5q-30 -34 -71 -52t-89 -18q-65 0 -117.5 31t-82.5 87t-30 127t30 127t82.5 87t117.5 31q48 0 90.5 -20.5t69.5 -54.5h5l10 65h65v-500q0 -62 -27 -109.5t-78 -74t-120 -26.5
q-67 0 -117 24zM356.5 112q36.5 22 57.5 62t21 91t-21 91t-57.5 62t-81.5 22t-81.5 -22t-57.5 -62t-21 -91t21 -91t57.5 -62t81.5 -22t81.5 22zM333 605h-85v85h85v-85z" />
    <glyph glyph-name="uni0122" unicode="&#x122;" horiz-adv-x="770" 
d="M410 360h290v-360h-65l-10 100h-5q-33 -42 -96.5 -76t-138.5 -34q-92 0 -169 45.5t-121.5 127.5t-44.5 187t44.5 187t121.5 127.5t169 45.5q106 0 191.5 -60t118.5 -160h-85q-30 67 -91.5 106t-133.5 39q-70 0 -128.5 -36t-92.5 -101t-34 -148t34 -148t92.5 -101
t128.5 -36q61 0 115.5 30.5t87 80.5t32.5 104v10h-210v70zM375 -245h-60l30 160h85z" />
    <glyph glyph-name="uni0123" unicode="&#x123;" horiz-adv-x="580" 
d="M168 -186q-50 24 -77.5 63t-30.5 83h75q4 -41 43.5 -70.5t106.5 -29.5q68 0 109 38t41 102v90h-5q-30 -34 -71 -52t-89 -18q-65 0 -117.5 31t-82.5 87t-30 127t30 127t82.5 87t117.5 31q48 0 90.5 -20.5t69.5 -54.5h5l10 65h65v-500q0 -62 -27 -109.5t-78 -74t-120 -26.5
q-67 0 -117 24zM356.5 112q36.5 22 57.5 62t21 91t-21 91t-57.5 62t-81.5 22t-81.5 -22t-57.5 -62t-21 -91t21 -91t57.5 -62t81.5 -22t81.5 22zM325 580h-85l64 170h65z" />
    <glyph glyph-name="Hcircumflex" unicode="&#x124;" horiz-adv-x="710" 
d="M160 0h-80v700h80v-310h390v310h80v-700h-80v315h-390v-315zM280 770h-80l115 135h80l115 -135h-80l-75 90z" />
    <glyph glyph-name="hcircumflex" unicode="&#x125;" horiz-adv-x="575" 
d="M75 0v700h75v-255h5q20 25 60 45t90 20q57 0 102.5 -26.5t71.5 -74.5t26 -109v-300h-75v300q0 39 -18 71t-49 50.5t-68 18.5q-39 0 -72.5 -19.5t-53 -51.5t-19.5 -69v-300h-75zM225 770h-80l115 135h80l115 -135h-80l-75 90z" />
    <glyph glyph-name="Hbar" unicode="&#x126;" horiz-adv-x="760" 
d="M655 581h95v-75h-95v-506h-80v315h-390v-315h-80v506h-95v75h95v119h80v-119h390v119h80v-119zM185 390h390v116h-390v-116z" />
    <glyph glyph-name="hbar" unicode="&#x127;" horiz-adv-x="585" 
d="M85 0v550h-85v70h85v80h75v-80h160v-70h-160v-155h5q20 25 60 45t90 20q57 0 102.5 -26.5t71.5 -74.5t26 -109v-250h-75v250q0 39 -18 71t-49 50.5t-68 18.5q-39 0 -72.5 -19.5t-53 -51.5t-19.5 -69v-250h-75z" />
    <glyph glyph-name="Imacron" unicode="&#x12a;" horiz-adv-x="240" 
d="M160 0h-80v700h80v-700zM260 813h-280v60h280v-60z" />
    <glyph glyph-name="imacron" unicode="&#x12b;" horiz-adv-x="215" 
d="M145 0h-75v500h75v-500zM248 618h-280v60h280v-60z" />
    <glyph glyph-name="Ibreve" unicode="&#x12c;" horiz-adv-x="240" 
d="M160 0h-80v700h80v-700zM23.5 814.5q-39.5 34.5 -43.5 90.5h65q4 -33 24 -51.5t51 -18.5t51 18.5t24 51.5h65q-4 -56 -43.5 -90.5t-96.5 -34.5t-96.5 34.5z" />
    <glyph glyph-name="ibreve" unicode="&#x12d;" horiz-adv-x="215" 
d="M145 0h-75v500h75v-500zM11.5 619.5q-39.5 34.5 -43.5 90.5h65q4 -33 24 -51.5t51 -18.5t51 18.5t24 51.5h65q-4 -56 -43.5 -90.5t-96.5 -34.5t-96.5 34.5z" />
    <glyph glyph-name="Iogonek" unicode="&#x12e;" horiz-adv-x="240" 
d="M80 700h80v-700h-15q-30 -15 -45 -33t-15 -37q0 -16 12 -28t33 -12h15v-55h-20q-48 0 -74 23.5t-26 61.5q0 28 17 50t38 30v700z" />
    <glyph glyph-name="iogonek" unicode="&#x12f;" horiz-adv-x="215" 
d="M66 605v85h85v-85h-85zM70 500h75v-500h-10q-30 -15 -45 -33t-15 -37q0 -16 12 -28t33 -12h15v-55h-20q-48 0 -74 23.5t-26 61.5q0 28 17 50t38 30v500z" />
    <glyph glyph-name="Idotaccent" unicode="&#x130;" horiz-adv-x="240" 
d="M160 0h-80v700h80v-700zM163 800h-85v85h85v-85z" />
    <glyph glyph-name="dotlessi" unicode="&#x131;" horiz-adv-x="215" 
d="M145 0h-75v500h75v-500z" />
    <glyph glyph-name="IJ" unicode="&#x132;" horiz-adv-x="625" 
d="M160 0h-80v700h80v-700zM250 0v75h170q23 0 36.5 14t13.5 36v575h80v-585q0 -54 -30.5 -84.5t-89.5 -30.5h-180z" />
    <glyph glyph-name="ij" unicode="&#x133;" horiz-adv-x="430" 
d="M145 0h-75v500h75v-500zM151 605h-85v85h85v-85zM180 -200v70h75q30 0 30 30v600h75v-615q0 -38 -24.5 -61.5t-65.5 -23.5h-90zM366 605h-85v85h85v-85z" />
    <glyph glyph-name="Jcircumflex" unicode="&#x134;" horiz-adv-x="385" 
d="M10 0v75h170q23 0 36.5 14t13.5 36v575h80v-585q0 -54 -30.5 -84.5t-89.5 -30.5h-180zM195 770h-80l115 135h80l115 -135h-80l-75 90z" />
    <glyph glyph-name="jcircumflex" unicode="&#x135;" horiz-adv-x="215" 
d="M-35 -200v70h75q30 0 30 30v600h75v-615q0 -38 -24.5 -61.5t-65.5 -23.5h-90zM33 580h-80l115 135h80l115 -135h-80l-75 90z" />
    <glyph glyph-name="uni0136" unicode="&#x136;" horiz-adv-x="555" 
d="M160 0h-80v700h80v-330l295 330h100l-310 -345l330 -355h-101l-314 340v-340zM295 -245h-60l30 160h85z" />
    <glyph glyph-name="uni0137" unicode="&#x137;" horiz-adv-x="480" 
d="M150 0h-75v700h75v-430l224 230h96l-240 -245l250 -255h-96l-234 240v-240zM250 -245h-60l30 160h85z" />
    <glyph glyph-name="Lacute" unicode="&#x139;" horiz-adv-x="530" 
d="M510 0h-430v700h80v-625h350v-75zM154 770h-70l95 140h90z" />
    <glyph glyph-name="lacute" unicode="&#x13a;" horiz-adv-x="225" 
d="M150 0h-75v700h75v-700zM147 770h-70l95 140h90z" />
    <glyph glyph-name="uni013B" unicode="&#x13b;" horiz-adv-x="530" 
d="M510 0h-430v700h80v-625h350v-75zM285 -245h-60l30 160h85z" />
    <glyph glyph-name="uni013C" unicode="&#x13c;" horiz-adv-x="225" 
d="M150 0h-75v700h75v-700zM100 -245h-60l30 160h85z" />
    <glyph glyph-name="Lcaron" unicode="&#x13d;" horiz-adv-x="530" 
d="M510 0h-430v700h80v-625h350v-75zM285 540h-60l18 160h85z" />
    <glyph glyph-name="lcaron" unicode="&#x13e;" horiz-adv-x="225" 
d="M150 0h-75v700h75v-700zM275 540h-60l18 160h85z" />
    <glyph glyph-name="Ldot" unicode="&#x13f;" horiz-adv-x="530" 
d="M510 0h-430v700h80v-625h350v-75zM430 335h-90v90h90v-90z" />
    <glyph glyph-name="ldot" unicode="&#x140;" horiz-adv-x="369" 
d="M150 0h-75v700h75v-700zM342 315h-90v90h90v-90z" />
    <glyph glyph-name="Lslash" unicode="&#x141;" horiz-adv-x="550" 
d="M180 320v-245h350v-75h-430v290l-80 -30v75l80 30v335h80v-305l160 60v-75z" />
    <glyph glyph-name="lslash" unicode="&#x142;" horiz-adv-x="265" 
d="M170 405l75 30v-70l-75 -30v-335h-75v305l-75 -30v70l75 30v325h75v-295z" />
    <glyph glyph-name="Nacute" unicode="&#x143;" horiz-adv-x="710" 
d="M160 0h-80v700h135l315 -605h20v605h80v-700h-135l-315 605h-20v-605zM389 770h-70l95 140h90z" />
    <glyph glyph-name="nacute" unicode="&#x144;" horiz-adv-x="570" 
d="M70 0v500h65l10 -55h5q20 25 60 45t90 20q57 0 102.5 -26.5t71.5 -74.5t26 -109v-300h-75v300q0 39 -18 71t-49 50.5t-68 18.5q-39 0 -72.5 -19.5t-53 -51.5t-19.5 -69v-300h-75zM330 580h-70l95 140h90z" />
    <glyph glyph-name="uni0145" unicode="&#x145;" horiz-adv-x="710" 
d="M160 0h-80v700h135l315 -605h20v605h80v-700h-135l-315 605h-20v-605zM345 -245h-60l30 160h85z" />
    <glyph glyph-name="uni0146" unicode="&#x146;" horiz-adv-x="570" 
d="M70 0v500h65l10 -55h5q20 25 60 45t90 20q57 0 102.5 -26.5t71.5 -74.5t26 -109v-300h-75v300q0 39 -18 71t-49 50.5t-68 18.5q-39 0 -72.5 -19.5t-53 -51.5t-19.5 -69v-300h-75zM275 -245h-60l30 160h85z" />
    <glyph glyph-name="Ncaron" unicode="&#x147;" horiz-adv-x="710" 
d="M160 0h-80v700h135l315 -605h20v605h80v-700h-135l-315 605h-20v-605zM395 770h-80l-115 135h80l75 -90l75 90h80z" />
    <glyph glyph-name="ncaron" unicode="&#x148;" horiz-adv-x="570" 
d="M70 0v500h65l10 -55h5q20 25 60 45t90 20q57 0 102.5 -26.5t71.5 -74.5t26 -109v-300h-75v300q0 39 -18 71t-49 50.5t-68 18.5q-39 0 -72.5 -19.5t-53 -51.5t-19.5 -69v-300h-75zM335 580h-80l-115 135h80l75 -90l75 90h80z" />
    <glyph glyph-name="napostrophe" unicode="&#x149;" horiz-adv-x="580" 
d="M80 0v500h65l10 -55h5q20 25 60 45t90 20q57 0 102.5 -26.5t71.5 -74.5t26 -109v-300h-75v300q0 39 -18 71t-49 50.5t-68 18.5q-39 0 -72.5 -19.5t-53 -51.5t-19.5 -69v-300h-75zM70 540h-60l30 160h85z" />
    <glyph glyph-name="Eng" unicode="&#x14a;" horiz-adv-x="710" 
d="M410 -200v75h90q23 0 36.5 13.5t13.5 36.5v75h-55l-315 605h-20v-605h-80v700h135l315 -605h20v605h80v-785q0 -54 -30.5 -84.5t-89.5 -30.5h-100z" />
    <glyph glyph-name="eng" unicode="&#x14b;" horiz-adv-x="570" 
d="M305 -200v75h70q23 0 36.5 13.5t13.5 36.5v375q0 39 -18 71t-49 50.5t-68 18.5q-39 0 -72.5 -19.5t-53 -51.5t-19.5 -69v-300h-75v500h65l10 -55h5q20 25 60 45t90 20q57 0 102.5 -26.5t71.5 -74.5t26 -109v-390q0 -53 -29.5 -81.5t-85.5 -28.5h-80z" />
    <glyph glyph-name="Omacron" unicode="&#x14c;" horiz-adv-x="770" 
d="M216 35.5q-77 45.5 -121.5 127.5t-44.5 187t44.5 187t121.5 127.5t169 45.5t169 -45.5t121.5 -127.5t44.5 -187t-44.5 -187t-121.5 -127.5t-169 -45.5t-169 45.5zM513.5 101q58.5 36 92.5 101t34 148t-34 148t-92.5 101t-128.5 36t-128.5 -36t-92.5 -101t-34 -148
t34 -148t92.5 -101t128.5 -36t128.5 36zM525 813h-280v60h280v-60z" />
    <glyph glyph-name="omacron" unicode="&#x14d;" 
d="M158 23q-55 33 -86.5 92t-31.5 135t31.5 135t86.5 92t122 33t122 -33t86.5 -92t31.5 -135t-31.5 -135t-86.5 -92t-122 -33t-122 33zM363 83.5q38 23.5 60 67t22 99.5t-22 99.5t-60 67t-83 23.5t-83 -23.5t-60 -67t-22 -99.5t22 -99.5t60 -67t83 -23.5t83 23.5zM420 618
h-280v60h280v-60z" />
    <glyph glyph-name="Obreve" unicode="&#x14e;" horiz-adv-x="770" 
d="M216 35.5q-77 45.5 -121.5 127.5t-44.5 187t44.5 187t121.5 127.5t169 45.5t169 -45.5t121.5 -127.5t44.5 -187t-44.5 -187t-121.5 -127.5t-169 -45.5t-169 45.5zM513.5 101q58.5 36 92.5 101t34 148t-34 148t-92.5 101t-128.5 36t-128.5 -36t-92.5 -101t-34 -148
t34 -148t92.5 -101t128.5 -36t128.5 36zM288.5 814.5q-39.5 34.5 -43.5 90.5h65q4 -33 24 -51.5t51 -18.5t51 18.5t24 51.5h65q-4 -56 -43.5 -90.5t-96.5 -34.5t-96.5 34.5z" />
    <glyph glyph-name="obreve" unicode="&#x14f;" 
d="M158 23q-55 33 -86.5 92t-31.5 135t31.5 135t86.5 92t122 33t122 -33t86.5 -92t31.5 -135t-31.5 -135t-86.5 -92t-122 -33t-122 33zM363 83.5q38 23.5 60 67t22 99.5t-22 99.5t-60 67t-83 23.5t-83 -23.5t-60 -67t-22 -99.5t22 -99.5t60 -67t83 -23.5t83 23.5z
M183.5 619.5q-39.5 34.5 -43.5 90.5h65q4 -33 24 -51.5t51 -18.5t51 18.5t24 51.5h65q-4 -56 -43.5 -90.5t-96.5 -34.5t-96.5 34.5z" />
    <glyph glyph-name="Ohungarumlaut" unicode="&#x150;" horiz-adv-x="770" 
d="M216 35.5q-77 45.5 -121.5 127.5t-44.5 187t44.5 187t121.5 127.5t169 45.5t169 -45.5t121.5 -127.5t44.5 -187t-44.5 -187t-121.5 -127.5t-169 -45.5t-169 45.5zM513.5 101q58.5 36 92.5 101t34 148t-34 148t-92.5 101t-128.5 36t-128.5 -36t-92.5 -101t-34 -148
t34 -148t92.5 -101t128.5 -36t128.5 36zM340 770h-70l95 140h90zM500 770h-70l95 140h90z" />
    <glyph glyph-name="ohungarumlaut" unicode="&#x151;" 
d="M158 23q-55 33 -86.5 92t-31.5 135t31.5 135t86.5 92t122 33t122 -33t86.5 -92t31.5 -135t-31.5 -135t-86.5 -92t-122 -33t-122 33zM363 83.5q38 23.5 60 67t22 99.5t-22 99.5t-60 67t-83 23.5t-83 -23.5t-60 -67t-22 -99.5t22 -99.5t60 -67t83 -23.5t83 23.5zM230 580
h-70l95 140h90zM390 580h-70l95 140h90z" />
    <glyph glyph-name="OE" unicode="&#x152;" horiz-adv-x="1100" 
d="M206 35.5q-72 45.5 -114 127.5t-42 187t42 187t114 127.5t159 45.5q73 0 131.5 -32.5t93.5 -87.5h5v110h450v-75h-370v-235h350v-75h-350v-240h370v-75h-450v110h-5q-35 -55 -93.5 -87.5t-131.5 -32.5q-87 0 -159 45.5zM482.5 100q52.5 35 82.5 99.5t30 150.5t-30 150.5
t-82.5 99.5t-117.5 35t-119 -35t-85 -100t-31 -150t31 -150t85 -100t119 -35t117.5 35z" />
    <glyph glyph-name="oe" unicode="&#x153;" horiz-adv-x="930" 
d="M152.5 23q-52.5 33 -82.5 92t-30 135t30 135t82.5 92t117.5 33q63 0 114 -31.5t81 -88.5q30 56 83 88t117 32q66 0 117.5 -31.5t79.5 -86.5t28 -122q0 -32 -5 -55h-380q7 -71 51.5 -113t108.5 -42q44 0 77.5 21t52.5 59h80q-27 -73 -80 -111.5t-130 -38.5
q-63 0 -116.5 31t-83.5 84q-31 -54 -81.5 -84.5t-113.5 -30.5q-65 0 -117.5 33zM348 83.5q35 23.5 56 67t21 99.5t-21 99.5t-56 67t-78 23.5t-78 -23.5t-56 -67t-21 -99.5t21 -99.5t56 -67t78 -23.5t78 23.5zM815 285q-4 70 -46.5 112.5t-103.5 42.5q-64 0 -108.5 -42
t-51.5 -113h310z" />
    <glyph glyph-name="Racute" unicode="&#x154;" horiz-adv-x="640" 
d="M319 270l281 -270h-100l-280 270h-60v-270h-80v700h305q55 0 100.5 -28t72.5 -77t27 -110t-27 -110t-72.5 -77t-100.5 -28h-66zM160 345h225q50 0 85 39t35 101t-35 101t-85 39h-225v-280zM354 770h-70l95 140h90z" />
    <glyph glyph-name="racute" unicode="&#x155;" horiz-adv-x="340" 
d="M70 0v500h65l10 -50h5q17 26 37 38t58 12h85v-70h-75q-52 0 -81 -28.5t-29 -81.5v-320h-75zM245 580h-70l95 140h90z" />
    <glyph glyph-name="uni0156" unicode="&#x156;" horiz-adv-x="640" 
d="M319 270l281 -270h-100l-280 270h-60v-270h-80v700h305q55 0 100.5 -28t72.5 -77t27 -110t-27 -110t-72.5 -77t-100.5 -28h-66zM160 345h225q50 0 85 39t35 101t-35 101t-85 39h-225v-280zM310 -245h-60l30 160h85z" />
    <glyph glyph-name="uni0157" unicode="&#x157;" horiz-adv-x="340" 
d="M70 0v500h65l10 -50h5q17 26 37 38t58 12h85v-70h-75q-52 0 -81 -28.5t-29 -81.5v-320h-75zM98 -245h-60l30 160h85z" />
    <glyph glyph-name="Rcaron" unicode="&#x158;" horiz-adv-x="640" 
d="M319 270l281 -270h-100l-280 270h-60v-270h-80v700h305q55 0 100.5 -28t72.5 -77t27 -110t-27 -110t-72.5 -77t-100.5 -28h-66zM160 345h225q50 0 85 39t35 101t-35 101t-85 39h-225v-280zM360 770h-80l-115 135h80l75 -90l75 90h80z" />
    <glyph glyph-name="rcaron" unicode="&#x159;" horiz-adv-x="340" 
d="M70 0v500h65l10 -50h5q17 26 37 38t58 12h85v-70h-75q-52 0 -81 -28.5t-29 -81.5v-320h-75zM250 580h-80l-115 135h80l75 -90l75 90h80z" />
    <glyph glyph-name="Sacute" unicode="&#x15a;" horiz-adv-x="615" 
d="M170 19.5q-60 29.5 -92.5 78.5t-32.5 107h80q0 -38 21.5 -70t63.5 -51t100 -19q89 0 132 34.5t43 90.5q0 45 -30 74.5t-90 40.5l-135 25q-170 32 -170 180q0 58 29 103t83.5 71t127.5 26q78 0 137 -28.5t91 -77.5t32 -109h-80q0 38 -21.5 70t-62 51t-96.5 19
q-76 0 -118 -35t-42 -90q0 -42 28.5 -71t86.5 -39l110 -20q104 -19 152 -65t48 -125q0 -58 -29.5 -103.5t-87.5 -71t-138 -25.5t-140 29.5zM339 770h-70l95 140h90z" />
    <glyph glyph-name="sacute" unicode="&#x15b;" horiz-adv-x="460" 
d="M124.5 11.5q-45.5 21.5 -70 57t-24.5 76.5h75q0 -35 33.5 -60t91.5 -25q57 0 88.5 21.5t31.5 53.5q0 30 -20.5 48.5t-64.5 26.5l-85 15q-140 24 -140 140q0 63 47.5 104t137.5 41q58 0 102.5 -21.5t68.5 -57.5t24 -76h-75q0 35 -33 60t-87 25q-53 0 -81.5 -21.5
t-28.5 -53.5q0 -28 18.5 -45t61.5 -25l85 -15q75 -13 110 -49t35 -96q0 -63 -50.5 -104t-144.5 -41q-60 0 -105.5 21.5zM265 580h-70l95 140h90z" />
    <glyph glyph-name="Scircumflex" unicode="&#x15c;" horiz-adv-x="615" 
d="M170 19.5q-60 29.5 -92.5 78.5t-32.5 107h80q0 -38 21.5 -70t63.5 -51t100 -19q89 0 132 34.5t43 90.5q0 45 -30 74.5t-90 40.5l-135 25q-170 32 -170 180q0 58 29 103t83.5 71t127.5 26q78 0 137 -28.5t91 -77.5t32 -109h-80q0 38 -21.5 70t-62 51t-96.5 19
q-76 0 -118 -35t-42 -90q0 -42 28.5 -71t86.5 -39l110 -20q104 -19 152 -65t48 -125q0 -58 -29.5 -103.5t-87.5 -71t-138 -25.5t-140 29.5zM230 770h-80l115 135h80l115 -135h-80l-75 90z" />
    <glyph glyph-name="scircumflex" unicode="&#x15d;" horiz-adv-x="460" 
d="M124.5 11.5q-45.5 21.5 -70 57t-24.5 76.5h75q0 -35 33.5 -60t91.5 -25q57 0 88.5 21.5t31.5 53.5q0 30 -20.5 48.5t-64.5 26.5l-85 15q-140 24 -140 140q0 63 47.5 104t137.5 41q58 0 102.5 -21.5t68.5 -57.5t24 -76h-75q0 35 -33 60t-87 25q-53 0 -81.5 -21.5
t-28.5 -53.5q0 -28 18.5 -45t61.5 -25l85 -15q75 -13 110 -49t35 -96q0 -63 -50.5 -104t-144.5 -41q-60 0 -105.5 21.5zM155 580h-80l115 135h80l115 -135h-80l-75 90z" />
    <glyph glyph-name="Scedilla" unicode="&#x15e;" horiz-adv-x="615" 
d="M503.5 50q-61.5 -55 -172.5 -60l-16 -35q29 -4 49.5 -26t20.5 -49q0 -35 -25.5 -57.5t-69.5 -22.5h-50v50h40q22 0 33.5 9.5t11.5 25.5t-11.5 25.5t-33.5 9.5h-25v35l17 37q-69 7 -120.5 37t-79 76.5t-27.5 99.5h80q0 -38 21.5 -70t63.5 -51t100 -19q89 0 132 34.5
t43 90.5q0 45 -30 74.5t-90 40.5l-135 25q-170 32 -170 180q0 58 29 103t83.5 71t127.5 26q78 0 137 -28.5t91 -77.5t32 -109h-80q0 38 -21.5 70t-62 51t-96.5 19q-76 0 -118 -35t-42 -90q0 -42 28.5 -71t86.5 -39l110 -20q104 -19 152 -65t48 -125q0 -85 -61.5 -140z" />
    <glyph glyph-name="scedilla" unicode="&#x15f;" horiz-adv-x="460" 
d="M381.5 37q-43.5 -40 -125.5 -46l-16 -36q29 -4 49.5 -26t20.5 -49q0 -35 -25.5 -57.5t-69.5 -22.5h-50v50h40q22 0 33.5 9.5t11.5 25.5t-11.5 25.5t-33.5 9.5h-25v35l17 37q-76 9 -121.5 52.5t-45.5 100.5h75q0 -35 33.5 -60t91.5 -25q57 0 88.5 21.5t31.5 53.5
q0 30 -20.5 48.5t-64.5 26.5l-85 15q-140 24 -140 140q0 63 47.5 104t137.5 41q58 0 102.5 -21.5t68.5 -57.5t24 -76h-75q0 35 -33 60t-87 25q-53 0 -81.5 -21.5t-28.5 -53.5q0 -28 18.5 -45t61.5 -25l85 -15q75 -13 110 -49t35 -96q0 -58 -43.5 -98z" />
    <glyph glyph-name="Scaron" unicode="&#x160;" horiz-adv-x="615" 
d="M170 19.5q-60 29.5 -92.5 78.5t-32.5 107h80q0 -38 21.5 -70t63.5 -51t100 -19q89 0 132 34.5t43 90.5q0 45 -30 74.5t-90 40.5l-135 25q-170 32 -170 180q0 58 29 103t83.5 71t127.5 26q78 0 137 -28.5t91 -77.5t32 -109h-80q0 38 -21.5 70t-62 51t-96.5 19
q-76 0 -118 -35t-42 -90q0 -42 28.5 -71t86.5 -39l110 -20q104 -19 152 -65t48 -125q0 -58 -29.5 -103.5t-87.5 -71t-138 -25.5t-140 29.5zM345 770h-80l-115 135h80l75 -90l75 90h80z" />
    <glyph glyph-name="scaron" unicode="&#x161;" horiz-adv-x="460" 
d="M124.5 11.5q-45.5 21.5 -70 57t-24.5 76.5h75q0 -35 33.5 -60t91.5 -25q57 0 88.5 21.5t31.5 53.5q0 30 -20.5 48.5t-64.5 26.5l-85 15q-140 24 -140 140q0 63 47.5 104t137.5 41q58 0 102.5 -21.5t68.5 -57.5t24 -76h-75q0 35 -33 60t-87 25q-53 0 -81.5 -21.5
t-28.5 -53.5q0 -28 18.5 -45t61.5 -25l85 -15q75 -13 110 -49t35 -96q0 -63 -50.5 -104t-144.5 -41q-60 0 -105.5 21.5zM270 580h-80l-115 135h80l75 -90l75 90h80z" />
    <glyph glyph-name="uni0162" unicode="&#x162;" horiz-adv-x="590" 
d="M335 0h-10l-20 -45q29 -4 49.5 -26t20.5 -49q0 -35 -25.5 -57.5t-69.5 -22.5h-50v50h40q22 0 33.5 9.5t11.5 25.5t-11.5 25.5t-33.5 9.5h-25v35l20 45h-10v625h-230v75h540v-75h-230v-625z" />
    <glyph glyph-name="uni0163" unicode="&#x163;" horiz-adv-x="340" 
d="M295 430h-115v-330q0 -30 30 -30h85v-70h-65l-20 -45q29 -4 49.5 -26t20.5 -49q0 -35 -25.5 -57.5t-69.5 -22.5h-50v50h40q22 0 33.5 9.5t11.5 25.5t-11.5 25.5t-33.5 9.5h-25v35l21 47q-31 7 -48.5 29t-17.5 54v345h-80v70h80v140h75v-140h115v-70z" />
    <glyph glyph-name="Tcaron" unicode="&#x164;" horiz-adv-x="590" 
d="M335 0h-80v625h-230v75h540v-75h-230v-625zM335 770h-80l-115 135h80l75 -90l75 90h80z" />
    <glyph glyph-name="tcaron" unicode="&#x165;" horiz-adv-x="340" 
d="M195 0q-41 0 -65.5 23.5t-24.5 61.5v345h-80v70h80v140h75v-140h115v-70h-115v-330q0 -30 30 -30h85v-70h-100zM305 540h-60l18 160h85z" />
    <glyph glyph-name="Tbar" unicode="&#x166;" horiz-adv-x="590" 
d="M565 700v-75h-230v-230h155v-75h-155v-320h-80v320h-155v75h155v230h-230v75h540z" />
    <glyph glyph-name="tbar" unicode="&#x167;" horiz-adv-x="340" 
d="M295 430h-115v-115h105v-70h-105v-145q0 -30 30 -30h85v-70h-100q-41 0 -65.5 23.5t-24.5 61.5v160h-70v70h70v115h-80v70h80v140h75v-140h115v-70z" />
    <glyph glyph-name="Umacron" unicode="&#x16a;" horiz-adv-x="690" 
d="M205 26q-63 36 -99 101t-36 148v425h80v-425q0 -61 25.5 -109t70 -74.5t99.5 -26.5t99.5 26.5t70 74.5t25.5 109v425h80v-425q0 -83 -36 -148t-99 -101t-140 -36t-140 36zM485 813h-280v60h280v-60z" />
    <glyph glyph-name="umacron" unicode="&#x16b;" horiz-adv-x="570" 
d="M167.5 16.5q-45.5 26.5 -71.5 74.5t-26 109v300h75v-300q0 -39 18 -71t49 -50.5t68 -18.5q39 0 72.5 19.5t53 51.5t19.5 69v300h75v-500h-65l-10 55h-5q-21 -26 -60.5 -45.5t-89.5 -19.5q-57 0 -102.5 26.5zM425 618h-280v60h280v-60z" />
    <glyph glyph-name="Ubreve" unicode="&#x16c;" horiz-adv-x="690" 
d="M205 26q-63 36 -99 101t-36 148v425h80v-425q0 -61 25.5 -109t70 -74.5t99.5 -26.5t99.5 26.5t70 74.5t25.5 109v425h80v-425q0 -83 -36 -148t-99 -101t-140 -36t-140 36zM248.5 814.5q-39.5 34.5 -43.5 90.5h65q4 -33 24 -51.5t51 -18.5t51 18.5t24 51.5h65
q-4 -56 -43.5 -90.5t-96.5 -34.5t-96.5 34.5z" />
    <glyph glyph-name="ubreve" unicode="&#x16d;" horiz-adv-x="570" 
d="M167.5 16.5q-45.5 26.5 -71.5 74.5t-26 109v300h75v-300q0 -39 18 -71t49 -50.5t68 -18.5q39 0 72.5 19.5t53 51.5t19.5 69v300h75v-500h-65l-10 55h-5q-21 -26 -60.5 -45.5t-89.5 -19.5q-57 0 -102.5 26.5zM188.5 619.5q-39.5 34.5 -43.5 90.5h65q4 -33 24 -51.5
t51 -18.5t51 18.5t24 51.5h65q-4 -56 -43.5 -90.5t-96.5 -34.5t-96.5 34.5z" />
    <glyph glyph-name="Uring" unicode="&#x16e;" horiz-adv-x="690" 
d="M205 26q-63 36 -99 101t-36 148v425h80v-425q0 -61 25.5 -109t70 -74.5t99.5 -26.5t99.5 26.5t70 74.5t25.5 109v425h80v-425q0 -83 -36 -148t-99 -101t-140 -36t-140 36zM281 786.5q-26 26.5 -26 63.5q0 38 26 64t64 26q37 0 63.5 -26t26.5 -64q0 -37 -26.5 -63.5
t-63.5 -26.5q-38 0 -64 26.5zM373 821q12 11 12 29t-12 29t-28 11t-28 -11t-12 -29t12 -29t28 -11t28 11z" />
    <glyph glyph-name="uring" unicode="&#x16f;" horiz-adv-x="570" 
d="M167.5 16.5q-45.5 26.5 -71.5 74.5t-26 109v300h75v-300q0 -39 18 -71t49 -50.5t68 -18.5q39 0 72.5 19.5t53 51.5t19.5 69v300h75v-500h-65l-10 55h-5q-21 -26 -60.5 -45.5t-89.5 -19.5q-57 0 -102.5 26.5zM221 596.5q-26 26.5 -26 63.5q0 38 26 64t64 26q37 0 63.5 -26
t26.5 -64q0 -37 -26.5 -63.5t-63.5 -26.5q-38 0 -64 26.5zM313 631q12 11 12 29t-12 29t-28 11t-28 -11t-12 -29t12 -29t28 -11t28 11z" />
    <glyph glyph-name="Uhungarumlaut" unicode="&#x170;" horiz-adv-x="690" 
d="M205 26q-63 36 -99 101t-36 148v425h80v-425q0 -61 25.5 -109t70 -74.5t99.5 -26.5t99.5 26.5t70 74.5t25.5 109v425h80v-425q0 -83 -36 -148t-99 -101t-140 -36t-140 36zM300 770h-70l95 140h90zM460 770h-70l95 140h90z" />
    <glyph glyph-name="uhungarumlaut" unicode="&#x171;" horiz-adv-x="570" 
d="M167.5 16.5q-45.5 26.5 -71.5 74.5t-26 109v300h75v-300q0 -39 18 -71t49 -50.5t68 -18.5q39 0 72.5 19.5t53 51.5t19.5 69v300h75v-500h-65l-10 55h-5q-21 -26 -60.5 -45.5t-89.5 -19.5q-57 0 -102.5 26.5zM235 580h-70l95 140h90zM395 580h-70l95 140h90z" />
    <glyph glyph-name="Uogonek" unicode="&#x172;" horiz-adv-x="690" 
d="M540 700h80v-425q0 -99 -49.5 -170t-125.5 -97q-84 -29 -84 -78q0 -16 12 -28t33 -12h15v-55h-20q-48 0 -74 23.5t-26 61.5q0 42 37 70q-75 1 -136.5 37.5t-96.5 100.5t-35 147v425h80v-425q0 -61 25.5 -109t70 -74.5t99.5 -26.5t99.5 26.5t70 74.5t25.5 109v425z" />
    <glyph glyph-name="uogonek" unicode="&#x173;" horiz-adv-x="570" 
d="M500 0q-30 -15 -45 -33t-15 -37q0 -16 12 -28t33 -12h15v-55h-20q-48 0 -74 23.5t-26 61.5q0 28 17 50t38 30l-10 55h-5q-21 -26 -60.5 -45.5t-89.5 -19.5q-57 0 -102.5 26.5t-71.5 74.5t-26 109v300h75v-300q0 -39 18 -71t49 -50.5t68 -18.5q39 0 72.5 19.5t53 51.5
t19.5 69v300h75v-500z" />
    <glyph glyph-name="Wcircumflex" unicode="&#x174;" horiz-adv-x="980" 
d="M328 0h-138l-175 700h85l150 -615h20l160 615h120l160 -615h20l150 615h85l-175 -700h-138l-152 585h-20zM415 770h-80l115 135h80l115 -135h-80l-75 90z" />
    <glyph glyph-name="wcircumflex" unicode="&#x175;" horiz-adv-x="790" 
d="M280 0h-130l-135 500h80l110 -420h20l110 420h120l110 -420h20l110 420h80l-135 -500h-130l-105 405h-20zM320 580h-80l115 135h80l115 -135h-80l-75 90z" />
    <glyph glyph-name="Ycircumflex" unicode="&#x176;" horiz-adv-x="590" 
d="M335 0h-80v265l-255 435h85l200 -345h20l200 345h85l-255 -435v-265zM220 770h-80l115 135h80l115 -135h-80l-75 90z" />
    <glyph glyph-name="ycircumflex" unicode="&#x177;" horiz-adv-x="495" 
d="M405 500h80l-225 -630q-13 -36 -34 -53t-61 -17h-100v70h95q25 0 35 30l20 60l-205 540h80l155 -415h20zM180 580h-80l115 135h80l115 -135h-80l-75 90z" />
    <glyph glyph-name="Ydieresis" unicode="&#x178;" horiz-adv-x="590" 
d="M335 0h-80v265l-255 435h85l200 -345h20l200 345h85l-255 -435v-265zM250 800h-85v85h85v-85zM425 800h-85v85h85v-85z" />
    <glyph glyph-name="Zacute" unicode="&#x179;" horiz-adv-x="575" 
d="M540 0h-505v65l400 560h-395v75h495v-65l-400 -560h405v-75zM321 770h-70l95 140h90z" />
    <glyph glyph-name="zacute" unicode="&#x17a;" horiz-adv-x="430" 
d="M405 0h-380v65l280 365h-275v70h370v-65l-280 -365h285v-70zM250 580h-70l95 140h90z" />
    <glyph glyph-name="Zdotaccent" unicode="&#x17b;" horiz-adv-x="575" 
d="M540 0h-505v65l400 560h-395v75h495v-65l-400 -560h405v-75zM330 800h-85v85h85v-85z" />
    <glyph glyph-name="zdotaccent" unicode="&#x17c;" horiz-adv-x="430" 
d="M405 0h-380v65l280 365h-275v70h370v-65l-280 -365h285v-70zM258 605h-85v85h85v-85z" />
    <glyph glyph-name="Zcaron" unicode="&#x17d;" horiz-adv-x="575" 
d="M540 0h-505v65l400 560h-395v75h495v-65l-400 -560h405v-75zM327 770h-80l-115 135h80l75 -90l75 90h80z" />
    <glyph glyph-name="zcaron" unicode="&#x17e;" horiz-adv-x="430" 
d="M405 0h-380v65l280 365h-275v70h370v-65l-280 -365h285v-70zM255 580h-80l-115 135h80l75 -90l75 90h80z" />
    <glyph glyph-name="uni018F" unicode="&#x18f;" horiz-adv-x="755" 
d="M205 32q-73 42 -114 118.5t-41 174.5v60h575q-7 72 -42 129t-90.5 89t-122.5 32q-72 0 -133.5 -39t-91.5 -106h-85q33 100 118.5 160t191.5 60q92 0 169 -45.5t121.5 -127.5t44.5 -187t-44.5 -187t-121.5 -127.5t-169 -45.5t-165 42zM492.5 97q55.5 32 90.5 89t42 129
h-495q0 -74 30.5 -130.5t85.5 -88t124 -31.5q67 0 122.5 32z" />
    <glyph glyph-name="florin" unicode="&#x192;" horiz-adv-x="375" 
d="M-70 -200l15 70h60q21 0 33.5 12.5t16.5 32.5l95 435h-95l15 70h95l35 160q10 46 42 73t83 27h75l-15 -70h-60q-21 0 -33.5 -12.5t-16.5 -32.5l-30 -145h100l-15 -70h-100l-100 -450q-10 -46 -42 -73t-83 -27h-75z" />
    <glyph glyph-name="uni01F4" unicode="&#x1f4;" horiz-adv-x="770" 
d="M410 360h290v-360h-65l-10 100h-5q-33 -42 -96.5 -76t-138.5 -34q-92 0 -169 45.5t-121.5 127.5t-44.5 187t44.5 187t121.5 127.5t169 45.5q106 0 191.5 -60t118.5 -160h-85q-30 67 -91.5 106t-133.5 39q-70 0 -128.5 -36t-92.5 -101t-34 -148t34 -148t92.5 -101
t128.5 -36q61 0 115.5 30.5t87 80.5t32.5 104v10h-210v70zM416 770h-70l95 140h90z" />
    <glyph glyph-name="uni01F5" unicode="&#x1f5;" horiz-adv-x="580" 
d="M168 -186q-50 24 -77.5 63t-30.5 83h75q4 -41 43.5 -70.5t106.5 -29.5q68 0 109 38t41 102v90h-5q-30 -34 -71 -52t-89 -18q-65 0 -117.5 31t-82.5 87t-30 127t30 127t82.5 87t117.5 31q48 0 90.5 -20.5t69.5 -54.5h5l10 65h65v-500q0 -62 -27 -109.5t-78 -74t-120 -26.5
q-67 0 -117 24zM356.5 112q36.5 22 57.5 62t21 91t-21 91t-57.5 62t-81.5 22t-81.5 -22t-57.5 -62t-21 -91t21 -91t57.5 -62t81.5 -22t81.5 22zM325 580h-70l95 140h90z" />
    <glyph glyph-name="Aringacute" unicode="&#x1fa;" horiz-adv-x="650" 
d="M650 0h-85l-67 180h-346l-67 -180h-85l265 700h120zM315 615l-135 -360h290l-135 360h-20zM261.5 776.5q-26.5 26.5 -26.5 63.5t22.5 61.5t57.5 28.5l30 50h70l-45 -60q45 -27 45 -80q0 -37 -26 -63.5t-64 -26.5q-37 0 -63.5 26.5zM353 811q12 11 12 29t-12 29t-28 11
t-28 -11t-12 -29t12 -29t28 -11t28 11z" />
    <glyph glyph-name="aringacute" unicode="&#x1fb;" horiz-adv-x="530" 
d="M98.5 33.5q-48.5 43.5 -48.5 111.5q0 75 49.5 117.5t150.5 42.5h135v15q0 56 -32 88t-88 32q-54 0 -87.5 -24.5t-37.5 -60.5h-75q3 41 27 76.5t68.5 57t104.5 21.5q91 0 143 -50.5t52 -139.5v-320h-65l-10 60h-5q-17 -27 -58.5 -48.5t-96.5 -21.5q-78 0 -126.5 43.5z
M342.5 101.5q42.5 41.5 42.5 113.5v20h-135q-64 0 -94.5 -25t-30.5 -65q0 -38 26 -61.5t74 -23.5q75 0 117.5 41.5zM201.5 576.5q-26.5 26.5 -26.5 63.5t22.5 61.5t57.5 28.5l30 50h70l-45 -60q45 -27 45 -80q0 -37 -26 -63.5t-64 -26.5q-37 0 -63.5 26.5zM293 611
q12 11 12 29t-12 29t-28 11t-28 -11t-12 -29t12 -29t28 -11t28 11z" />
    <glyph glyph-name="AEacute" unicode="&#x1fc;" horiz-adv-x="925" 
d="M870 700v-75h-370v-235h350v-75h-350v-240h370v-75h-450v175h-269l-76 -175h-85l305 700h575zM345 625l-162 -375h237v375h-75zM494 770h-70l95 140h90z" />
    <glyph glyph-name="aeacute" unicode="&#x1fd;" horiz-adv-x="885" 
d="M840 220h-380q8 -71 52 -115.5t108 -44.5q44 0 77.5 21t52.5 59h80q-27 -73 -80 -111.5t-130 -38.5q-59 0 -114 31t-81 79q-25 -48 -81 -79t-119 -31q-51 0 -91 19.5t-62 54t-22 76.5q0 71 49.5 113t150.5 42h135v25q0 56 -32 88t-88 32q-54 0 -87.5 -24.5t-37.5 -60.5
h-75q3 41 27 76.5t68.5 57t104.5 21.5q61 0 105.5 -29t64.5 -76q28 48 74.5 76.5t110.5 28.5q65 0 116 -30t80 -84.5t29 -125.5q0 -30 -5 -50zM770 290q-4 69 -46 109.5t-104 40.5q-65 0 -109 -40t-51 -110h310zM342.5 101.5q42.5 41.5 42.5 113.5v10h-135q-62 0 -93.5 -23
t-31.5 -62q0 -35 26.5 -57.5t73.5 -22.5q75 0 117.5 41.5zM478 580h-70l95 140h90z" />
    <glyph glyph-name="Oslashacute" unicode="&#x1fe;" horiz-adv-x="770" 
d="M583 645q64 -48 100.5 -124t36.5 -171q0 -105 -44.5 -187t-121.5 -127.5t-169 -45.5q-71 0 -133 27l-27 -52h-85l47 90q-64 48 -100.5 124t-36.5 171q0 105 44.5 187t121.5 127.5t169 45.5q71 0 133 -27l27 52h85zM155 222q25 -58 69 -97l258 490q-46 20 -97 20
q-70 0 -128.5 -36t-92.5 -101t-34 -148q0 -70 25 -128zM513.5 101q58.5 36 92.5 101t34 148q0 70 -25 128t-69 97l-258 -490q46 -20 97 -20q70 0 128.5 36zM419 770h-70l95 140h90z" />
    <glyph glyph-name="oslashacute" unicode="&#x1ff;" 
d="M429 458q43 -34 67 -88t24 -120q0 -76 -31.5 -135t-86.5 -92t-122 -33q-50 0 -92 18l-23 -43h-75l41 77q-43 34 -67 88t-24 120q0 76 31.5 135t86.5 92t122 33q50 0 92 -18l23 43h75zM128.5 170.5q13.5 -36.5 38.5 -61.5l171 320q-28 11 -58 11q-45 0 -83 -23.5t-60 -67
t-22 -99.5q0 -43 13.5 -79.5zM363 83.5q38 23.5 60 67t22 99.5q0 43 -13.5 79.5t-38.5 61.5l-171 -320q28 -11 58 -11q45 0 83 23.5zM315 580h-70l95 140h90z" />
    <glyph glyph-name="uni0218" unicode="&#x218;" horiz-adv-x="615" 
d="M170 19.5q-60 29.5 -92.5 78.5t-32.5 107h80q0 -38 21.5 -70t63.5 -51t100 -19q89 0 132 34.5t43 90.5q0 45 -30 74.5t-90 40.5l-135 25q-170 32 -170 180q0 58 29 103t83.5 71t127.5 26q78 0 137 -28.5t91 -77.5t32 -109h-80q0 38 -21.5 70t-62 51t-96.5 19
q-76 0 -118 -35t-42 -90q0 -42 28.5 -71t86.5 -39l110 -20q104 -19 152 -65t48 -125q0 -58 -29.5 -103.5t-87.5 -71t-138 -25.5t-140 29.5zM295 -245h-60l30 160h85z" />
    <glyph glyph-name="uni0219" unicode="&#x219;" horiz-adv-x="460" 
d="M124.5 11.5q-45.5 21.5 -70 57t-24.5 76.5h75q0 -35 33.5 -60t91.5 -25q57 0 88.5 21.5t31.5 53.5q0 30 -20.5 48.5t-64.5 26.5l-85 15q-140 24 -140 140q0 63 47.5 104t137.5 41q58 0 102.5 -21.5t68.5 -57.5t24 -76h-75q0 35 -33 60t-87 25q-53 0 -81.5 -21.5
t-28.5 -53.5q0 -28 18.5 -45t61.5 -25l85 -15q75 -13 110 -49t35 -96q0 -63 -50.5 -104t-144.5 -41q-60 0 -105.5 21.5zM220 -245h-60l30 160h85z" />
    <glyph glyph-name="uni021A" unicode="&#x21a;" horiz-adv-x="590" 
d="M335 0h-80v625h-230v75h540v-75h-230v-625zM285 -245h-60l30 160h85z" />
    <glyph glyph-name="uni021B" unicode="&#x21b;" horiz-adv-x="340" 
d="M195 0q-41 0 -65.5 23.5t-24.5 61.5v345h-80v70h80v140h75v-140h115v-70h-115v-330q0 -30 30 -30h85v-70h-100zM190 -245h-60l30 160h85z" />
    <glyph glyph-name="uni0232" unicode="&#x232;" horiz-adv-x="590" 
d="M335 0h-80v265l-255 435h85l200 -345h20l200 345h85l-255 -435v-265zM435 813h-280v60h280v-60z" />
    <glyph glyph-name="uni0233" unicode="&#x233;" horiz-adv-x="495" 
d="M405 500h80l-225 -630q-13 -36 -34 -53t-61 -17h-100v70h95q25 0 35 30l20 60l-205 540h80l155 -415h20zM395 618h-280v60h280v-60z" />
    <glyph glyph-name="uni0237" unicode="&#x237;" horiz-adv-x="215" 
d="M-35 -200v70h75q30 0 30 30v600h75v-615q0 -38 -24.5 -61.5t-65.5 -23.5h-90z" />
    <glyph glyph-name="uni0244" unicode="&#x244;" horiz-adv-x="760" 
d="M750 503v-75h-95v-153q0 -83 -36 -148t-99 -101t-140 -36t-140 36t-99 101t-36 148v153h-95v75h95v197h80v-197h390v197h80v-197h95zM575 428h-390v-153q0 -61 25.5 -109t70 -74.5t99.5 -26.5t99.5 26.5t70 74.5t25.5 109v153z" />
    <glyph glyph-name="uni0259" unicode="&#x259;" horiz-adv-x="550" 
d="M153 21q-53 31 -83 85.5t-30 123.5q0 40 5 55h390q-7 70 -54 112.5t-111 42.5q-45 0 -80.5 -21t-54.5 -59h-80q26 72 81.5 111t133.5 39q67 0 122 -33t86.5 -92t31.5 -135t-31.5 -135t-86.5 -92t-122 -33q-64 0 -117 31zM382 103.5q45 43.5 53 111.5h-320
q4 -67 47.5 -111t107.5 -44q67 0 112 43.5z" />
    <glyph glyph-name="uni0289" unicode="&#x289;" horiz-adv-x="610" 
d="M600 390v-70h-80v-320h-65l-10 55h-5q-21 -26 -60.5 -45.5t-89.5 -19.5q-57 0 -102.5 26.5t-71.5 74.5t-26 109v120h-80v70h80v110h75v-110h280v110h75v-110h80zM445 320h-280v-120q0 -39 18 -71t49 -50.5t68 -18.5q39 0 72.5 19.5t53 51.5t19.5 69v120z" />
    <glyph glyph-name="uni02BC" unicode="&#x2bc;" horiz-adv-x="175" 
d="M90 540h-60l30 160h85z" />
    <glyph glyph-name="circumflex" unicode="&#x2c6;" horiz-adv-x="370" 
d="M110 580h-80l115 135h80l115 -135h-80l-75 90z" />
    <glyph glyph-name="caron" unicode="&#x2c7;" horiz-adv-x="370" 
d="M225 580h-80l-115 135h80l75 -90l75 90h80z" />
    <glyph glyph-name="breve" unicode="&#x2d8;" horiz-adv-x="340" 
d="M73.5 619.5q-39.5 34.5 -43.5 90.5h65q4 -33 24 -51.5t51 -18.5t51 18.5t24 51.5h65q-4 -56 -43.5 -90.5t-96.5 -34.5t-96.5 34.5z" />
    <glyph glyph-name="dotaccent" unicode="&#x2d9;" horiz-adv-x="145" 
d="M115 605h-85v85h85v-85z" />
    <glyph glyph-name="ring" unicode="&#x2da;" horiz-adv-x="240" 
d="M56 596.5q-26 26.5 -26 63.5q0 38 26 64t64 26q37 0 63.5 -26t26.5 -64q0 -37 -26.5 -63.5t-63.5 -26.5q-38 0 -64 26.5zM148 631q12 11 12 29t-12 29t-28 11t-28 -11t-12 -29t12 -29t28 -11t28 11z" />
    <glyph glyph-name="ogonek" unicode="&#x2db;" horiz-adv-x="180" 
d="M130 -165q-48 0 -74 23.5t-26 61.5q0 28 17 50t38 30l10 10l55 -10q-30 -15 -45 -33t-15 -37q0 -16 12 -28t33 -12h15v-55h-20z" />
    <glyph glyph-name="tilde" unicode="&#x2dc;" horiz-adv-x="375" 
d="M30 600q0 44 29 72t71 28q18 0 33.5 -6.5t34.5 -18.5q29 -20 47 -20q16 0 28 12t12 33h60q0 -44 -29 -72t-71 -28q-18 0 -33.5 6.5t-34.5 18.5q-29 20 -47 20q-16 0 -28 -12t-12 -33h-60z" />
    <glyph glyph-name="hungarumlaut" unicode="&#x2dd;" horiz-adv-x="405" 
d="M100 580h-70l95 140h90zM260 580h-70l95 140h90z" />
    <glyph glyph-name="gravecomb" unicode="&#x300;" horiz-adv-x="0" 
d="M-30 580h-70l-115 140h90z" />
    <glyph glyph-name="acutecomb" unicode="&#x301;" horiz-adv-x="0" 
d="M-145 580h-70l95 140h90z" />
    <glyph glyph-name="uni0302" unicode="&#x302;" horiz-adv-x="0" 
d="M-260 580h-80l115 135h80l115 -135h-80l-75 90z" />
    <glyph glyph-name="tildecomb" unicode="&#x303;" horiz-adv-x="0" 
d="M-345 600q0 44 29 72t71 28q18 0 33.5 -6.5t34.5 -18.5q29 -20 47 -20q16 0 28 12t12 33h60q0 -44 -29 -72t-71 -28q-18 0 -33.5 6.5t-34.5 18.5q-29 20 -47 20q-16 0 -28 -12t-12 -33h-60z" />
    <glyph glyph-name="uni0304" unicode="&#x304;" horiz-adv-x="0" 
d="M-30 618h-280v60h280v-60z" />
    <glyph glyph-name="uni0306" unicode="&#x306;" horiz-adv-x="0" 
d="M-266.5 619.5q-39.5 34.5 -43.5 90.5h65q4 -33 24 -51.5t51 -18.5t51 18.5t24 51.5h65q-4 -56 -43.5 -90.5t-96.5 -34.5t-96.5 34.5z" />
    <glyph glyph-name="uni0307" unicode="&#x307;" horiz-adv-x="0" 
d="M-30 605h-85v85h85v-85z" />
    <glyph glyph-name="uni0308" unicode="&#x308;" horiz-adv-x="0" 
d="M-205 605h-85v85h85v-85zM-30 605h-85v85h85v-85z" />
    <glyph glyph-name="uni030A" unicode="&#x30a;" horiz-adv-x="0" 
d="M-184 596.5q-26 26.5 -26 63.5q0 38 26 64t64 26q37 0 63.5 -26t26.5 -64q0 -37 -26.5 -63.5t-63.5 -26.5q-38 0 -64 26.5zM-92 631q12 11 12 29t-12 29t-28 11t-28 -11t-12 -29t12 -29t28 -11t28 11z" />
    <glyph glyph-name="uni030B" unicode="&#x30b;" horiz-adv-x="0" 
d="M-305 580h-70l95 140h90zM-145 580h-70l95 140h90z" />
    <glyph glyph-name="uni030C" unicode="&#x30c;" horiz-adv-x="0" 
d="M-145 580h-80l-115 135h80l75 -90l75 90h80z" />
    <glyph glyph-name="uni0312" unicode="&#x312;" horiz-adv-x="0" 
d="M-74 580h-85l64 170h65z" />
    <glyph glyph-name="uni0326" unicode="&#x326;" horiz-adv-x="0" 
d="M-85 -245h-60l30 160h85z" />
    <glyph glyph-name="uni0327" unicode="&#x327;" horiz-adv-x="0" 
d="M-175 -200v50h40q22 0 33.5 9.5t11.5 25.5t-11.5 25.5t-33.5 9.5h-25v35l27 60l53 -15l-20 -45q29 -4 49.5 -26t20.5 -49q0 -35 -25.5 -57.5t-69.5 -22.5h-50z" />
    <glyph glyph-name="uni0328" unicode="&#x328;" horiz-adv-x="0" 
d="M-50 -165q-48 0 -74 23.5t-26 61.5q0 28 17 50t38 30l10 10l55 -10q-30 -15 -45 -33t-15 -37q0 -16 12 -28t33 -12h15v-55h-20z" />
    <glyph glyph-name="uni03A9" unicode="&#x3a9;" horiz-adv-x="820" 
d="M90 0v75h130q-60 36 -110 108t-50 177q0 101 45.5 180.5t125.5 124.5t179 45t179 -45t125.5 -124.5t45.5 -180.5q0 -105 -50 -177t-110 -108h130v-75h-250v75q47 18 93 57t76.5 97.5t30.5 130.5q0 79 -35 141.5t-96.5 98t-138.5 35.5t-138.5 -35.5t-96.5 -98t-35 -141.5
q0 -72 30.5 -130.5t76.5 -97.5t93 -57v-75h-250z" />
    <glyph glyph-name="uni0400" unicode="&#x400;" horiz-adv-x="585" 
d="M530 0h-450v700h450v-75h-370v-235h350v-75h-350v-240h370v-75zM345 770h-70l-115 140h90z" />
    <glyph glyph-name="uni0401" unicode="&#x401;" horiz-adv-x="585" 
d="M530 0h-450v700h450v-75h-370v-235h350v-75h-350v-240h370v-75zM265 800h-85v85h85v-85zM440 800h-85v85h85v-85z" />
    <glyph glyph-name="uni0402" unicode="&#x402;" horiz-adv-x="705" 
d="M400 -40q53 0 93.5 26t63.5 74.5t23 114.5q0 92 -41.5 146t-118.5 54q-44 0 -80 -11t-75 -34v-330h-80v625h-185v75h450v-75h-185v-220q36 22 70.5 33.5t89.5 11.5q111 0 173 -74.5t62 -200.5q0 -82 -29 -147.5t-87.5 -104t-143.5 -38.5v75z" />
    <glyph glyph-name="uni0403" unicode="&#x403;" horiz-adv-x="540" 
d="M160 0h-80v700h440v-75h-360v-625zM334 770h-70l95 140h90z" />
    <glyph glyph-name="uni0404" unicode="&#x404;" horiz-adv-x="730" 
d="M216 35.5q-77 45.5 -121.5 127.5t-44.5 187t44.5 187t121.5 127.5t169 45.5q72 0 135.5 -28.5t109 -80.5t65.5 -121h-85q-26 72 -86.5 113.5t-138.5 41.5q-65 0 -120.5 -31t-90 -87t-39.5 -127h340v-75h-340q5 -73 39.5 -130t90 -88.5t120.5 -31.5q79 0 139 42.5
t86 117.5h85q-17 -71 -62 -124.5t-109 -82t-139 -28.5q-92 0 -169 45.5z" />
    <glyph glyph-name="uni0405" unicode="&#x405;" horiz-adv-x="615" 
d="M170 19.5q-60 29.5 -92.5 78.5t-32.5 107h80q0 -38 21.5 -70t63.5 -51t100 -19q89 0 132 34.5t43 90.5q0 45 -30 74.5t-90 40.5l-135 25q-170 32 -170 180q0 58 29 103t83.5 71t127.5 26q78 0 137 -28.5t91 -77.5t32 -109h-80q0 38 -21.5 70t-62 51t-96.5 19
q-76 0 -118 -35t-42 -90q0 -42 28.5 -71t86.5 -39l110 -20q104 -19 152 -65t48 -125q0 -58 -29.5 -103.5t-87.5 -71t-138 -25.5t-140 29.5z" />
    <glyph glyph-name="uni0406" unicode="&#x406;" horiz-adv-x="240" 
d="M160 0h-80v700h80v-700z" />
    <glyph glyph-name="uni0407" unicode="&#x407;" horiz-adv-x="240" 
d="M160 0h-80v700h80v-700zM75 800h-85v85h85v-85zM250 800h-85v85h85v-85z" />
    <glyph glyph-name="uni0408" unicode="&#x408;" horiz-adv-x="385" 
d="M10 0v75h170q23 0 36.5 14t13.5 36v575h80v-585q0 -54 -30.5 -84.5t-89.5 -30.5h-180z" />
    <glyph glyph-name="uni0409" unicode="&#x409;" horiz-adv-x="1020" 
d="M10 -5v80h35q31 0 51 20t24 60l45 545h415v-290h190q59 0 106 -26t73 -73t26 -106t-26 -106t-73 -73t-106 -26h-270v625h-260l-40 -470q-7 -82 -45 -121t-110 -39h-35zM770 75q57 0 91 35t34 95t-34 95t-91 35h-190v-260h190z" />
    <glyph glyph-name="uni040A" unicode="&#x40a;" horiz-adv-x="1030" 
d="M80 0v700h80v-300h350v300h80v-300h190q59 0 106 -26t73 -71.5t26 -102.5t-26 -102.5t-73 -71.5t-106 -26h-270v325h-350v-325h-80zM780 75q56 0 90.5 34.5t34.5 90.5t-34.5 90.5t-90.5 34.5h-190v-250h190z" />
    <glyph glyph-name="uni040B" unicode="&#x40b;" horiz-adv-x="715" 
d="M185 0v625h-185v75h450v-75h-185v-220q34 22 70 33.5t90 11.5q102 0 161 -60t59 -165v-225h-80v225q0 73 -37.5 111.5t-102.5 38.5q-49 0 -85 -10.5t-75 -34.5v-330h-80z" />
    <glyph glyph-name="uni040C" unicode="&#x40c;" horiz-adv-x="555" 
d="M160 0h-80v700h80v-330l295 330h100l-310 -345l330 -355h-101l-314 340v-340zM340 770h-70l95 140h90z" />
    <glyph glyph-name="uni040D" unicode="&#x40d;" horiz-adv-x="710" 
d="M215 0h-135v700h80v-605h20l315 605h135v-700h-80v605h-20zM390 770h-70l-115 140h90z" />
    <glyph glyph-name="uni040E" unicode="&#x40e;" horiz-adv-x="610" 
d="M515 700h85l-285 -630q-15 -33 -42 -51.5t-73 -18.5h-100v75h95q22 0 34.5 7.5t20.5 27.5l20 45l-260 545h85l205 -435h20zM213.5 814.5q-39.5 34.5 -43.5 90.5h65q4 -33 24 -51.5t51 -18.5t51 18.5t24 51.5h65q-4 -56 -43.5 -90.5t-96.5 -34.5t-96.5 34.5z" />
    <glyph glyph-name="uni040F" unicode="&#x40f;" horiz-adv-x="690" 
d="M385 -140h-80v140h-225v700h80v-625h370v625h80v-700h-225v-140z" />
    <glyph glyph-name="uni0410" unicode="&#x410;" horiz-adv-x="650" 
d="M650 0h-85l-67 180h-346l-67 -180h-85l265 700h120zM315 615l-135 -360h290l-135 360h-20z" />
    <glyph glyph-name="uni0411" unicode="&#x411;" horiz-adv-x="635" 
d="M80 0v700h470v-75h-390v-225h235q52 0 95.5 -25t69 -70.5t25.5 -104.5t-25.5 -104.5t-69 -70.5t-95.5 -25h-315zM395 75q49 0 79.5 34.5t30.5 90.5t-30.5 90.5t-79.5 34.5h-235v-250h235z" />
    <glyph glyph-name="uni0412" unicode="&#x412;" horiz-adv-x="640" 
d="M80 0v700h300q52 0 95.5 -26t69 -70.5t25.5 -98.5q0 -53 -23.5 -93t-51.5 -57v-5q33 -15 59 -56t26 -99q0 -54 -25.5 -98.5t-69 -70.5t-95.5 -26h-310zM380 385q46 0 78 34t32 86t-32 86t-78 34h-220v-240h220zM390 75q46 0 78 34t32 86t-32 86t-78 34h-230v-240h230z
" />
    <glyph glyph-name="uni0413" unicode="&#x413;" horiz-adv-x="540" 
d="M160 0h-80v700h440v-75h-360v-625z" />
    <glyph glyph-name="uni0414" unicode="&#x414;" horiz-adv-x="680" 
d="M0 -140v215h15q38 0 57 19.5t23 60.5l45 545h435v-625h75v-215h-80v140h-490v-140h-80zM495 75v550h-280l-40 -470q-3 -32 -12 -53.5t-18 -26.5h350z" />
    <glyph glyph-name="uni0415" unicode="&#x415;" horiz-adv-x="585" 
d="M530 0h-450v700h450v-75h-370v-235h350v-75h-350v-240h370v-75z" />
    <glyph glyph-name="uni0416" unicode="&#x416;" horiz-adv-x="800" 
d="M95 0h-95l275 355l-255 345h96l244 -330v330h80v-330l244 330h96l-255 -345l275 -355h-95l-265 345v-345h-80v345z" />
    <glyph glyph-name="uni0417" unicode="&#x417;" horiz-adv-x="595" 
d="M154.5 16.5q-57.5 26.5 -88.5 72.5t-31 101h80q0 -33 20.5 -61.5t60 -46t94.5 -17.5q53 0 93 17.5t61 46t21 61.5t-19 61.5t-53 46t-78 17.5h-70v75h70q59 0 97 35t38 85q0 54 -43.5 89.5t-116.5 35.5q-48 0 -84.5 -17.5t-56 -46t-19.5 -61.5h-80q0 55 29 101t83.5 72.5
t127.5 26.5q72 0 127 -27.5t84 -73.5t29 -99q0 -60 -34 -101t-76 -54v-5q48 -13 86.5 -55.5t38.5 -104.5q0 -55 -31 -101t-88.5 -72.5t-135.5 -26.5t-135.5 26.5z" />
    <glyph glyph-name="uni0418" unicode="&#x418;" horiz-adv-x="710" 
d="M215 0h-135v700h80v-605h20l315 605h135v-700h-80v605h-20z" />
    <glyph glyph-name="uni0419" unicode="&#x419;" horiz-adv-x="710" 
d="M215 0h-135v700h80v-605h20l315 605h135v-700h-80v605h-20zM258.5 814.5q-39.5 34.5 -43.5 90.5h65q4 -33 24 -51.5t51 -18.5t51 18.5t24 51.5h65q-4 -56 -43.5 -90.5t-96.5 -34.5t-96.5 34.5z" />
    <glyph glyph-name="uni041A" unicode="&#x41a;" horiz-adv-x="555" 
d="M160 0h-80v700h80v-330l295 330h100l-310 -345l330 -355h-101l-314 340v-340z" />
    <glyph glyph-name="uni041B" unicode="&#x41b;" horiz-adv-x="680" 
d="M10 -5v80h35q31 0 51 20t24 60l45 545h435v-700h-80v625h-280l-40 -470q-7 -82 -45 -121t-110 -39h-35z" />
    <glyph glyph-name="uni041C" unicode="&#x41c;" horiz-adv-x="900" 
d="M160 0h-80v700h145l215 -610h20l215 610h145v-700h-80v595h-20l-210 -595h-120l-210 595h-20v-595z" />
    <glyph glyph-name="uni041D" unicode="&#x41d;" horiz-adv-x="710" 
d="M160 0h-80v700h80v-310h390v310h80v-700h-80v315h-390v-315z" />
    <glyph glyph-name="uni041E" unicode="&#x41e;" horiz-adv-x="770" 
d="M216 35.5q-77 45.5 -121.5 127.5t-44.5 187t44.5 187t121.5 127.5t169 45.5t169 -45.5t121.5 -127.5t44.5 -187t-44.5 -187t-121.5 -127.5t-169 -45.5t-169 45.5zM513.5 101q58.5 36 92.5 101t34 148t-34 148t-92.5 101t-128.5 36t-128.5 -36t-92.5 -101t-34 -148
t34 -148t92.5 -101t128.5 -36t128.5 36z" />
    <glyph glyph-name="uni041F" unicode="&#x41f;" horiz-adv-x="710" 
d="M160 0h-80v700h550v-700h-80v625h-390v-625z" />
    <glyph glyph-name="uni0420" unicode="&#x420;" horiz-adv-x="635" 
d="M80 0v700h305q55 0 100.5 -28t72.5 -77t27 -110t-27 -110t-72.5 -77t-100.5 -28h-225v-270h-80zM385 345q50 0 85 39t35 101t-35 101t-85 39h-225v-280h225z" />
    <glyph glyph-name="uni0421" unicode="&#x421;" horiz-adv-x="730" 
d="M216 35.5q-77 45.5 -121.5 127.5t-44.5 187t44.5 187t121.5 127.5t169 45.5q113 0 196.5 -63t113.5 -172h-85q-26 75 -86 117.5t-139 42.5q-70 0 -128.5 -36t-92.5 -101t-34 -148t34 -148t92.5 -101t128.5 -36q79 0 139 43.5t86 121.5h85q-30 -112 -113.5 -176
t-196.5 -64q-92 0 -169 45.5z" />
    <glyph glyph-name="uni0422" unicode="&#x422;" horiz-adv-x="590" 
d="M335 0h-80v625h-230v75h540v-75h-230v-625z" />
    <glyph glyph-name="uni0423" unicode="&#x423;" horiz-adv-x="610" 
d="M515 700h85l-285 -630q-15 -33 -42 -51.5t-73 -18.5h-100v75h95q22 0 34.5 7.5t20.5 27.5l20 45l-260 545h85l205 -435h20z" />
    <glyph glyph-name="uni0424" unicode="&#x424;" horiz-adv-x="800" 
d="M455 630q93 0 162 -35t106 -96t37 -139t-37 -139t-106 -96t-162 -35h-15v-110h-80v110h-15q-93 0 -162 35t-106 96t-37 139t37 139t106 96t162 35h15v90h80v-90h15zM147.5 257q27.5 -45 78 -71t119.5 -26h15v400h-15q-69 0 -119.5 -26t-78 -71t-27.5 -103t27.5 -103z
M455 160q69 0 119.5 26t78 71t27.5 103t-27.5 103t-78 71t-119.5 26h-15v-400h15z" />
    <glyph glyph-name="uni0425" unicode="&#x425;" horiz-adv-x="620" 
d="M101 0h-91l245 360l-230 340h90l185 -275h20l185 275h90l-230 -340l245 -360h-91l-199 295h-20z" />
    <glyph glyph-name="uni0426" unicode="&#x426;" horiz-adv-x="715" 
d="M685 -140h-80v140h-525v700h80v-625h370v625h80v-625h75v-215z" />
    <glyph glyph-name="uni0427" unicode="&#x427;" horiz-adv-x="665" 
d="M505 300q-30 -25 -83.5 -45t-111.5 -20q-124 0 -184.5 61.5t-60.5 188.5v215h80v-215q0 -89 41 -132t124 -43q62 0 115 21.5t80 48.5v320h80v-700h-80v300z" />
    <glyph glyph-name="uni0428" unicode="&#x428;" horiz-adv-x="950" 
d="M870 0h-790v700h80v-625h275v625h80v-625h275v625h80v-700z" />
    <glyph glyph-name="uni0429" unicode="&#x429;" horiz-adv-x="975" 
d="M945 -140h-80v140h-785v700h80v-625h275v625h80v-625h275v625h80v-625h75v-215z" />
    <glyph glyph-name="uni042A" unicode="&#x42a;" horiz-adv-x="695" 
d="M165 0v625h-155v75h235v-260h200q57 0 104 -29t74 -79.5t27 -111.5t-27 -111.5t-74 -79.5t-104 -29h-280zM445 75q53 0 89 41t36 104t-36 104t-89 41h-200v-290h200z" />
    <glyph glyph-name="uni042B" unicode="&#x42b;" horiz-adv-x="795" 
d="M80 0v700h80v-260h190q57 0 104 -29t74 -79.5t27 -111.5t-27 -111.5t-74 -79.5t-104 -29h-270zM715 0h-80v700h80v-700zM350 75q53 0 89 41t36 104t-36 104t-89 41h-190v-290h190z" />
    <glyph glyph-name="uni042C" unicode="&#x42c;" horiz-adv-x="620" 
d="M80 0v700h80v-260h210q57 0 104 -29t74 -79.5t27 -111.5t-27 -111.5t-74 -79.5t-104 -29h-290zM370 75q53 0 89 41t36 104t-36 104t-89 41h-210v-290h210z" />
    <glyph glyph-name="uni042D" unicode="&#x42d;" horiz-adv-x="730" 
d="M206 18.5q-64 28.5 -109 82t-62 124.5h85q26 -75 86 -117.5t139 -42.5q65 0 120.5 31.5t90 88.5t39.5 130h-340v75h340q-5 71 -39.5 127t-90 87t-120.5 31q-78 0 -138.5 -41.5t-86.5 -113.5h-85q20 69 65.5 121t109 80.5t135.5 28.5q92 0 169 -45.5t121.5 -127.5
t44.5 -187t-44.5 -187t-121.5 -127.5t-169 -45.5q-75 0 -139 28.5z" />
    <glyph glyph-name="uni042E" unicode="&#x42e;" horiz-adv-x="950" 
d="M433.5 31q-69.5 41 -113 114.5t-50.5 169.5h-110v-315h-80v700h80v-310h110q10 96 53.5 168.5t111.5 112t150 39.5q87 0 159 -45.5t114 -127.5t42 -187t-42 -187t-114 -127.5t-159 -45.5q-82 0 -151.5 41zM704 100q54 35 85 100t31 150t-31 150t-85 100t-119 35t-119 -35
t-85 -100t-31 -150t31 -150t85 -100t119 -35t119 35z" />
    <glyph glyph-name="uni042F" unicode="&#x42f;" horiz-adv-x="640" 
d="M560 700v-700h-80v270h-70l-270 -270h-100l270 270h-55q-55 0 -100.5 28t-72.5 77t-27 110t27 110t72.5 77t100.5 28h305zM480 345v280h-225q-50 0 -85 -39t-35 -101t35 -101t85 -39h225z" />
    <glyph glyph-name="uni0430" unicode="&#x430;" horiz-adv-x="530" 
d="M98.5 33.5q-48.5 43.5 -48.5 111.5q0 75 49.5 117.5t150.5 42.5h135v15q0 56 -32 88t-88 32q-54 0 -87.5 -24.5t-37.5 -60.5h-75q3 41 27 76.5t68.5 57t104.5 21.5q91 0 143 -50.5t52 -139.5v-320h-65l-10 60h-5q-17 -27 -58.5 -48.5t-96.5 -21.5q-78 0 -126.5 43.5z
M342.5 101.5q42.5 41.5 42.5 113.5v20h-135q-64 0 -94.5 -25t-30.5 -65q0 -38 26 -61.5t74 -23.5q75 0 117.5 41.5z" />
    <glyph glyph-name="uni0431" unicode="&#x431;" horiz-adv-x="555" 
d="M159.5 22q-53.5 32 -84 91t-30.5 137v30q0 130 32 208.5t108 121.5q34 19 72 28t96 15q35 4 50.5 21.5t16.5 50.5h65q-1 -63 -31.5 -97.5t-94.5 -40.5q-45 -4 -78.5 -12.5t-60.5 -24.5q-87 -52 -100 -165h5q60 80 165 80q62 0 113.5 -30.5t81.5 -84.5t30 -120
q0 -69 -30.5 -123.5t-84 -85.5t-120.5 -31t-120.5 32zM361.5 81.5q36.5 21.5 57.5 60.5t21 88t-21 88t-57.5 60.5t-81.5 21.5t-81.5 -21.5t-57.5 -60.5t-21 -88t21 -88t57.5 -60.5t81.5 -21.5t81.5 21.5z" />
    <glyph glyph-name="uni0432" unicode="&#x432;" horiz-adv-x="520" 
d="M70 0v500h260q64 0 102 -38t38 -102q0 -38 -18.5 -65.5t-41.5 -39.5v-5q27 -10 48.5 -38t21.5 -70q0 -61 -40 -101.5t-100 -40.5h-270zM320 285q31 0 53 21t22 54t-22 54t-53 21h-175v-150h175zM330 65q31 0 53 21.5t22 55.5q0 35 -22 56.5t-53 21.5h-185v-155h185z" />
    <glyph glyph-name="uni0433" unicode="&#x433;" horiz-adv-x="410" 
d="M145 0h-75v500h320v-70h-245v-430z" />
    <glyph glyph-name="uni0434" unicode="&#x434;" horiz-adv-x="535" 
d="M0 -120v190h10q34 0 50.5 16.5t19.5 53.5l30 360h335v-430h70v-190h-75v120h-365v-120h-75zM370 70v360h-190l-25 -290q-2 -27 -9.5 -46t-15.5 -24h240z" />
    <glyph glyph-name="uni0435" unicode="&#x435;" horiz-adv-x="550" 
d="M158 23q-55 33 -86.5 92t-31.5 135t31.5 135t86.5 92t122 33q64 0 117 -31t83 -85.5t30 -123.5q0 -40 -5 -55h-390q7 -70 54 -112.5t111 -42.5q45 0 80.5 21t54.5 59h80q-26 -72 -81.5 -111t-133.5 -39q-67 0 -122 33zM435 285q-4 68 -47.5 111.5t-107.5 43.5
q-67 0 -112 -43.5t-53 -111.5h320z" />
    <glyph glyph-name="uni0436" unicode="&#x436;" horiz-adv-x="645" 
d="M90 0h-90l205 255l-190 245h90l180 -235v235h75v-235l180 235h90l-190 -245l205 -255h-90l-195 245v-245h-75v245z" />
    <glyph glyph-name="uni0437" unicode="&#x437;" horiz-adv-x="460" 
d="M122.5 12q-44.5 22 -68.5 60t-24 83h75q0 -39 33 -67t87 -28q61 0 90.5 22t29.5 58q0 35 -30.5 57.5t-84.5 22.5h-45v65h45q51 0 78 22.5t27 57.5q0 32 -28.5 53.5t-81.5 21.5q-51 0 -80.5 -25.5t-29.5 -64.5h-75q0 45 23.5 81.5t65.5 57.5t96 21q87 0 136 -41.5
t49 -104.5q0 -42 -25 -70.5t-55 -38.5v-5q37 -8 63.5 -38t26.5 -73q0 -65 -52 -107t-143 -42q-58 0 -102.5 22z" />
    <glyph glyph-name="uni0438" unicode="&#x438;" horiz-adv-x="555" 
d="M200 0h-130v500h75v-410h20l190 410h130v-500h-75v410h-20z" />
    <glyph glyph-name="uni0439" unicode="&#x439;" horiz-adv-x="555" 
d="M200 0h-130v500h75v-410h20l190 410h130v-500h-75v410h-20zM183.5 619.5q-39.5 34.5 -43.5 90.5h65q4 -33 24 -51.5t51 -18.5t51 18.5t24 51.5h65q-4 -56 -43.5 -90.5t-96.5 -34.5t-96.5 34.5z" />
    <glyph glyph-name="uni043A" unicode="&#x43a;" horiz-adv-x="475" 
d="M145 0h-75v500h75v-230l224 230h96l-240 -245l250 -255h-96l-234 240v-240z" />
    <glyph glyph-name="uni043B" unicode="&#x43b;" horiz-adv-x="540" 
d="M10 -5v75h30q28 0 45 17t20 53l30 360h335v-500h-75v430h-190l-25 -290q-7 -74 -41.5 -109.5t-98.5 -35.5h-30z" />
    <glyph glyph-name="uni043C" unicode="&#x43c;" horiz-adv-x="710" 
d="M145 0h-75v500h140l135 -415h20l135 415h140v-500h-75v410h-20l-135 -410h-110l-135 410h-20v-410z" />
    <glyph glyph-name="uni043D" unicode="&#x43d;" horiz-adv-x="555" 
d="M145 0h-75v500h75v-215h265v215h75v-500h-75v215h-265v-215z" />
    <glyph glyph-name="uni043E" unicode="&#x43e;" 
d="M158 23q-55 33 -86.5 92t-31.5 135t31.5 135t86.5 92t122 33t122 -33t86.5 -92t31.5 -135t-31.5 -135t-86.5 -92t-122 -33t-122 33zM363 83.5q38 23.5 60 67t22 99.5t-22 99.5t-60 67t-83 23.5t-83 -23.5t-60 -67t-22 -99.5t22 -99.5t60 -67t83 -23.5t83 23.5z" />
    <glyph glyph-name="uni043F" unicode="&#x43f;" horiz-adv-x="555" 
d="M145 0h-75v500h415v-500h-75v430h-265v-430z" />
    <glyph glyph-name="uni0440" unicode="&#x440;" horiz-adv-x="580" 
d="M70 -200v700h65l10 -70h5q31 39 70 59.5t90 20.5q65 0 117.5 -33t82.5 -92t30 -135t-30 -135t-82.5 -92t-117.5 -33q-51 0 -90 20.5t-70 59.5h-5v-270h-75zM384.5 84q36.5 24 58.5 67t22 99t-22 99t-58.5 67t-79.5 24t-79.5 -24t-58.5 -67t-22 -99t22 -99t58.5 -67
t79.5 -24t79.5 24z" />
    <glyph glyph-name="uni0441" unicode="&#x441;" horiz-adv-x="535" 
d="M158 23q-55 33 -86.5 92t-31.5 135t31.5 135t86.5 92t122 33q83 0 142 -45.5t78 -124.5h-75q-15 48 -53.5 74t-91.5 26q-45 0 -83 -23.5t-60 -67t-22 -99.5t22 -99.5t60 -67t83 -23.5q54 0 92 27t53 78h75q-19 -82 -78 -128.5t-142 -46.5q-67 0 -122 33z" />
    <glyph glyph-name="uni0442" unicode="&#x442;" horiz-adv-x="445" 
d="M260 0h-75v430h-170v70h415v-70h-170v-430z" />
    <glyph glyph-name="uni0443" unicode="&#x443;" horiz-adv-x="495" 
d="M405 500h80l-225 -630q-13 -36 -34 -53t-61 -17h-100v70h95q25 0 35 30l20 60l-205 540h80l155 -415h20z" />
    <glyph glyph-name="uni0444" unicode="&#x444;" horiz-adv-x="685" 
d="M395 500q77 0 134.5 -31t89 -88t31.5 -131t-31.5 -131t-89 -88t-134.5 -31h-15v-200h-75v200h-15q-77 0 -134.5 31t-89 88t-31.5 131t31.5 131t89 88t134.5 31h15v200h75v-200h15zM157.5 118.5q47.5 -48.5 132.5 -48.5h15v360h-15q-85 0 -132.5 -48.5t-47.5 -131.5
t47.5 -131.5zM395 70q85 0 132.5 48.5t47.5 131.5t-47.5 131.5t-132.5 48.5h-15v-360h15z" />
    <glyph glyph-name="uni0445" unicode="&#x445;" horiz-adv-x="480" 
d="M100 0h-90l170 255l-165 245h90l125 -190h20l125 190h90l-165 -245l170 -255h-90l-130 200h-20z" />
    <glyph glyph-name="uni0446" unicode="&#x446;" horiz-adv-x="565" 
d="M545 -120h-75v120h-400v500h75v-430h255v430h75v-430h70v-190z" />
    <glyph glyph-name="uni0447" unicode="&#x447;" horiz-adv-x="520" 
d="M375 195q-33 -22 -67.5 -31t-77.5 -9q-90 0 -135 48t-45 142v155h75v-155q0 -60 29 -90t86 -30q40 0 72 11t63 34v230h75v-500h-75v195z" />
    <glyph glyph-name="uni0448" unicode="&#x448;" horiz-adv-x="775" 
d="M705 0h-635v500h75v-430h205v430h75v-430h205v430h75v-500z" />
    <glyph glyph-name="uni0449" unicode="&#x449;" horiz-adv-x="795" 
d="M775 -120h-75v120h-630v500h75v-430h205v430h75v-430h205v430h75v-430h70v-190z" />
    <glyph glyph-name="uni044A" unicode="&#x44a;" 
d="M135 0v430h-125v70h200v-170h150q49 0 88 -21.5t60.5 -59t21.5 -84.5t-21.5 -84.5t-60.5 -59t-88 -21.5h-225zM360 70q41 0 68 27t27 68t-27 68t-68 27h-150v-190h150z" />
    <glyph glyph-name="uni044B" unicode="&#x44b;" horiz-adv-x="670" 
d="M70 0v500h75v-170h135q49 0 88 -21.5t60.5 -59t21.5 -84.5t-21.5 -84.5t-60.5 -59t-88 -21.5h-210zM600 0h-75v500h75v-500zM280 70q41 0 68 27t27 68t-27 68t-68 27h-135v-190h135z" />
    <glyph glyph-name="uni044C" unicode="&#x44c;" horiz-adv-x="500" 
d="M70 0v500h75v-170h155q49 0 88 -21.5t60.5 -59t21.5 -84.5t-21.5 -84.5t-60.5 -59t-88 -21.5h-230zM300 70q41 0 68 27t27 68t-27 68t-68 27h-155v-190h155z" />
    <glyph glyph-name="uni044D" unicode="&#x44d;" horiz-adv-x="535" 
d="M113 35.5q-59 45.5 -78 124.5h75q15 -47 55 -73.5t90 -26.5q65 0 111.5 42.5t53.5 112.5h-225v70h225q-7 70 -53.5 112.5t-111.5 42.5q-50 0 -90 -25.5t-55 -69.5h-75q19 75 78.5 120t141.5 45q67 0 122 -33t86.5 -92t31.5 -135t-31.5 -135t-86.5 -92t-122 -33
q-83 0 -142 45.5z" />
    <glyph glyph-name="uni044E" unicode="&#x44e;" horiz-adv-x="720" 
d="M340.5 18q-49.5 28 -81.5 79t-39 118h-75v-215h-75v500h75v-215h75q7 67 39 118t81.5 79t109.5 28q65 0 117.5 -33t82.5 -92t30 -135t-30 -135t-82.5 -92t-117.5 -33q-60 0 -109.5 28zM528 83.5q35 23.5 56 67t21 99.5t-21 99.5t-56 67t-78 23.5t-78 -23.5t-56 -67
t-21 -99.5t21 -99.5t56 -67t78 -23.5t78 23.5z" />
    <glyph glyph-name="uni044F" unicode="&#x44f;" horiz-adv-x="510" 
d="M440 500v-500h-75v180h-60l-180 -180h-95l180 180h-5q-72 0 -118.5 44.5t-46.5 115.5t46.5 115.5t118.5 44.5h235zM365 250v180h-160q-38 0 -64 -25t-26 -65t26 -65t64 -25h160z" />
    <glyph glyph-name="uni0450" unicode="&#x450;" horiz-adv-x="550" 
d="M158 23q-55 33 -86.5 92t-31.5 135t31.5 135t86.5 92t122 33q64 0 117 -31t83 -85.5t30 -123.5q0 -40 -5 -55h-390q7 -70 54 -112.5t111 -42.5q45 0 80.5 21t54.5 59h80q-26 -72 -81.5 -111t-133.5 -39q-67 0 -122 33zM435 285q-4 68 -47.5 111.5t-107.5 43.5
q-67 0 -112 -43.5t-53 -111.5h320zM315 580h-70l-115 140h90z" />
    <glyph glyph-name="uni0451" unicode="&#x451;" horiz-adv-x="550" 
d="M158 23q-55 33 -86.5 92t-31.5 135t31.5 135t86.5 92t122 33q64 0 117 -31t83 -85.5t30 -123.5q0 -40 -5 -55h-390q7 -70 54 -112.5t111 -42.5q45 0 80.5 21t54.5 59h80q-26 -72 -81.5 -111t-133.5 -39q-67 0 -122 33zM435 285q-4 68 -47.5 111.5t-107.5 43.5
q-67 0 -112 -43.5t-53 -111.5h320zM230 605h-85v85h85v-85zM405 605h-85v85h85v-85z" />
    <glyph glyph-name="uni0452" unicode="&#x452;" horiz-adv-x="585" 
d="M300 -200v70h50q90 0 90 90v290q0 39 -18 71t-49 50.5t-68 18.5q-39 0 -72.5 -19.5t-53 -51.5t-19.5 -69v-250h-75v550h-85v70h85v80h75v-80h160v-70h-160v-155h5q20 25 60 45t90 20q57 0 102.5 -26.5t71.5 -74.5t26 -109v-290q0 -75 -43.5 -117.5t-121.5 -42.5h-50z" />
    <glyph glyph-name="uni0453" unicode="&#x453;" horiz-adv-x="410" 
d="M145 0h-75v500h320v-70h-245v-430zM265 580h-70l95 140h90z" />
    <glyph glyph-name="uni0454" unicode="&#x454;" horiz-adv-x="535" 
d="M158 23q-55 33 -86.5 92t-31.5 135t31.5 135t86.5 92t122 33q82 0 141.5 -45t78.5 -120h-75q-15 44 -55 69.5t-90 25.5q-65 0 -111.5 -42.5t-53.5 -112.5h225v-70h-225q7 -70 53.5 -112.5t111.5 -42.5q50 0 90 26.5t55 73.5h75q-19 -79 -78 -124.5t-142 -45.5
q-67 0 -122 33z" />
    <glyph glyph-name="uni0455" unicode="&#x455;" horiz-adv-x="460" 
d="M124.5 11.5q-45.5 21.5 -70 57t-24.5 76.5h75q0 -35 33.5 -60t91.5 -25q57 0 88.5 21.5t31.5 53.5q0 30 -20.5 48.5t-64.5 26.5l-85 15q-140 24 -140 140q0 63 47.5 104t137.5 41q58 0 102.5 -21.5t68.5 -57.5t24 -76h-75q0 35 -33 60t-87 25q-53 0 -81.5 -21.5
t-28.5 -53.5q0 -28 18.5 -45t61.5 -25l85 -15q75 -13 110 -49t35 -96q0 -63 -50.5 -104t-144.5 -41q-60 0 -105.5 21.5z" />
    <glyph glyph-name="uni0456" unicode="&#x456;" horiz-adv-x="215" 
d="M145 0h-75v500h75v-500zM151 605h-85v85h85v-85z" />
    <glyph glyph-name="uni0457" unicode="&#x457;" horiz-adv-x="215" 
d="M145 0h-75v500h75v-500zM73 605h-85v85h85v-85zM228 605h-85v85h85v-85z" />
    <glyph glyph-name="uni0458" unicode="&#x458;" horiz-adv-x="215" 
d="M-35 -200v70h75q30 0 30 30v600h75v-615q0 -38 -24.5 -61.5t-65.5 -23.5h-90zM151 605h-85v85h85v-85z" />
    <glyph glyph-name="uni0459" unicode="&#x459;" horiz-adv-x="780" 
d="M10 -5v75h30q28 0 45 17t20 53l30 360h325v-200h135q68 0 111.5 -41.5t43.5 -108.5t-43.5 -108.5t-111.5 -41.5h-210v430h-180l-25 -290q-7 -74 -41.5 -109.5t-98.5 -35.5h-30zM595 70q35 0 57.5 21.5t22.5 58.5t-22.5 58.5t-57.5 21.5h-135v-160h135z" />
    <glyph glyph-name="uni045A" unicode="&#x45a;" horiz-adv-x="785" 
d="M70 0v500h75v-200h245v200h75v-200h135q68 0 111.5 -41.5t43.5 -108.5t-43.5 -108.5t-111.5 -41.5h-210v230h-245v-230h-75zM600 70q35 0 57.5 21.5t22.5 58.5t-22.5 58.5t-57.5 21.5h-135v-160h135z" />
    <glyph glyph-name="uni045B" unicode="&#x45b;" horiz-adv-x="585" 
d="M85 0v550h-85v70h85v80h75v-80h160v-70h-160v-155h5q20 25 60 45t90 20q57 0 102.5 -26.5t71.5 -74.5t26 -109v-250h-75v250q0 39 -18 71t-49 50.5t-68 18.5q-39 0 -72.5 -19.5t-53 -51.5t-19.5 -69v-250h-75z" />
    <glyph glyph-name="uni045C" unicode="&#x45c;" horiz-adv-x="475" 
d="M145 0h-75v500h75v-230l224 230h96l-240 -245l250 -255h-96l-234 240v-240zM285 580h-70l95 140h90z" />
    <glyph glyph-name="uni045D" unicode="&#x45d;" horiz-adv-x="555" 
d="M200 0h-130v500h75v-410h20l190 410h130v-500h-75v410h-20zM320 580h-70l-115 140h90z" />
    <glyph glyph-name="uni045E" unicode="&#x45e;" horiz-adv-x="495" 
d="M405 500h80l-225 -630q-13 -36 -34 -53t-61 -17h-100v70h95q25 0 35 30l20 60l-205 540h80l155 -415h20zM158.5 619.5q-39.5 34.5 -43.5 90.5h65q4 -33 24 -51.5t51 -18.5t51 18.5t24 51.5h65q-4 -56 -43.5 -90.5t-96.5 -34.5t-96.5 34.5z" />
    <glyph glyph-name="uni045F" unicode="&#x45f;" horiz-adv-x="545" 
d="M310 -120h-75v120h-165v500h75v-430h255v430h75v-500h-165v-120z" />
    <glyph glyph-name="uni0462" unicode="&#x462;" horiz-adv-x="680" 
d="M150 0v535h-150v75h150v90h80v-90h190v-75h-190v-125h205q56 0 102 -27t72 -74t26 -104t-26 -104t-72 -74t-102 -27h-285zM435 75q52 0 86 37t34 93q0 57 -33.5 93.5t-86.5 36.5h-205v-260h205z" />
    <glyph glyph-name="uni0463" unicode="&#x463;" horiz-adv-x="540" 
d="M115 0v450h-115v70h115v180h75v-180h145v-70h-145v-120h150q49 0 88 -21.5t60.5 -59t21.5 -84.5t-21.5 -84.5t-60.5 -59t-88 -21.5h-225zM340 70q41 0 68 27t27 68t-27 68t-68 27h-150v-190h150z" />
    <glyph glyph-name="uni046A" unicode="&#x46a;" horiz-adv-x="780" 
d="M45 60q0 93 32 164t89.5 114.5t133.5 56.5l-235 230v75h650v-75l-235 -230q76 -13 133.5 -56.5t89.5 -114.5t32 -164v-60h-80v60q0 83 -29 143t-79.5 91t-116.5 31v-325h-80v325q-66 0 -116.5 -31t-79.5 -91t-29 -143v-60h-80v60zM165 625l225 -220l225 220h-450z" />
    <glyph glyph-name="uni046B" unicode="&#x46b;" horiz-adv-x="615" 
d="M30 0q0 113 53.5 186t139.5 89l-158 155v70h485v-70l-158 -155q86 -16 139.5 -89t53.5 -186h-75q0 65 -22 112.5t-59.5 72.5t-83.5 25v-210h-75v210q-46 0 -83.5 -25t-59.5 -72.5t-22 -112.5h-75zM155 430l152 -152l153 152h-305z" />
    <glyph glyph-name="uni0472" unicode="&#x472;" horiz-adv-x="770" 
d="M216 35.5q-77 45.5 -121.5 127.5t-44.5 187t44.5 187t121.5 127.5t169 45.5t169 -45.5t121.5 -127.5t44.5 -187t-44.5 -187t-121.5 -127.5t-169 -45.5t-169 45.5zM638 386q-7 74 -42.5 130.5t-90.5 87.5t-120 31q-64 0 -119 -30.5t-90.5 -86.5t-43.5 -129q44 21 113 21
q34 0 65.5 -5.5t81.5 -17.5q46 -11 75 -16.5t58 -5.5q66 0 113 21zM504 96q55 31 90.5 86.5t43.5 128.5q-44 -21 -113 -21q-34 0 -65.5 5.5t-81.5 17.5q-46 11 -75 16.5t-58 5.5q-69 0 -113 -21q7 -74 42.5 -130.5t90.5 -87.5t120 -31q64 0 119 31z" />
    <glyph glyph-name="uni0473" unicode="&#x473;" 
d="M158 23q-55 33 -86.5 92t-31.5 135t31.5 135t86.5 92t122 33t122 -33t86.5 -92t31.5 -135t-31.5 -135t-86.5 -92t-122 -33t-122 33zM195 295q31 0 85 -10q56 -10 85 -10q42 0 78 12q-10 69 -56 111t-107 42q-63 0 -108.5 -43t-54.5 -115q35 13 78 13zM388.5 103
q45.5 43 54.5 115q-35 -13 -78 -13q-29 0 -85 10q-54 10 -85 10q-40 0 -78 -12q10 -69 56 -111t107 -42q63 0 108.5 43z" />
    <glyph glyph-name="uni0474" unicode="&#x474;" horiz-adv-x="680" 
d="M265 0l-255 700h85l220 -615h20l172 480q27 75 59 107.5t81 32.5q15 0 27.5 -3t17.5 -7v-75q-15 10 -35 10q-22 0 -37.5 -15.5t-27.5 -49.5l-207 -565h-120z" />
    <glyph glyph-name="uni0475" unicode="&#x475;" horiz-adv-x="520" 
d="M190 0l-180 500h80l150 -420h20l112 310q22 60 50.5 87.5t69.5 27.5q15 0 25.5 -3t14.5 -7v-67q-9 7 -30 7q-34 0 -50 -45l-142 -390h-120z" />
    <glyph glyph-name="uni048A" unicode="&#x48a;" horiz-adv-x="730" 
d="M258.5 814.5q-39.5 34.5 -43.5 90.5h65q4 -33 24 -51.5t51 -18.5t51 18.5t24 51.5h65q-4 -56 -43.5 -90.5t-96.5 -34.5t-96.5 34.5zM660 -140h-60l25 140h-75v605h-20l-315 -605h-135v700h80v-605h20l315 605h135v-625h100v-11z" />
    <glyph glyph-name="uni048B" unicode="&#x48b;" horiz-adv-x="575" 
d="M183.5 619.5q-39.5 34.5 -43.5 90.5h65q4 -33 24 -51.5t51 -18.5t51 18.5t24 51.5h65q-4 -56 -43.5 -90.5t-96.5 -34.5t-96.5 34.5zM515 -120h-55l20 120h-70v410h-20l-190 -410h-130v500h75v-410h20l190 410h130v-430h90v-12z" />
    <glyph glyph-name="uni048C" unicode="&#x48c;" horiz-adv-x="680" 
d="M150 0v535h-150v75h150v90h80v-90h190v-75h-190v-125h205q56 0 102 -27t72 -74t26 -104t-26 -104t-72 -74t-102 -27h-285zM435 75q52 0 86 37t34 93q0 57 -33.5 93.5t-86.5 36.5h-205v-260h205z" />
    <glyph glyph-name="uni048D" unicode="&#x48d;" horiz-adv-x="540" 
d="M115 0v450h-115v70h115v180h75v-180h145v-70h-145v-120h150q49 0 88 -21.5t60.5 -59t21.5 -84.5t-21.5 -84.5t-60.5 -59t-88 -21.5h-225zM340 70q41 0 68 27t27 68t-27 68t-68 27h-150v-190h150z" />
    <glyph glyph-name="uni048E" unicode="&#x48e;" horiz-adv-x="635" 
d="M564.5 388q-20.5 -44 -55.5 -73l46 -65l-60 -40l-49 70q-27 -10 -61 -10h-225v-270h-80v700h305q55 0 100.5 -28t72.5 -77t27 -110q0 -53 -20.5 -97zM385 345q9 0 14 1l-49 69l60 40l54 -77q19 19 30 46t11 61q0 62 -35 101t-85 39h-225v-280h225z" />
    <glyph glyph-name="uni048F" unicode="&#x48f;" horiz-adv-x="580" 
d="M522 143.5q-18 -48.5 -50 -83.5l53 -75l-55 -35l-49 69q-50 -29 -111 -29q-51 0 -90 20.5t-70 59.5h-5v-270h-75v700h65l10 -70h5q31 39 70 59.5t90 20.5q65 0 117.5 -33t82.5 -92t30 -135q0 -58 -18 -106.5zM378 80l-53 75l55 35l47 -66q38 53 38 126q0 56 -22 99
t-58.5 67t-79.5 24t-79.5 -24t-58.5 -67t-22 -99t22 -99t58.5 -67t79.5 -24q39 0 73 20z" />
    <glyph glyph-name="uni0490" unicode="&#x490;" horiz-adv-x="540" 
d="M160 0h-80v700h365v140h75v-215h-360v-625z" />
    <glyph glyph-name="uni0491" unicode="&#x491;" horiz-adv-x="425" 
d="M145 0h-75v500h265v120h70v-190h-260v-430z" />
    <glyph glyph-name="uni0492" unicode="&#x492;" horiz-adv-x="555" 
d="M185 0h-80v315h-95v75h95v310h430v-75h-350v-235h195v-75h-195v-315z" />
    <glyph glyph-name="uni0493" unicode="&#x493;" horiz-adv-x="425" 
d="M160 0h-75v215h-75v70h75v215h320v-70h-245v-145h175v-70h-175v-215z" />
    <glyph glyph-name="uni0494" unicode="&#x494;" horiz-adv-x="615" 
d="M315 -40q79 0 127 49t48 131t-48 131t-127 49q-47 0 -89.5 -15.5t-65.5 -34.5v-270h-80v700h440v-75h-360v-270q23 15 66.5 27.5t93.5 12.5q74 0 131 -31.5t88 -89t31 -134.5t-31.5 -134.5t-89 -89t-134.5 -31.5v75z" />
    <glyph glyph-name="uni0495" unicode="&#x495;" horiz-adv-x="500" 
d="M260 -130q65 4 100 46.5t35 123.5q0 77 -37 121t-98 44q-35 0 -66.5 -12.5t-48.5 -27.5v-165h-75v500h320v-70h-245v-190q17 13 49.5 24t70.5 11q60 0 106.5 -28.5t72.5 -82t26 -124.5q0 -74 -26.5 -128t-74 -83t-109.5 -29v70z" />
    <glyph glyph-name="uni0496" unicode="&#x496;" horiz-adv-x="805" 
d="M805 -140h-80v140h-20l-265 345v-345h-80v345l-265 -345h-95l275 355l-255 345h95l245 -330v330h80v-330l245 330h95l-255 -345l215 -280h65v-215z" />
    <glyph glyph-name="uni0497" unicode="&#x497;" horiz-adv-x="650" 
d="M650 -120h-75v120h-20l-195 245v-245h-75v245l-195 -245h-90l205 255l-190 245h90l180 -235v235h75v-235l180 235h90l-190 -245l150 -185h60v-190z" />
    <glyph glyph-name="uni0498" unicode="&#x498;" horiz-adv-x="595" 
d="M519.5 97q-25.5 -43 -74.5 -70.5t-115 -34.5v-132h-80v132q-66 7 -115 34.5t-74.5 70.5t-25.5 93h80q0 -33 20.5 -61.5t60 -46t94.5 -17.5q53 0 93 17.5t61 46t21 61.5t-19 61.5t-53 46t-78 17.5h-70v75h70q59 0 97 35t38 85q0 54 -43.5 89.5t-116.5 35.5
q-48 0 -84.5 -17.5t-56 -46t-19.5 -61.5h-80q0 55 29 101t83.5 72.5t127.5 26.5q72 0 127 -27.5t84 -73.5t29 -99q0 -60 -34 -101t-76 -54v-5q48 -13 86.5 -55.5t38.5 -104.5q0 -50 -25.5 -93z" />
    <glyph glyph-name="uni0499" unicode="&#x499;" horiz-adv-x="460" 
d="M379.5 41.5q-40.5 -39.5 -114.5 -49.5v-112h-75v112q-73 10 -116.5 55.5t-43.5 107.5h75q0 -39 33 -67t87 -28q61 0 90.5 22t29.5 58q0 35 -30.5 57.5t-84.5 22.5h-45v65h45q51 0 78 22.5t27 57.5q0 32 -28.5 53.5t-81.5 21.5q-51 0 -80.5 -25.5t-29.5 -64.5h-75
q0 45 23.5 81.5t65.5 57.5t96 21q87 0 136 -41.5t49 -104.5q0 -42 -25 -70.5t-55 -38.5v-5q37 -8 63.5 -38t26.5 -73q0 -58 -40.5 -97.5z" />
    <glyph glyph-name="uni049A" unicode="&#x49a;" horiz-adv-x="570" 
d="M570 -140h-80v140h-15l-315 340v-340h-80v700h80v-330l295 330h100l-310 -345l261 -280h64v-215z" />
    <glyph glyph-name="uni049B" unicode="&#x49b;" horiz-adv-x="465" 
d="M465 -120h-75v120h-10l-235 240v-240h-75v500h75v-230l225 230h95l-240 -245l182 -185h58v-190z" />
    <glyph glyph-name="uni049C" unicode="&#x49c;" horiz-adv-x="615" 
d="M160 0h-80v700h80v-310h50v120h75v-120h35l200 310h95l-230 -345l250 -355h-95l-220 315h-35v-120h-75v120h-50v-315z" />
    <glyph glyph-name="uni049D" unicode="&#x49d;" horiz-adv-x="510" 
d="M145 0h-75v500h75v-210h39v90h65v-90h26l135 210h90l-160 -245l170 -255h-90l-145 220h-26v-90h-65v90h-39v-220z" />
    <glyph glyph-name="uni049E" unicode="&#x49e;" horiz-adv-x="575" 
d="M180 0h-80v545h-100v75h100v80h80v-80h85v-75h-85v-175l295 330h100l-310 -345l330 -355h-100l-315 340v-340z" />
    <glyph glyph-name="uni049F" unicode="&#x49f;" horiz-adv-x="490" 
d="M160 0h-75v550h-85v70h85v80h75v-80h120v-70h-120v-280l225 230h95l-240 -245l250 -255h-95l-235 240v-240z" />
    <glyph glyph-name="uni04A0" unicode="&#x4a0;" horiz-adv-x="595" 
d="M200 0h-80v625h-120v75h200v-330l295 330h100l-310 -345l330 -355h-100l-315 340v-340z" />
    <glyph glyph-name="uni04A1" unicode="&#x4a1;" horiz-adv-x="510" 
d="M180 0h-75v430h-105v70h180v-230l225 230h95l-240 -245l250 -255h-95l-235 240v-240z" />
    <glyph glyph-name="uni04A2" unicode="&#x4a2;" horiz-adv-x="735" 
d="M705 -140h-80v140h-75v315h-390v-315h-80v700h80v-310h390v310h80v-625h75v-215z" />
    <glyph glyph-name="uni04A3" unicode="&#x4a3;" horiz-adv-x="575" 
d="M555 -120h-75v120h-70v215h-265v-215h-75v500h75v-215h265v215h75v-430h70v-190z" />
    <glyph glyph-name="uni04A4" unicode="&#x4a4;" horiz-adv-x="970" 
d="M160 0h-80v700h80v-310h370v310h420v-75h-340v-625h-80v315h-370v-315z" />
    <glyph glyph-name="uni04A5" unicode="&#x4a5;" horiz-adv-x="720" 
d="M145 0h-75v500h75v-215h250v215h305v-70h-230v-430h-75v215h-250v-215z" />
    <glyph glyph-name="uni04A6" unicode="&#x4a6;" horiz-adv-x="1030" 
d="M735 -40q79 0 127 49t48 131t-48 131t-127 49q-47 0 -89.5 -15.5t-65.5 -34.5v-270h-80v625h-340v-625h-80v700h500v-345q27 17 72 28.5t88 11.5q74 0 131 -31.5t88 -89t31 -134.5t-31.5 -134.5t-89 -89t-134.5 -31.5v75z" />
    <glyph glyph-name="uni04A7" unicode="&#x4a7;" horiz-adv-x="795" 
d="M560 -130q64 0 99.5 44t35.5 126q0 77 -37 121t-98 44q-35 0 -66.5 -12.5t-48.5 -27.5v-165h-75v430h-225v-430h-75v500h375v-260q17 13 49.5 24t70.5 11q60 0 106.5 -28.5t72.5 -82t26 -124.5q0 -74 -26.5 -128t-74 -83t-109.5 -29v70z" />
    <glyph glyph-name="uni04A8" unicode="&#x4a8;" horiz-adv-x="790" 
d="M211 35.5q-74 45.5 -117.5 127.5t-43.5 187t43 187t115 127.5t157 45.5v-75q-61 0 -115 -36t-87 -101.5t-33 -147.5q0 -83 33.5 -148t90 -101t121.5 -36q30 0 60 6q-65 50 -100 124.5t-35 164.5q0 85 28.5 148.5t78.5 97.5t113 34q58 0 108.5 -34t81 -98t30.5 -148
q0 -89 -33.5 -163t-93.5 -124q35 -8 82 -8v-75q-95 0 -169 30q-69 -30 -151 -30q-90 0 -164 45.5zM623.5 211.5q36.5 66.5 36.5 148.5q0 100 -40 152.5t-100 52.5t-100 -52.5t-40 -152.5q0 -83 38 -149.5t106 -104.5q63 39 99.5 105.5z" />
    <glyph glyph-name="uni04A9" unicode="&#x4a9;" 
d="M158 23q-55 33 -86.5 92t-31.5 135t31 135t84 92t115 33v-70q-40 0 -76 -24t-57.5 -67t-21.5 -99t22 -99.5t60 -67t83 -23.5q17 0 30 4q-38 37 -59 87.5t-21 108.5q0 87 41 136t104 49t104 -49t41 -136q0 -57 -19.5 -106.5t-53.5 -86.5q24 -7 53 -7v-70q-64 0 -120 25
q-48 -25 -100 -25q-67 0 -122 33zM427 171q18 41 18 89q0 56 -20.5 85.5t-49.5 29.5t-49.5 -29.5t-20.5 -85.5q0 -49 19.5 -89.5t53.5 -68.5q31 28 49 69z" />
    <glyph glyph-name="uni04AA" unicode="&#x4aa;" horiz-adv-x="730" 
d="M524 108.5q60 43.5 86 121.5h85q-28 -103 -100.5 -165.5t-173.5 -72.5v-132h-80v133q-82 11 -148.5 58t-104.5 124.5t-38 174.5q0 105 44.5 187t121.5 127.5t169 45.5q113 0 196.5 -63t113.5 -172h-85q-26 75 -86 117.5t-139 42.5q-70 0 -128.5 -36t-92.5 -101t-34 -148
t34 -148t92.5 -101t128.5 -36q79 0 139 43.5z" />
    <glyph glyph-name="uni04AB" unicode="&#x4ab;" horiz-adv-x="535" 
d="M372 87q38 27 53 78h75q-16 -72 -64.5 -117t-118.5 -55v-113h-75v113q-58 9 -104 43.5t-72 89.5t-26 124q0 76 31.5 135t86.5 92t122 33q83 0 142 -45.5t78 -124.5h-75q-15 48 -53.5 74t-91.5 26q-45 0 -83 -23.5t-60 -67t-22 -99.5t22 -99.5t60 -67t83 -23.5q54 0 92 27
z" />
    <glyph glyph-name="uni04AC" unicode="&#x4ac;" horiz-adv-x="590" 
d="M410 -140h-80v140h-75v625h-230v75h540v-75h-230v-550h75v-215z" />
    <glyph glyph-name="uni04AD" unicode="&#x4ad;" horiz-adv-x="445" 
d="M330 -120h-75v120h-70v430h-170v70h415v-70h-170v-360h70v-190z" />
    <glyph glyph-name="uni04AE" unicode="&#x4ae;" horiz-adv-x="590" 
d="M335 0h-80v265l-255 435h85l200 -345h20l200 345h85l-255 -435v-265z" />
    <glyph glyph-name="uni04AF" unicode="&#x4af;" horiz-adv-x="495" 
d="M285 -200h-75v200h-20l-180 500h80l150 -416h15l150 416h80l-180 -500h-20v-200z" />
    <glyph glyph-name="uni04B0" unicode="&#x4b0;" horiz-adv-x="590" 
d="M335 0h-80v265h-155v75h111l-211 360h85l200 -345h20l200 345h85l-211 -360h111v-75h-155v-265z" />
    <glyph glyph-name="uni04B1" unicode="&#x4b1;" horiz-adv-x="495" 
d="M285 -200h-75v200h-110v70h65l-155 430h80l150 -416h15l150 416h80l-155 -430h65v-70h-110v-200z" />
    <glyph glyph-name="uni04B2" unicode="&#x4b2;" horiz-adv-x="625" 
d="M625 -140h-80v140h-25l-200 295h-20l-200 -295h-90l245 360l-230 340h90l185 -275h20l185 275h90l-230 -340l195 -285h65v-215z" />
    <glyph glyph-name="uni04B3" unicode="&#x4b3;" horiz-adv-x="485" 
d="M485 -120h-75v120h-30l-130 200h-20l-130 -200h-90l170 255l-165 245h90l125 -190h20l125 190h90l-165 -245l125 -185h60v-190z" />
    <glyph glyph-name="uni04B4" unicode="&#x4b4;" horiz-adv-x="860" 
d="M830 -140h-80v140h-525v625h-205v75h485v-75h-200v-550h370v625h80v-625h75v-215z" />
    <glyph glyph-name="uni04B5" unicode="&#x4b5;" horiz-adv-x="660" 
d="M640 -120h-75v120h-400v430h-150v70h365v-70h-140v-360h255v430h75v-430h70v-190z" />
    <glyph glyph-name="uni04B6" unicode="&#x4b6;" horiz-adv-x="690" 
d="M580 -140v140h-75v300q-30 -25 -83.5 -45t-111.5 -20q-124 0 -184.5 61.5t-60.5 188.5v215h80v-215q0 -89 41 -132t124 -43q62 0 115 21.5t80 48.5v320h80v-625h75v-215h-80z" />
    <glyph glyph-name="uni04B7" unicode="&#x4b7;" horiz-adv-x="540" 
d="M445 -120v120h-70v195q-33 -22 -67.5 -31t-77.5 -9q-90 0 -135 48t-45 142v155h75v-155q0 -60 29 -90t86 -30q40 0 72 11t63 34v230h75v-430h70v-190h-75z" />
    <glyph glyph-name="uni04B8" unicode="&#x4b8;" horiz-adv-x="665" 
d="M505 700h80v-700h-80v300q-21 -18 -59 -35t-81 -25v-105h-75v100q-114 5 -169.5 66.5t-55.5 183.5v215h80v-215q0 -84 36 -126.5t109 -47.5v139h75v-135q45 8 82.5 26.5t57.5 38.5v320z" />
    <glyph glyph-name="uni04B9" unicode="&#x4b9;" horiz-adv-x="520" 
d="M375 500h75v-500h-75v195q-41 -27 -90 -36v-64h-65v60q-85 3 -127.5 51t-42.5 139v155h75v-155q0 -108 95 -119v99h65v-96q46 8 90 41v230z" />
    <glyph glyph-name="uni04BA" unicode="&#x4ba;" horiz-adv-x="665" 
d="M80 0v700h80v-300q30 25 83.5 45t111.5 20q124 0 184.5 -61.5t60.5 -188.5v-215h-80v215q0 89 -41 132t-124 43q-62 0 -115 -21.5t-80 -48.5v-320h-80z" />
    <glyph glyph-name="uni04BB" unicode="&#x4bb;" horiz-adv-x="575" 
d="M75 0v700h75v-255h5q20 25 60 45t90 20q57 0 102.5 -26.5t71.5 -74.5t26 -109v-300h-75v300q0 39 -18 71t-49 50.5t-68 18.5q-39 0 -72.5 -19.5t-53 -51.5t-19.5 -69v-300h-75z" />
    <glyph glyph-name="uni04BC" unicode="&#x4bc;" horiz-adv-x="840" 
d="M790 315h-575q7 -72 42 -129t90.5 -89t122.5 -32q72 0 133.5 39t91.5 106h85q-33 -100 -118.5 -160t-191.5 -60q-89 0 -162.5 41.5t-119.5 115.5t-53 168h-20q-60 0 -87.5 26.5t-27.5 83.5v30h75v-20q0 -26 12 -38t38 -12h10q7 94 53 168t119.5 115.5t162.5 41.5
q92 0 165 -42t114 -118.5t41 -174.5v-60zM710 385q0 74 -30.5 130.5t-85.5 88t-124 31.5q-67 0 -122.5 -32t-90.5 -89t-42 -129h495z" />
    <glyph glyph-name="uni04BD" unicode="&#x4bd;" horiz-adv-x="630" 
d="M585 215h-390q7 -70 53.5 -112.5t111.5 -42.5q45 0 80.5 21t54.5 59h80q-26 -72 -81.5 -111t-133.5 -39q-62 0 -114 28t-85 79.5t-40 117.5h-21q-53 0 -76.5 24.5t-23.5 80.5v20h70v-10q0 -26 8.5 -35.5t31.5 -9.5h11q7 66 40 117.5t85 79.5t114 28q64 0 117 -31
t83 -85.5t30 -123.5q0 -40 -5 -55zM515 285q-4 68 -47.5 111.5t-107.5 43.5q-67 0 -112 -43.5t-53 -111.5h320z" />
    <glyph glyph-name="uni04BE" unicode="&#x4be;" horiz-adv-x="840" 
d="M790 315h-575q7 -72 42 -129t90.5 -89t122.5 -32q72 0 133.5 39t91.5 106h85q-30 -90 -103.5 -148.5t-166.5 -69.5v-132h-80v132q-79 9 -144 52.5t-104.5 113.5t-46.5 157h-20q-60 0 -87.5 26.5t-27.5 83.5v30h75v-20q0 -26 12 -38t38 -12h10q7 94 53 168t119.5 115.5
t162.5 41.5q92 0 165 -42t114 -118.5t41 -174.5v-60zM710 385q0 74 -30.5 130.5t-85.5 88t-124 31.5q-67 0 -122.5 -32t-90.5 -89t-42 -129h495z" />
    <glyph glyph-name="uni04BF" unicode="&#x4bf;" horiz-adv-x="630" 
d="M585 215h-390q7 -70 53.5 -112.5t111.5 -42.5q45 0 80.5 21t54.5 59h80q-23 -62 -67.5 -100t-107.5 -47v-113h-75v112q-82 12 -138 72.5t-66 150.5h-21q-53 0 -76.5 24.5t-23.5 80.5v20h70v-10q0 -26 8.5 -35.5t31.5 -9.5h11q7 66 40 117.5t85 79.5t114 28q64 0 117 -31
t83 -85.5t30 -123.5q0 -40 -5 -55zM515 285q-4 68 -47.5 111.5t-107.5 43.5q-67 0 -112 -43.5t-53 -111.5h320z" />
    <glyph glyph-name="uni04C0" unicode="&#x4c0;" horiz-adv-x="240" 
d="M160 0h-80v700h80v-700z" />
    <glyph glyph-name="uni04C1" unicode="&#x4c1;" horiz-adv-x="800" 
d="M95 0h-95l275 355l-255 345h96l244 -330v330h80v-330l244 330h96l-255 -345l275 -355h-95l-265 345v-345h-80v345zM303.5 814.5q-39.5 34.5 -43.5 90.5h65q4 -33 24 -51.5t51 -18.5t51 18.5t24 51.5h65q-4 -56 -43.5 -90.5t-96.5 -34.5t-96.5 34.5z" />
    <glyph glyph-name="uni04C2" unicode="&#x4c2;" horiz-adv-x="645" 
d="M90 0h-90l205 255l-190 245h90l180 -235v235h75v-235l180 235h90l-190 -245l205 -255h-90l-195 245v-245h-75v245zM226.5 619.5q-39.5 34.5 -43.5 90.5h65q4 -33 24 -51.5t51 -18.5t51 18.5t24 51.5h65q-4 -56 -43.5 -90.5t-96.5 -34.5t-96.5 34.5z" />
    <glyph glyph-name="uni04C3" unicode="&#x4c3;" horiz-adv-x="615" 
d="M451 378.5q57 -31.5 88 -89t31 -134.5q0 -85 -31.5 -146t-88 -92.5t-128.5 -31.5v75q73 0 120.5 50.5t47.5 144.5q0 82 -48 131t-127 49q-47 0 -89.5 -17t-65.5 -38v-280h-80v700h80v-330l295 330h100l-265 -292q20 2 30 2q74 0 131 -31.5z" />
    <glyph glyph-name="uni04C4" unicode="&#x4c4;" horiz-adv-x="520" 
d="M383 261q51 -29 79 -82t28 -123q0 -123 -63 -189.5t-177 -66.5v70q80 0 122.5 46.5t42.5 139.5q0 78 -42.5 121t-117.5 43q-38 0 -67.5 -9.5t-42.5 -20.5v-190h-75v500h75v-230l225 230h95l-206 -210h5q68 0 119 -29z" />
    <glyph glyph-name="uni04C5" unicode="&#x4c5;" horiz-adv-x="700" 
d="M570 -140l25 140h-75v625h-280l-40 -470q-7 -82 -45 -121t-110 -39h-35v80h35q31 0 51 20t24 60l45 545h435v-625h100v-11l-70 -204h-60z" />
    <glyph glyph-name="uni04C6" unicode="&#x4c6;" 
d="M445 -120l20 120h-70v430h-190l-25 -290q-7 -74 -41.5 -109.5t-98.5 -35.5h-30v75h30q28 0 45 17t20 53l30 360h335v-430h90v-12l-60 -178h-55z" />
    <glyph glyph-name="uni04C7" unicode="&#x4c7;" horiz-adv-x="710" 
d="M460 -200v75h15q75 0 75 75v365h-390v-315h-80v700h80v-310h390v310h80v-750q0 -75 -38.5 -112.5t-116.5 -37.5h-15z" />
    <glyph glyph-name="uni04C8" unicode="&#x4c8;" horiz-adv-x="555" 
d="M320 -200v70h10q41 0 60.5 19.5t19.5 60.5v265h-265v-215h-75v500h75v-215h265v215h75v-550q0 -75 -38.5 -112.5t-116.5 -37.5h-10z" />
    <glyph glyph-name="uni04C9" unicode="&#x4c9;" horiz-adv-x="730" 
d="M660 -140h-60l25 140h-75v315h-390v-315h-80v700h80v-310h390v310h80v-625h100v-11z" />
    <glyph glyph-name="uni04CA" unicode="&#x4ca;" horiz-adv-x="575" 
d="M515 -120h-55l20 120h-70v215h-265v-215h-75v500h75v-215h265v215h75v-430h90v-12z" />
    <glyph glyph-name="uni04CB" unicode="&#x4cb;" horiz-adv-x="665" 
d="M430 -140v215h75v225q-30 -25 -83.5 -45t-111.5 -20q-124 0 -184.5 61.5t-60.5 188.5v215h80v-215q0 -89 41 -132t124 -43q62 0 115 21.5t80 48.5v320h80v-700h-75v-140h-80z" />
    <glyph glyph-name="uni04CC" unicode="&#x4cc;" horiz-adv-x="520" 
d="M305 -120v190h70v125q-33 -22 -67.5 -31t-77.5 -9q-90 0 -135 48t-45 142v155h75v-155q0 -60 29 -90t86 -30q40 0 72 11t63 34v230h75v-500h-70v-120h-75z" />
    <glyph glyph-name="uni04CD" unicode="&#x4cd;" horiz-adv-x="920" 
d="M850 -140h-60l25 140h-75v595h-20l-210 -595h-120l-210 595h-20v-595h-80v700h145l215 -610h20l215 610h145v-625h100v-11z" />
    <glyph glyph-name="uni04CE" unicode="&#x4ce;" horiz-adv-x="730" 
d="M670 -120h-55l20 120h-70v410h-20l-135 -410h-110l-135 410h-20v-410h-75v500h140l135 -415h20l135 415h140v-430h90v-12z" />
    <glyph glyph-name="uni04CF" unicode="&#x4cf;" horiz-adv-x="225" 
d="M150 0h-75v700h75v-700z" />
    <glyph glyph-name="uni04D0" unicode="&#x4d0;" horiz-adv-x="650" 
d="M650 0h-85l-67 180h-346l-67 -180h-85l265 700h120zM315 615l-135 -360h290l-135 360h-20zM228.5 814.5q-39.5 34.5 -43.5 90.5h65q4 -33 24 -51.5t51 -18.5t51 18.5t24 51.5h65q-4 -56 -43.5 -90.5t-96.5 -34.5t-96.5 34.5z" />
    <glyph glyph-name="uni04D1" unicode="&#x4d1;" horiz-adv-x="530" 
d="M98.5 33.5q-48.5 43.5 -48.5 111.5q0 75 49.5 117.5t150.5 42.5h135v15q0 56 -32 88t-88 32q-54 0 -87.5 -24.5t-37.5 -60.5h-75q3 41 27 76.5t68.5 57t104.5 21.5q91 0 143 -50.5t52 -139.5v-320h-65l-10 60h-5q-17 -27 -58.5 -48.5t-96.5 -21.5q-78 0 -126.5 43.5z
M342.5 101.5q42.5 41.5 42.5 113.5v20h-135q-64 0 -94.5 -25t-30.5 -65q0 -38 26 -61.5t74 -23.5q75 0 117.5 41.5zM168.5 619.5q-39.5 34.5 -43.5 90.5h65q4 -33 24 -51.5t51 -18.5t51 18.5t24 51.5h65q-4 -56 -43.5 -90.5t-96.5 -34.5t-96.5 34.5z" />
    <glyph glyph-name="uni04D2" unicode="&#x4d2;" horiz-adv-x="650" 
d="M650 0h-85l-67 180h-346l-67 -180h-85l265 700h120zM315 615l-135 -360h290l-135 360h-20zM280 800h-85v85h85v-85zM455 800h-85v85h85v-85z" />
    <glyph glyph-name="uni04D3" unicode="&#x4d3;" horiz-adv-x="530" 
d="M98.5 33.5q-48.5 43.5 -48.5 111.5q0 75 49.5 117.5t150.5 42.5h135v15q0 56 -32 88t-88 32q-54 0 -87.5 -24.5t-37.5 -60.5h-75q3 41 27 76.5t68.5 57t104.5 21.5q91 0 143 -50.5t52 -139.5v-320h-65l-10 60h-5q-17 -27 -58.5 -48.5t-96.5 -21.5q-78 0 -126.5 43.5z
M342.5 101.5q42.5 41.5 42.5 113.5v20h-135q-64 0 -94.5 -25t-30.5 -65q0 -38 26 -61.5t74 -23.5q75 0 117.5 41.5zM220 605h-85v85h85v-85zM395 605h-85v85h85v-85z" />
    <glyph glyph-name="uni04D6" unicode="&#x4d6;" horiz-adv-x="585" 
d="M530 0h-450v700h450v-75h-370v-235h350v-75h-350v-240h370v-75zM213.5 814.5q-39.5 34.5 -43.5 90.5h65q4 -33 24 -51.5t51 -18.5t51 18.5t24 51.5h65q-4 -56 -43.5 -90.5t-96.5 -34.5t-96.5 34.5z" />
    <glyph glyph-name="uni04D7" unicode="&#x4d7;" horiz-adv-x="550" 
d="M158 23q-55 33 -86.5 92t-31.5 135t31.5 135t86.5 92t122 33q64 0 117 -31t83 -85.5t30 -123.5q0 -40 -5 -55h-390q7 -70 54 -112.5t111 -42.5q45 0 80.5 21t54.5 59h80q-26 -72 -81.5 -111t-133.5 -39q-67 0 -122 33zM435 285q-4 68 -47.5 111.5t-107.5 43.5
q-67 0 -112 -43.5t-53 -111.5h320zM178.5 619.5q-39.5 34.5 -43.5 90.5h65q4 -33 24 -51.5t51 -18.5t51 18.5t24 51.5h65q-4 -56 -43.5 -90.5t-96.5 -34.5t-96.5 34.5z" />
    <glyph glyph-name="uni04D8" unicode="&#x4d8;" horiz-adv-x="755" 
d="M205 32q-73 42 -114 118.5t-41 174.5v60h575q-7 72 -42 129t-90.5 89t-122.5 32q-72 0 -133.5 -39t-91.5 -106h-85q33 100 118.5 160t191.5 60q92 0 169 -45.5t121.5 -127.5t44.5 -187t-44.5 -187t-121.5 -127.5t-169 -45.5t-165 42zM492.5 97q55.5 32 90.5 89t42 129
h-495q0 -74 30.5 -130.5t85.5 -88t124 -31.5q67 0 122.5 32z" />
    <glyph glyph-name="uni04D9" unicode="&#x4d9;" horiz-adv-x="550" 
d="M153 21q-53 31 -83 85.5t-30 123.5q0 40 5 55h390q-7 70 -54 112.5t-111 42.5q-45 0 -80.5 -21t-54.5 -59h-80q26 72 81.5 111t133.5 39q67 0 122 -33t86.5 -92t31.5 -135t-31.5 -135t-86.5 -92t-122 -33q-64 0 -117 31zM382 103.5q45 43.5 53 111.5h-320
q4 -67 47.5 -111t107.5 -44q67 0 112 43.5z" />
    <glyph glyph-name="uni04DA" unicode="&#x4da;" horiz-adv-x="755" 
d="M205 32q-73 42 -114 118.5t-41 174.5v60h575q-7 72 -42 129t-90.5 89t-122.5 32q-72 0 -133.5 -39t-91.5 -106h-85q33 100 118.5 160t191.5 60q92 0 169 -45.5t121.5 -127.5t44.5 -187t-44.5 -187t-121.5 -127.5t-169 -45.5t-165 42zM492.5 97q55.5 32 90.5 89t42 129
h-495q0 -74 30.5 -130.5t85.5 -88t124 -31.5q67 0 122.5 32zM330 800h-85v85h85v-85zM505 800h-85v85h85v-85z" />
    <glyph glyph-name="uni04DB" unicode="&#x4db;" horiz-adv-x="550" 
d="M153 21q-53 31 -83 85.5t-30 123.5q0 40 5 55h390q-7 70 -54 112.5t-111 42.5q-45 0 -80.5 -21t-54.5 -59h-80q26 72 81.5 111t133.5 39q67 0 122 -33t86.5 -92t31.5 -135t-31.5 -135t-86.5 -92t-122 -33q-64 0 -117 31zM382 103.5q45 43.5 53 111.5h-320
q4 -67 47.5 -111t107.5 -44q67 0 112 43.5zM230 605h-85v85h85v-85zM405 605h-85v85h85v-85z" />
    <glyph glyph-name="uni04DC" unicode="&#x4dc;" horiz-adv-x="800" 
d="M95 0h-95l275 355l-255 345h96l244 -330v330h80v-330l244 330h96l-255 -345l275 -355h-95l-265 345v-345h-80v345zM355 800h-85v85h85v-85zM530 800h-85v85h85v-85z" />
    <glyph glyph-name="uni04DD" unicode="&#x4dd;" horiz-adv-x="645" 
d="M90 0h-90l205 255l-190 245h90l180 -235v235h75v-235l180 235h90l-190 -245l205 -255h-90l-195 245v-245h-75v245zM278 605h-85v85h85v-85zM453 605h-85v85h85v-85z" />
    <glyph glyph-name="uni04DE" unicode="&#x4de;" horiz-adv-x="595" 
d="M154.5 16.5q-57.5 26.5 -88.5 72.5t-31 101h80q0 -33 20.5 -61.5t60 -46t94.5 -17.5q53 0 93 17.5t61 46t21 61.5t-19 61.5t-53 46t-78 17.5h-70v75h70q59 0 97 35t38 85q0 54 -43.5 89.5t-116.5 35.5q-48 0 -84.5 -17.5t-56 -46t-19.5 -61.5h-80q0 55 29 101t83.5 72.5
t127.5 26.5q72 0 127 -27.5t84 -73.5t29 -99q0 -60 -34 -101t-76 -54v-5q48 -13 86.5 -55.5t38.5 -104.5q0 -55 -31 -101t-88.5 -72.5t-135.5 -26.5t-135.5 26.5zM250 800h-85v85h85v-85zM425 800h-85v85h85v-85z" />
    <glyph glyph-name="uni04DF" unicode="&#x4df;" horiz-adv-x="460" 
d="M122.5 12q-44.5 22 -68.5 60t-24 83h75q0 -39 33 -67t87 -28q61 0 90.5 22t29.5 58q0 35 -30.5 57.5t-84.5 22.5h-45v65h45q51 0 78 22.5t27 57.5q0 32 -28.5 53.5t-81.5 21.5q-51 0 -80.5 -25.5t-29.5 -64.5h-75q0 45 23.5 81.5t65.5 57.5t96 21q87 0 136 -41.5
t49 -104.5q0 -42 -25 -70.5t-55 -38.5v-5q37 -8 63.5 -38t26.5 -73q0 -65 -52 -107t-143 -42q-58 0 -102.5 22zM185 605h-85v85h85v-85zM360 605h-85v85h85v-85z" />
    <glyph glyph-name="uni04E0" unicode="&#x4e0;" horiz-adv-x="585" 
d="M285 420q81 0 138.5 -27.5t87 -76t29.5 -111.5t-29.5 -111.5t-87 -76t-138.5 -27.5q-126 0 -190.5 52t-64.5 138h80q0 -52 43 -83.5t132 -31.5q84 0 129.5 39t45.5 101t-45.5 101t-129.5 39h-135v75l260 205h-360v75h470v-75l-255 -200v-5h20z" />
    <glyph glyph-name="uni04E1" unicode="&#x4e1;" horiz-adv-x="490" 
d="M394.5 161.5q60.5 -58.5 60.5 -156.5t-58.5 -156.5t-156.5 -58.5q-64 0 -112.5 25.5t-75.5 70t-27 99.5h75q0 -54 38.5 -89.5t101.5 -35.5q64 0 102 39t38 106q0 68 -40.5 106.5t-114.5 38.5h-100v70l220 210h-300v70h395v-70l-215 -205v-5h3q106 0 166.5 -58.5z" />
    <glyph glyph-name="uni04E2" unicode="&#x4e2;" horiz-adv-x="710" 
d="M215 0h-135v700h80v-605h20l315 605h135v-700h-80v605h-20zM495 813h-280v60h280v-60z" />
    <glyph glyph-name="uni04E3" unicode="&#x4e3;" horiz-adv-x="555" 
d="M200 0h-130v500h75v-410h20l190 410h130v-500h-75v410h-20zM420 618h-280v60h280v-60z" />
    <glyph glyph-name="uni04E4" unicode="&#x4e4;" horiz-adv-x="710" 
d="M215 0h-135v700h80v-605h20l315 605h135v-700h-80v605h-20zM310 800h-85v85h85v-85zM485 800h-85v85h85v-85z" />
    <glyph glyph-name="uni04E5" unicode="&#x4e5;" horiz-adv-x="555" 
d="M200 0h-130v500h75v-410h20l190 410h130v-500h-75v410h-20zM235 605h-85v85h85v-85zM410 605h-85v85h85v-85z" />
    <glyph glyph-name="uni04E6" unicode="&#x4e6;" horiz-adv-x="770" 
d="M216 35.5q-77 45.5 -121.5 127.5t-44.5 187t44.5 187t121.5 127.5t169 45.5t169 -45.5t121.5 -127.5t44.5 -187t-44.5 -187t-121.5 -127.5t-169 -45.5t-169 45.5zM513.5 101q58.5 36 92.5 101t34 148t-34 148t-92.5 101t-128.5 36t-128.5 -36t-92.5 -101t-34 -148
t34 -148t92.5 -101t128.5 -36t128.5 36zM340 800h-85v85h85v-85zM515 800h-85v85h85v-85z" />
    <glyph glyph-name="uni04E7" unicode="&#x4e7;" 
d="M158 23q-55 33 -86.5 92t-31.5 135t31.5 135t86.5 92t122 33t122 -33t86.5 -92t31.5 -135t-31.5 -135t-86.5 -92t-122 -33t-122 33zM363 83.5q38 23.5 60 67t22 99.5t-22 99.5t-60 67t-83 23.5t-83 -23.5t-60 -67t-22 -99.5t22 -99.5t60 -67t83 -23.5t83 23.5zM235 605
h-85v85h85v-85zM410 605h-85v85h85v-85z" />
    <glyph glyph-name="uni04E8" unicode="&#x4e8;" horiz-adv-x="770" 
d="M554 664.5q77 -45.5 121.5 -127.5t44.5 -187t-44.5 -187t-121.5 -127.5t-169 -45.5t-169 45.5t-121.5 127.5t-44.5 187t44.5 187t121.5 127.5t169 45.5t169 -45.5zM265 604q-55 -31 -90.5 -88t-42.5 -131h506q-7 74 -42.5 131t-90.5 88t-120 31t-120 -31zM505 96
q55 31 90.5 88t42.5 131h-506q7 -74 42.5 -131t90.5 -88t120 -31t120 31z" />
    <glyph glyph-name="uni04E9" unicode="&#x4e9;" 
d="M402 477q55 -33 86.5 -92t31.5 -135t-31.5 -135t-86.5 -92t-122 -33t-122 33t-86.5 92t-31.5 135t31.5 135t86.5 92t122 33t122 -33zM172.5 397.5q-45.5 -42.5 -55.5 -112.5h326q-10 70 -55.5 112.5t-107.5 42.5t-107.5 -42.5zM387.5 102.5q45.5 42.5 55.5 112.5h-326
q10 -70 55.5 -112.5t107.5 -42.5t107.5 42.5z" />
    <glyph glyph-name="uni04EA" unicode="&#x4ea;" horiz-adv-x="770" 
d="M554 664.5q77 -45.5 121.5 -127.5t44.5 -187t-44.5 -187t-121.5 -127.5t-169 -45.5t-169 45.5t-121.5 127.5t-44.5 187t44.5 187t121.5 127.5t169 45.5t169 -45.5zM265 604q-55 -31 -90.5 -88t-42.5 -131h506q-7 74 -42.5 131t-90.5 88t-120 31t-120 -31zM505 96
q55 31 90.5 88t42.5 131h-506q7 -74 42.5 -131t90.5 -88t120 -31t120 31zM340 800h-85v85h85v-85zM515 800h-85v85h85v-85z" />
    <glyph glyph-name="uni04EB" unicode="&#x4eb;" 
d="M402 477q55 -33 86.5 -92t31.5 -135t-31.5 -135t-86.5 -92t-122 -33t-122 33t-86.5 92t-31.5 135t31.5 135t86.5 92t122 33t122 -33zM172.5 397.5q-45.5 -42.5 -55.5 -112.5h326q-10 70 -55.5 112.5t-107.5 42.5t-107.5 -42.5zM387.5 102.5q45.5 42.5 55.5 112.5h-326
q10 -70 55.5 -112.5t107.5 -42.5t107.5 42.5zM235 605h-85v85h85v-85zM410 605h-85v85h85v-85z" />
    <glyph glyph-name="uni04EC" unicode="&#x4ec;" horiz-adv-x="730" 
d="M206 18.5q-64 28.5 -109 82t-62 124.5h85q26 -75 86 -117.5t139 -42.5q65 0 120.5 31.5t90 88.5t39.5 130h-340v75h340q-5 71 -39.5 127t-90 87t-120.5 31q-78 0 -138.5 -41.5t-86.5 -113.5h-85q20 69 65.5 121t109 80.5t135.5 28.5q92 0 169 -45.5t121.5 -127.5
t44.5 -187t-44.5 -187t-121.5 -127.5t-169 -45.5q-75 0 -139 28.5zM310 800h-85v85h85v-85zM485 800h-85v85h85v-85z" />
    <glyph glyph-name="uni04ED" unicode="&#x4ed;" horiz-adv-x="535" 
d="M113 35.5q-59 45.5 -78 124.5h75q15 -47 55 -73.5t90 -26.5q65 0 111.5 42.5t53.5 112.5h-225v70h225q-7 70 -53.5 112.5t-111.5 42.5q-50 0 -90 -25.5t-55 -69.5h-75q19 75 78.5 120t141.5 45q67 0 122 -33t86.5 -92t31.5 -135t-31.5 -135t-86.5 -92t-122 -33
q-83 0 -142 45.5zM220 605h-85v85h85v-85zM395 605h-85v85h85v-85z" />
    <glyph glyph-name="uni04EE" unicode="&#x4ee;" horiz-adv-x="610" 
d="M515 700h85l-285 -630q-15 -33 -42 -51.5t-73 -18.5h-100v75h95q22 0 34.5 7.5t20.5 27.5l20 45l-260 545h85l205 -435h20zM450 813h-280v60h280v-60z" />
    <glyph glyph-name="uni04EF" unicode="&#x4ef;" horiz-adv-x="495" 
d="M405 500h80l-225 -630q-13 -36 -34 -53t-61 -17h-100v70h95q25 0 35 30l20 60l-205 540h80l155 -415h20zM395 618h-280v60h280v-60z" />
    <glyph glyph-name="uni04F0" unicode="&#x4f0;" horiz-adv-x="610" 
d="M515 700h85l-285 -630q-15 -33 -42 -51.5t-73 -18.5h-100v75h95q22 0 34.5 7.5t20.5 27.5l20 45l-260 545h85l205 -435h20zM265 800h-85v85h85v-85zM440 800h-85v85h85v-85z" />
    <glyph glyph-name="uni04F1" unicode="&#x4f1;" horiz-adv-x="495" 
d="M405 500h80l-225 -630q-13 -36 -34 -53t-61 -17h-100v70h95q25 0 35 30l20 60l-205 540h80l155 -415h20zM210 605h-85v85h85v-85zM385 605h-85v85h85v-85z" />
    <glyph glyph-name="uni04F2" unicode="&#x4f2;" horiz-adv-x="610" 
d="M515 700h85l-285 -630q-15 -33 -42 -51.5t-73 -18.5h-100v75h95q22 0 34.5 7.5t20.5 27.5l20 45l-260 545h85l205 -435h20zM265 770h-70l95 140h90zM425 770h-70l95 140h90z" />
    <glyph glyph-name="uni04F3" unicode="&#x4f3;" horiz-adv-x="495" 
d="M405 500h80l-225 -630q-13 -36 -34 -53t-61 -17h-100v70h95q25 0 35 30l20 60l-205 540h80l155 -415h20zM205 580h-70l95 140h90zM365 580h-70l95 140h90z" />
    <glyph glyph-name="uni04F4" unicode="&#x4f4;" horiz-adv-x="665" 
d="M505 300q-30 -25 -83.5 -45t-111.5 -20q-124 0 -184.5 61.5t-60.5 188.5v215h80v-215q0 -89 41 -132t124 -43q62 0 115 21.5t80 48.5v320h80v-700h-80v300zM285 800h-85v85h85v-85zM460 800h-85v85h85v-85z" />
    <glyph glyph-name="uni04F5" unicode="&#x4f5;" horiz-adv-x="520" 
d="M375 195q-33 -22 -67.5 -31t-77.5 -9q-90 0 -135 48t-45 142v155h75v-155q0 -60 29 -90t86 -30q40 0 72 11t63 34v230h75v-500h-75v195zM210 605h-85v85h85v-85zM385 605h-85v85h85v-85z" />
    <glyph glyph-name="uni04F6" unicode="&#x4f6;" horiz-adv-x="540" 
d="M235 -140h-80v140h-75v700h440v-75h-360v-550h75v-215z" />
    <glyph glyph-name="uni04F7" unicode="&#x4f7;" horiz-adv-x="410" 
d="M215 -120h-75v120h-70v500h320v-70h-245v-360h70v-190z" />
    <glyph glyph-name="uni04F8" unicode="&#x4f8;" horiz-adv-x="795" 
d="M80 0v700h80v-260h190q57 0 104 -29t74 -79.5t27 -111.5t-27 -111.5t-74 -79.5t-104 -29h-270zM715 0h-80v700h80v-700zM350 75q53 0 89 41t36 104t-36 104t-89 41h-190v-290h190zM355 800h-85v85h85v-85zM530 800h-85v85h85v-85z" />
    <glyph glyph-name="uni04F9" unicode="&#x4f9;" horiz-adv-x="670" 
d="M70 0v500h75v-170h135q49 0 88 -21.5t60.5 -59t21.5 -84.5t-21.5 -84.5t-60.5 -59t-88 -21.5h-210zM600 0h-75v500h75v-500zM280 70q41 0 68 27t27 68t-27 68t-68 27h-135v-190h135zM290 605h-85v85h85v-85zM465 605h-85v85h85v-85z" />
    <glyph glyph-name="uni04FA" unicode="&#x4fa;" horiz-adv-x="555" 
d="M120 -200v70h20q40 0 40 65v65h-75v315h-95v75h95v310h430v-75h-350v-235h195v-75h-195v-240h75v-145q0 -71 -28 -100.5t-92 -29.5h-20z" />
    <glyph glyph-name="uni04FB" unicode="&#x4fb;" horiz-adv-x="425" 
d="M405 430h-245v-145h175v-70h-175v-145h70v-120q0 -70 -27 -100t-88 -30h-20v70h20q20 0 30 14t10 46v50h-70v215h-75v70h75v215h320v-70z" />
    <glyph glyph-name="uni04FC" unicode="&#x4fc;" horiz-adv-x="620" 
d="M445 -200v75h20q33 0 51.5 16t18.5 39q0 31 -18 67t-49 81l-148 217h-20l-200 -295h-90l245 360l-230 340h90l185 -275h20l185 275h90l-230 -340l185 -270q26 -38 45.5 -83t19.5 -82q0 -58 -38.5 -91.5t-111.5 -33.5h-20z" />
    <glyph glyph-name="uni04FD" unicode="&#x4fd;" horiz-adv-x="480" 
d="M305 -200v70h20q31 0 50.5 16.5t19.5 45.5q0 31 -17 64t-53 89l-75 115h-20l-130 -200h-90l170 255l-165 245h90l125 -190h20l125 190h90l-165 -245l115 -170q23 -34 41.5 -78.5t18.5 -81.5q0 -58 -38.5 -91.5t-111.5 -33.5h-20z" />
    <glyph glyph-name="uni04FE" unicode="&#x4fe;" horiz-adv-x="620" 
d="M100 0h-90l220 325h-130v70h130l-205 305h90l185 -275h20l185 275h90l-205 -305h130v-70h-130l220 -325h-90l-200 295h-20z" />
    <glyph glyph-name="uni04FF" unicode="&#x4ff;" horiz-adv-x="480" 
d="M100 0h-90l150 225h-80v60h80l-145 215h90l125 -190h20l125 190h90l-145 -215h80v-60h-80l150 -225h-90l-130 200h-20z" />
    <glyph glyph-name="uni0510" unicode="&#x510;" horiz-adv-x="595" 
d="M171 16.5q-59 26.5 -90 72t-31 101.5q0 62 38.5 104.5t86.5 55.5v5q-42 13 -76 54t-34 101q0 53 29.5 99t85 73.5t130.5 27.5q116 0 178 -52t62 -138h-80q0 51 -40.5 83t-119.5 32q-77 0 -121 -35.5t-44 -89.5q0 -50 38 -85t97 -35h70v-75h-70q-44 0 -78 -17.5t-53 -46
t-19 -61.5t21.5 -61.5t62.5 -46t96 -17.5t94.5 16.5t60 43t20.5 55.5h80q0 -51 -31 -94.5t-89 -69.5t-135 -26q-80 0 -139 26.5z" />
    <glyph glyph-name="uni0511" unicode="&#x511;" horiz-adv-x="460" 
d="M94.5 30.5q-54.5 40.5 -54.5 108.5q0 40 25 71t65 40v5q-35 11 -57.5 41.5t-22.5 67.5q0 64 50 105t140 41q53 0 95.5 -20.5t66 -55t23.5 -74.5h-75q0 32 -30 56t-80 24q-53 0 -84 -20t-31 -55q0 -37 28 -58.5t77 -21.5h45v-65h-45q-54 0 -84.5 -22.5t-30.5 -57.5
q0 -38 32.5 -59t92.5 -21q54 0 87 23.5t33 61.5h75q0 -43 -23 -78.5t-67 -56t-105 -20.5q-91 0 -145.5 40.5z" />
    <glyph glyph-name="uni0512" unicode="&#x512;" horiz-adv-x="680" 
d="M430 -200v75h15q75 0 75 75v675h-280l-40 -470q-7 -82 -45 -121t-110 -39h-35v80h35q31 0 51 20t24 60l45 545h435v-750q0 -75 -38.5 -112.5t-116.5 -37.5h-15z" />
    <glyph glyph-name="uni0513" unicode="&#x513;" horiz-adv-x="540" 
d="M305 -200v70h10q41 0 60.5 19.5t19.5 60.5v480h-190l-25 -290q-7 -74 -41.5 -109.5t-98.5 -35.5h-30v75h30q28 0 45 17t20 53l30 360h335v-550q0 -75 -38.5 -112.5t-116.5 -37.5h-10z" />
    <glyph glyph-name="Wgrave" unicode="&#x1e80;" horiz-adv-x="980" 
d="M328 0h-138l-175 700h85l150 -615h20l160 615h120l160 -615h20l150 615h85l-175 -700h-138l-152 585h-20zM525 770h-70l-115 140h90z" />
    <glyph glyph-name="wgrave" unicode="&#x1e81;" horiz-adv-x="790" 
d="M280 0h-130l-135 500h80l110 -420h20l110 420h120l110 -420h20l110 420h80l-135 -500h-130l-105 405h-20zM435 580h-70l-115 140h90z" />
    <glyph glyph-name="Wacute" unicode="&#x1e82;" horiz-adv-x="980" 
d="M328 0h-138l-175 700h85l150 -615h20l160 615h120l160 -615h20l150 615h85l-175 -700h-138l-152 585h-20zM524 770h-70l95 140h90z" />
    <glyph glyph-name="wacute" unicode="&#x1e83;" horiz-adv-x="790" 
d="M280 0h-130l-135 500h80l110 -420h20l110 420h120l110 -420h20l110 420h80l-135 -500h-130l-105 405h-20zM430 580h-70l95 140h90z" />
    <glyph glyph-name="Wdieresis" unicode="&#x1e84;" horiz-adv-x="980" 
d="M328 0h-138l-175 700h85l150 -615h20l160 615h120l160 -615h20l150 615h85l-175 -700h-138l-152 585h-20zM445 800h-85v85h85v-85zM620 800h-85v85h85v-85z" />
    <glyph glyph-name="wdieresis" unicode="&#x1e85;" horiz-adv-x="790" 
d="M280 0h-130l-135 500h80l110 -420h20l110 420h120l110 -420h20l110 420h80l-135 -500h-130l-105 405h-20zM350 605h-85v85h85v-85zM525 605h-85v85h85v-85z" />
    <glyph glyph-name="uni1E9E" unicode="&#x1e9e;" horiz-adv-x="675" 
d="M395 410q69 0 121 -27t80.5 -73.5t28.5 -104.5t-28.5 -104.5t-82 -73.5t-123.5 -27h-91v75h90q73 0 114 36t41 94t-41 94t-114 36h-90v80l190 210h-215q-56 0 -88 -32t-32 -88v-505h-80v505q0 90 53.5 142.5t146.5 52.5h320v-70l-200 -215v-5z" />
    <glyph glyph-name="Ygrave" unicode="&#x1ef2;" horiz-adv-x="590" 
d="M335 0h-80v265l-255 435h85l200 -345h20l200 345h85l-255 -435v-265zM330 770h-70l-115 140h90z" />
    <glyph glyph-name="ygrave" unicode="&#x1ef3;" horiz-adv-x="495" 
d="M405 500h80l-225 -630q-13 -36 -34 -53t-61 -17h-100v70h95q25 0 35 30l20 60l-205 540h80l155 -415h20zM295 580h-70l-115 140h90z" />
    <glyph glyph-name="endash" unicode="&#x2013;" horiz-adv-x="540" 
d="M505 250h-470v70h470v-70z" />
    <glyph glyph-name="emdash" unicode="&#x2014;" horiz-adv-x="730" 
d="M695 250h-660v70h660v-70z" />
    <glyph glyph-name="quoteleft" unicode="&#x2018;" horiz-adv-x="205" 
d="M130 530h-85l40 170h65z" />
    <glyph glyph-name="quoteright" unicode="&#x2019;" horiz-adv-x="205" 
d="M120 530h-65l20 170h85z" />
    <glyph glyph-name="quotesinglbase" unicode="&#x201a;" horiz-adv-x="205" 
d="M110 -80h-65l20 170h85z" />
    <glyph glyph-name="quotedblleft" unicode="&#x201c;" horiz-adv-x="345" 
d="M130 530h-85l40 170h65zM270 530h-85l40 170h65z" />
    <glyph glyph-name="quotedblright" unicode="&#x201d;" horiz-adv-x="345" 
d="M120 530h-65l20 170h85zM260 530h-65l20 170h85z" />
    <glyph glyph-name="quotedblbase" unicode="&#x201e;" horiz-adv-x="345" 
d="M110 -80h-65l20 170h85zM250 -80h-65l20 170h85z" />
    <glyph glyph-name="dagger" unicode="&#x2020;" horiz-adv-x="455" 
d="M265 0h-75v465h-145v70h145v165h75v-165h145v-70h-145v-465z" />
    <glyph glyph-name="daggerdbl" unicode="&#x2021;" horiz-adv-x="455" 
d="M265 0h-75v200h-145v70h145v195h-145v70h145v165h75v-165h145v-70h-145v-195h145v-70h-145v-200z" />
    <glyph glyph-name="bullet" unicode="&#x2022;" horiz-adv-x="440" 
d="M149.5 199.5q-29.5 29.5 -29.5 70.5t29.5 70.5t70.5 29.5t70.5 -29.5t29.5 -70.5t-29.5 -70.5t-70.5 -29.5t-70.5 29.5z" />
    <glyph glyph-name="ellipsis" unicode="&#x2026;" horiz-adv-x="650" 
d="M150 0h-90v90h90v-90zM370 0h-90v90h90v-90zM590 0h-90v90h90v-90z" />
    <glyph glyph-name="perthousand" unicode="&#x2030;" horiz-adv-x="1135" 
d="M117.5 420q-35.5 20 -56.5 55.5t-21 79.5t21 79.5t56.5 55.5t77.5 20t77.5 -20t56.5 -55.5t21 -79.5t-21 -79.5t-56.5 -55.5t-77.5 -20t-77.5 20zM205 0h-80l435 700h80zM255 490q25 25 25 65t-25 65t-60 25t-60 -25t-25 -65t25 -65t60 -25t60 25zM492.5 10
q-35.5 20 -56.5 55.5t-21 79.5t21 79.5t56.5 55.5t77.5 20t77.5 -20t56.5 -55.5t21 -79.5t-21 -79.5t-56.5 -55.5t-77.5 -20t-77.5 20zM862.5 10q-35.5 20 -56.5 55.5t-21 79.5t21 79.5t56.5 55.5t77.5 20t77.5 -20t56.5 -55.5t21 -79.5t-21 -79.5t-56.5 -55.5t-77.5 -20
t-77.5 20zM630 80q25 25 25 65t-25 65t-60 25t-60 -25t-25 -65t25 -65t60 -25t60 25zM1000 80q25 25 25 65t-25 65t-60 25t-60 -25t-25 -65t25 -65t60 -25t60 25z" />
    <glyph glyph-name="guilsinglleft" unicode="&#x2039;" horiz-adv-x="310" 
d="M265 55h-80l-140 195l140 195h80l-140 -195z" />
    <glyph glyph-name="guilsinglright" unicode="&#x203a;" horiz-adv-x="310" 
d="M125 55h-80l140 195l-140 195h80l140 -195z" />
    <glyph glyph-name="uni203D" unicode="&#x203d;" horiz-adv-x="505" 
d="M359 683q50 -27 78 -74t28 -104q0 -65 -30 -111.5t-85 -73.5q-42 -21 -56 -44t-14 -56v-60h-80v469q-44 -11 -69.5 -42.5t-25.5 -71.5h-80q0 55 28 99.5t78 70t114 25.5t114 -27zM385 505q0 48 -29 82t-76 44v-267q23 13 30 16q75 38 75 125zM285 0h-90v90h90v-90z" />
    <glyph glyph-name="fraction" unicode="&#x2044;" horiz-adv-x="85" 
d="M-140 0h-70l435 700h70z" />
    <glyph glyph-name="uni2070" unicode="&#x2070;" horiz-adv-x="350" 
d="M74 484q-39 49 -39 136q0 88 39 136.5t101 48.5t101 -48.5t39 -136.5q0 -87 -39 -136t-101 -49t-101 49zM231.5 523.5q23.5 33.5 23.5 96.5t-23.5 96.5t-56.5 33.5t-56.5 -33.5t-23.5 -96.5t23.5 -96.5t56.5 -33.5t56.5 33.5z" />
    <glyph glyph-name="uni2074" unicode="&#x2074;" horiz-adv-x="320" 
d="M245 440h-60v75h-165v50l135 235h90v-230h50v-55h-50v-75zM95 575v-5h90v150h-10z" />
    <glyph glyph-name="uni2075" unicode="&#x2075;" horiz-adv-x="335" 
d="M76.5 462.5q-33.5 27.5 -41.5 77.5h60q14 -50 70 -50q30 0 50 20t20 50q0 33 -19.5 51.5t-50.5 18.5q-22 0 -38.5 -8t-31.5 -27h-55l20 205h215v-55h-160l-10 -80h5q15 11 29 15.5t36 4.5q50 0 85 -35t35 -90q0 -54 -35.5 -89.5t-94.5 -35.5q-55 0 -88.5 27.5z" />
    <glyph glyph-name="uni2076" unicode="&#x2076;" horiz-adv-x="340" 
d="M77 471q-37 36 -37 89q0 47 20 80l100 160h65l-80 -125h5q15 5 30 5q49 0 84.5 -33.5t35.5 -83.5q0 -55 -37 -91.5t-93 -36.5t-93 36zM220 510q20 20 20 50t-20 50t-50 20t-50 -20t-20 -50t20 -50t50 -20t50 20z" />
    <glyph glyph-name="uni2077" unicode="&#x2077;" horiz-adv-x="295" 
d="M135 440h-60l128 305h-168v55h230v-50z" />
    <glyph glyph-name="uni2078" unicode="&#x2078;" horiz-adv-x="340" 
d="M80 466q-35 31 -35 74q0 32 15.5 54.5t34.5 30.5v5q-17 8 -31 28t-14 47q0 42 34 71t86 29t86 -29t34 -71q0 -27 -14 -47t-31 -28v-5q19 -8 34.5 -30.5t15.5 -54.5q0 -43 -35 -74t-90 -31t-90 31zM212.5 662.5q17.5 12.5 17.5 37.5t-17.5 37.5t-42.5 12.5t-42.5 -12.5
t-17.5 -37.5t17.5 -37.5t42.5 -12.5t42.5 12.5zM217 506q18 16 18 39t-18 39t-47 16t-47 -16t-18 -39t18 -39t47 -16t47 16z" />
    <glyph glyph-name="uni2079" unicode="&#x2079;" horiz-adv-x="340" 
d="M115 440l80 125h-5q-15 -5 -30 -5q-49 0 -84.5 33.5t-35.5 83.5q0 55 37 91.5t93 36.5t93 -36t37 -89q0 -47 -20 -80l-100 -160h-65zM220 630q20 20 20 50t-20 50t-50 20t-50 -20t-20 -50t20 -50t50 -20t50 20z" />
    <glyph glyph-name="uni2080" unicode="&#x2080;" horiz-adv-x="350" 
d="M74 -56q-39 49 -39 136q0 88 39 136.5t101 48.5t101 -48.5t39 -136.5q0 -87 -39 -136t-101 -49t-101 49zM231.5 -16.5q23.5 33.5 23.5 96.5t-23.5 96.5t-56.5 33.5t-56.5 -33.5t-23.5 -96.5t23.5 -96.5t56.5 -33.5t56.5 33.5z" />
    <glyph glyph-name="uni2081" unicode="&#x2081;" horiz-adv-x="255" 
d="M120 -100v260h-85v55h55q30 0 30 30v15h60v-360h-60z" />
    <glyph glyph-name="uni2082" unicode="&#x2082;" horiz-adv-x="335" 
d="M55 -100v50l140 145q16 16 23 29t7 31q0 23 -15 39t-40 16q-27 0 -43.5 -15.5t-16.5 -44.5h-60q0 49 34 82t86 33t83.5 -30.5t31.5 -79.5q0 -31 -11.5 -51.5t-38.5 -48.5l-90 -95v-5h145v-55h-235z" />
    <glyph glyph-name="uni2083" unicode="&#x2083;" horiz-adv-x="335" 
d="M79 -75q-34 30 -34 75h60q0 -19 17.5 -34.5t42.5 -15.5q27 0 43.5 14.5t16.5 40.5t-17.5 40.5t-47.5 14.5h-25v55h25q29 0 44.5 13.5t15.5 36.5q0 19 -15 32t-40 13t-40 -13t-15 -32h-60q0 42 32 71t83 29t83 -29t32 -71q0 -22 -13.5 -43t-36.5 -32v-5q24 -8 39.5 -29.5
t15.5 -50.5q0 -47 -32.5 -78.5t-87.5 -31.5q-52 0 -86 30z" />
    <glyph glyph-name="uni2084" unicode="&#x2084;" horiz-adv-x="320" 
d="M245 -100h-60v75h-165v50l135 235h90v-230h50v-55h-50v-75zM95 35v-5h90v150h-10z" />
    <glyph glyph-name="uni2085" unicode="&#x2085;" horiz-adv-x="335" 
d="M76.5 -77.5q-33.5 27.5 -41.5 77.5h60q14 -50 70 -50q30 0 50 20t20 50q0 33 -19.5 51.5t-50.5 18.5q-22 0 -38.5 -8t-31.5 -27h-55l20 205h215v-55h-160l-10 -80h5q15 11 29 15.5t36 4.5q50 0 85 -35t35 -90q0 -54 -35.5 -89.5t-94.5 -35.5q-55 0 -88.5 27.5z" />
    <glyph glyph-name="uni2086" unicode="&#x2086;" horiz-adv-x="340" 
d="M77 -69q-37 36 -37 89q0 47 20 80l100 160h65l-80 -125h5q15 5 30 5q49 0 84.5 -33.5t35.5 -83.5q0 -55 -37 -91.5t-93 -36.5t-93 36zM220 -30q20 20 20 50t-20 50t-50 20t-50 -20t-20 -50t20 -50t50 -20t50 20z" />
    <glyph glyph-name="uni2087" unicode="&#x2087;" horiz-adv-x="295" 
d="M135 -100h-60l128 305h-168v55h230v-50z" />
    <glyph glyph-name="uni2088" unicode="&#x2088;" horiz-adv-x="340" 
d="M80 -74q-35 31 -35 74q0 32 15.5 54.5t34.5 30.5v5q-17 8 -31 28t-14 47q0 42 34 71t86 29t86 -29t34 -71q0 -27 -14 -47t-31 -28v-5q19 -8 34.5 -30.5t15.5 -54.5q0 -43 -35 -74t-90 -31t-90 31zM212.5 122.5q17.5 12.5 17.5 37.5t-17.5 37.5t-42.5 12.5t-42.5 -12.5
t-17.5 -37.5t17.5 -37.5t42.5 -12.5t42.5 12.5zM217 -34q18 16 18 39t-18 39t-47 16t-47 -16t-18 -39t18 -39t47 -16t47 16z" />
    <glyph glyph-name="uni2089" unicode="&#x2089;" horiz-adv-x="340" 
d="M115 -100l80 125h-5q-15 -5 -30 -5q-49 0 -84.5 33.5t-35.5 83.5q0 55 37 91.5t93 36.5t93 -36t37 -89q0 -47 -20 -80l-100 -160h-65zM220 90q20 20 20 50t-20 50t-50 20t-50 -20t-20 -50t20 -50t50 -20t50 20z" />
    <glyph glyph-name="uni20A9" unicode="&#x20a9;" horiz-adv-x="990" 
d="M355 0h-140l-50 225h-130v75h114l-22 100h-92v75h75l-50 225h85l48 -225h191l51 225h120l51 -225h191l48 225h85l-50 -225h75v-75h-92l-22 -100h114v-75h-130l-50 -225h-140l-51 225h-178zM485 595l-24 -120h68l-24 120h-20zM209 400l21 -100h114l23 100h-158zM444 400
l-22 -100h146l-22 100h-102zM623 400l23 -100h114l21 100h-158zM246 225l29 -140h20l32 140h-81zM663 225l32 -140h20l29 140h-81z" />
    <glyph glyph-name="Euro" unicode="&#x20ac;" horiz-adv-x="710" 
d="M302.5 589.5q-62.5 -45.5 -87.5 -129.5h310v-70h-323q-2 -26 -2 -40t2 -40h323v-70h-310q25 -84 87.5 -129.5t152.5 -45.5q63 0 108.5 11t101.5 39v-75q-56 -28 -101.5 -39t-108.5 -11q-123 0 -210.5 67t-116.5 183h-103v70h92q-2 26 -2 40t2 40h-92v70h103
q29 116 116.5 183t210.5 67q63 0 108.5 -11t101.5 -39v-75q-56 28 -101.5 39t-108.5 11q-90 0 -152.5 -45.5z" />
    <glyph glyph-name="uni20B4" unicode="&#x20b4;" horiz-adv-x="640" 
d="M50 390v70h375q11 10 20.5 30t9.5 45q0 26 -16.5 49t-47 37t-71.5 14q-67 0 -104.5 -27.5t-45.5 -72.5h-80q8 78 68 126.5t162 48.5q63 0 112 -23.5t76 -62.5t27 -84q0 -25 -7.5 -47t-17.5 -33h80v-70h-540zM208 13.5q-49 23.5 -76 62.5t-27 84q0 25 7.5 47t17.5 33h-80
v70h540v-70h-375q-12 -10 -21 -30t-9 -45q0 -26 16.5 -49t47 -37t71.5 -14q67 0 104.5 27.5t45.5 72.5h80q-8 -78 -68 -126.5t-162 -48.5q-63 0 -112 23.5z" />
    <glyph glyph-name="uni20B8" unicode="&#x20b8;" horiz-adv-x="590" 
d="M565 625h-540v75h540v-75zM335 0h-80v470h-230v75h540v-75h-230v-470z" />
    <glyph glyph-name="uni20B9" unicode="&#x20b9;" horiz-adv-x="550" 
d="M520 700v-75h-105q15 -17 28.5 -45t16.5 -55h60v-75h-60q-11 -80 -64 -130t-131 -50h-64l279 -270h-100l-280 270h-60v75h225q44 0 74 27.5t41 77.5h-340v75h340q-12 46 -41.5 73t-73.5 27h-225v75h480z" />
    <glyph glyph-name="uni20BA" unicode="&#x20ba;" horiz-adv-x="590" 
d="M565 260q0 -88 -34.5 -145t-113.5 -86t-212 -29h-80v283l-90 -33v75l90 33v80l-90 -33v75l90 33v187h80v-157l170 62v-75l-170 -62v-80l170 62v-75l-170 -62v-238q109 1 169.5 21t85.5 59.5t25 104.5h80z" />
    <glyph glyph-name="uni20BD" unicode="&#x20bd;" horiz-adv-x="650" 
d="M115 0v140h-90v70h90v80h-90v75h90v335h295q55 0 99.5 -26.5t70 -73t25.5 -105.5t-25.5 -105.5t-70 -73t-99.5 -26.5h-215v-80h215v-70h-215v-140h-80zM410 365q50 0 82.5 35.5t32.5 94.5t-32.5 94.5t-82.5 35.5h-215v-260h215z" />
    <glyph glyph-name="uni20BF" unicode="&#x20bf;" horiz-adv-x="640" 
d="M190 -110v110h-110v700h110v110h75v-110h75v110h75v-115q67 -12 111 -63t44 -127q0 -53 -23.5 -93t-51.5 -57v-5q33 -15 59 -56t26 -99q0 -79 -47 -131t-118 -64v-110h-75v110h-75v-110h-75zM380 385q28 0 53.5 14.5t41 42t15.5 63.5q0 52 -32 86t-78 34h-220v-240h220z
M390 75q46 0 78 34t32 86t-32 86t-78 34h-230v-240h230z" />
    <glyph glyph-name="uni2113" unicode="&#x2113;" horiz-adv-x="405" 
d="M145.5 26.5q-35.5 36.5 -35.5 103.5v105q-16 -6 -40.5 -10.5t-49.5 -4.5v70q27 0 51.5 4.5t38.5 10.5v260q0 70 33.5 107.5t91.5 37.5q62 0 96 -39t34 -116q0 -95 -49.5 -174t-130.5 -121v-130q0 -33 19.5 -51.5t50.5 -18.5q28 0 55 15v-70q-32 -15 -65 -15
q-64 0 -99.5 36.5zM185 340q49 30 77 87t28 128q0 43 -15.5 64t-39.5 21t-37 -19t-13 -63v-218z" />
    <glyph glyph-name="uni2116" unicode="&#x2116;" horiz-adv-x="1065" 
d="M160 0h-80v700h140l300 -605h20v605h80v-700h-140l-300 605h-20v-605zM782.5 160q-35.5 20 -56.5 55.5t-21 79.5t21 79.5t56.5 55.5t77.5 20t77.5 -20t56.5 -55.5t21 -79.5t-21 -79.5t-56.5 -55.5t-77.5 -20t-77.5 20zM920 230q25 25 25 65t-25 65t-60 25t-60 -25
t-25 -65t25 -65t60 -25t60 25zM1010 0h-300v70h300v-70z" />
    <glyph glyph-name="uni2117" unicode="&#x2117;" horiz-adv-x="840" 
d="M236.5 37q-82.5 47 -129.5 129.5t-47 183.5t47 183.5t129.5 129.5t183.5 47t183.5 -47t129.5 -129.5t47 -183.5t-47 -183.5t-129.5 -129.5t-183.5 -47t-183.5 47zM565.5 93.5q66.5 38.5 105.5 106t39 150.5t-39 150.5t-105.5 106t-145.5 38.5t-145.5 -38.5t-105.5 -106
t-39 -150.5t39 -150.5t105.5 -106t145.5 -38.5t145.5 38.5zM305 165v375h165q53 0 89 -36t36 -89q0 -52 -36 -88.5t-89 -36.5h-100v-125h-65zM470 350q27 0 43.5 17.5t16.5 47.5t-16.5 47.5t-43.5 17.5h-100v-130h100z" />
    <glyph glyph-name="trademark" unicode="&#x2122;" horiz-adv-x="735" 
d="M170 400h-55v245h-95v55h245v-55h-95v-245zM375 400h-55v300h100l75 -225h10l75 225h100v-300h-55v240h-10l-80 -240h-70l-80 240h-10v-240z" />
    <glyph glyph-name="uni2126" unicode="&#x2126;" horiz-adv-x="820" 
d="M90 0v75h130q-60 36 -110 108t-50 177q0 101 45.5 180.5t125.5 124.5t179 45t179 -45t125.5 -124.5t45.5 -180.5q0 -105 -50 -177t-110 -108h130v-75h-250v75q47 18 93 57t76.5 97.5t30.5 130.5q0 79 -35 141.5t-96.5 98t-138.5 35.5t-138.5 -35.5t-96.5 -98t-35 -141.5
q0 -72 30.5 -130.5t76.5 -97.5t93 -57v-75h-250z" />
    <glyph glyph-name="estimated" unicode="&#x212e;" horiz-adv-x="850" 
d="M252 38q-85 48 -133.5 130.5t-48.5 181.5q0 98 48 181t131 131t181 48t181 -48t131 -131t48 -181v-5h-570v-238q30 -31 90 -56.5t130 -25.5q63 0 119 23t97 57.5t64 69.5l30 -25q-26 -38 -72 -74.5t-108 -61t-130 -24.5q-103 0 -188 48zM220 380h420v215q-42 38 -96.5 59
t-113.5 21t-113.5 -21t-96.5 -59v-215z" />
    <glyph glyph-name="uni2150" unicode="&#x2150;" horiz-adv-x="695" 
d="M120 340v260h-85v55h55q30 0 30 30v15h60v-360h-60zM135 0h-70l435 700h70zM535 0h-60l128 305h-168v55h230v-50z" />
    <glyph glyph-name="uni2151" unicode="&#x2151;" horiz-adv-x="720" 
d="M120 340v260h-85v55h55q30 0 30 30v15h60v-360h-60zM135 0h-70l435 700h70zM495 0l80 125h-5q-15 -5 -30 -5q-49 0 -84.5 33.5t-35.5 83.5q0 55 37 91.5t93 36.5t93 -36t37 -89q0 -47 -20 -80l-100 -160h-65zM600 190q20 20 20 50t-20 50t-50 20t-50 -20t-20 -50t20 -50
t50 -20t50 20z" />
    <glyph glyph-name="uni2152" unicode="&#x2152;" horiz-adv-x="960" 
d="M120 340v260h-85v55h55q30 0 30 30v15h60v-360h-60zM135 0h-70l435 700h70zM520 0v260h-85v55h55q30 0 30 30v15h60v-360h-60zM684 44q-39 49 -39 136q0 88 39 136.5t101 48.5t101 -48.5t39 -136.5q0 -87 -39 -136t-101 -49t-101 49zM841.5 83.5q23.5 33.5 23.5 96.5
t-23.5 96.5t-56.5 33.5t-56.5 -33.5t-23.5 -96.5t23.5 -96.5t56.5 -33.5t56.5 33.5z" />
    <glyph glyph-name="uni2153" unicode="&#x2153;" horiz-adv-x="695" 
d="M120 340v260h-85v55h55q30 0 30 30v15h60v-360h-60zM135 0h-70l435 700h70zM439 25q-34 30 -34 75h60q0 -19 17.5 -34.5t42.5 -15.5q27 0 43.5 14.5t16.5 40.5t-17.5 40.5t-47.5 14.5h-25v55h25q29 0 44.5 13.5t15.5 36.5q0 19 -15 32t-40 13t-40 -13t-15 -32h-60
q0 42 32 71t83 29t83 -29t32 -71q0 -22 -13.5 -43t-36.5 -32v-5q24 -8 39.5 -29.5t15.5 -50.5q0 -47 -32.5 -78.5t-87.5 -31.5q-52 0 -86 30z" />
    <glyph glyph-name="uni2154" unicode="&#x2154;" horiz-adv-x="775" 
d="M55 340v50l140 145q16 16 23 29t7 31q0 23 -15 39t-40 16q-27 0 -43.5 -15.5t-16.5 -44.5h-60q0 49 34 82t86 33t83.5 -30.5t31.5 -79.5q0 -31 -11.5 -51.5t-38.5 -48.5l-90 -95v-5h145v-55h-235zM215 0h-70l435 700h70zM519 25q-34 30 -34 75h60q0 -19 17.5 -34.5
t42.5 -15.5q27 0 43.5 14.5t16.5 40.5t-17.5 40.5t-47.5 14.5h-25v55h25q29 0 44.5 13.5t15.5 36.5q0 19 -15 32t-40 13t-40 -13t-15 -32h-60q0 42 32 71t83 29t83 -29t32 -71q0 -22 -13.5 -43t-36.5 -32v-5q24 -8 39.5 -29.5t15.5 -50.5q0 -47 -32.5 -78.5t-87.5 -31.5
q-52 0 -86 30z" />
    <glyph glyph-name="uni2155" unicode="&#x2155;" horiz-adv-x="715" 
d="M120 340v260h-85v55h55q30 0 30 30v15h60v-360h-60zM135 0h-70l435 700h70zM456.5 22.5q-33.5 27.5 -41.5 77.5h60q14 -50 70 -50q30 0 50 20t20 50q0 33 -19.5 51.5t-50.5 18.5q-22 0 -38.5 -8t-31.5 -27h-55l20 205h215v-55h-160l-10 -80h5q15 11 29 15.5t36 4.5
q50 0 85 -35t35 -90q0 -54 -35.5 -89.5t-94.5 -35.5q-55 0 -88.5 27.5z" />
    <glyph glyph-name="uni2156" unicode="&#x2156;" horiz-adv-x="795" 
d="M55 340v50l140 145q16 16 23 29t7 31q0 23 -15 39t-40 16q-27 0 -43.5 -15.5t-16.5 -44.5h-60q0 49 34 82t86 33t83.5 -30.5t31.5 -79.5q0 -31 -11.5 -51.5t-38.5 -48.5l-90 -95v-5h145v-55h-235zM215 0h-70l435 700h70zM536.5 22.5q-33.5 27.5 -41.5 77.5h60
q14 -50 70 -50q30 0 50 20t20 50q0 33 -19.5 51.5t-50.5 18.5q-22 0 -38.5 -8t-31.5 -27h-55l20 205h215v-55h-160l-10 -80h5q15 11 29 15.5t36 4.5q50 0 85 -35t35 -90q0 -54 -35.5 -89.5t-94.5 -35.5q-55 0 -88.5 27.5z" />
    <glyph glyph-name="uni2157" unicode="&#x2157;" horiz-adv-x="775" 
d="M79 365q-34 30 -34 75h60q0 -19 17.5 -34.5t42.5 -15.5q27 0 43.5 14.5t16.5 40.5t-17.5 40.5t-47.5 14.5h-25v55h25q29 0 44.5 13.5t15.5 36.5q0 19 -15 32t-40 13t-40 -13t-15 -32h-60q0 42 32 71t83 29t83 -29t32 -71q0 -22 -13.5 -43t-36.5 -32v-5q24 -8 39.5 -29.5
t15.5 -50.5q0 -47 -32.5 -78.5t-87.5 -31.5q-52 0 -86 30zM195 0h-70l435 700h70zM516.5 22.5q-33.5 27.5 -41.5 77.5h60q14 -50 70 -50q30 0 50 20t20 50q0 33 -19.5 51.5t-50.5 18.5q-22 0 -38.5 -8t-31.5 -27h-55l20 205h215v-55h-160l-10 -80h5q15 11 29 15.5t36 4.5
q50 0 85 -35t35 -90q0 -54 -35.5 -89.5t-94.5 -35.5q-55 0 -88.5 27.5z" />
    <glyph glyph-name="uni2158" unicode="&#x2158;" horiz-adv-x="800" 
d="M245 340h-60v75h-165v50l135 235h90v-230h50v-55h-50v-75zM95 475v-5h90v150h-10zM220 0h-70l435 700h70zM541.5 22.5q-33.5 27.5 -41.5 77.5h60q14 -50 70 -50q30 0 50 20t20 50q0 33 -19.5 51.5t-50.5 18.5q-22 0 -38.5 -8t-31.5 -27h-55l20 205h215v-55h-160l-10 -80
h5q15 11 29 15.5t36 4.5q50 0 85 -35t35 -90q0 -54 -35.5 -89.5t-94.5 -35.5q-55 0 -88.5 27.5z" />
    <glyph glyph-name="uni2159" unicode="&#x2159;" horiz-adv-x="680" 
d="M120 340v260h-85v55h55q30 0 30 30v15h60v-360h-60zM135 0h-70l435 700h70zM417 31q-37 36 -37 89q0 47 20 80l100 160h65l-80 -125h5q15 5 30 5q49 0 84.5 -33.5t35.5 -83.5q0 -55 -37 -91.5t-93 -36.5t-93 36zM560 70q20 20 20 50t-20 50t-50 20t-50 -20t-20 -50
t20 -50t50 -20t50 20z" />
    <glyph glyph-name="uni215A" unicode="&#x215a;" horiz-adv-x="740" 
d="M76.5 362.5q-33.5 27.5 -41.5 77.5h60q14 -50 70 -50q30 0 50 20t20 50q0 33 -19.5 51.5t-50.5 18.5q-22 0 -38.5 -8t-31.5 -27h-55l20 205h215v-55h-160l-10 -80h5q15 11 29 15.5t36 4.5q50 0 85 -35t35 -90q0 -54 -35.5 -89.5t-94.5 -35.5q-55 0 -88.5 27.5zM195 0h-70
l435 700h70zM477 31q-37 36 -37 89q0 47 20 80l100 160h65l-80 -125h5q15 5 30 5q49 0 84.5 -33.5t35.5 -83.5q0 -55 -37 -91.5t-93 -36.5t-93 36zM620 70q20 20 20 50t-20 50t-50 20t-50 -20t-20 -50t20 -50t50 -20t50 20z" />
    <glyph glyph-name="oneeighth" unicode="&#x215b;" horiz-adv-x="700" 
d="M120 340v260h-85v55h55q30 0 30 30v15h60v-360h-60zM135 0h-70l435 700h70zM440 26q-35 31 -35 74q0 32 15.5 54.5t34.5 30.5v5q-17 8 -31 28t-14 47q0 42 34 71t86 29t86 -29t34 -71q0 -27 -14 -47t-31 -28v-5q19 -8 34.5 -30.5t15.5 -54.5q0 -43 -35 -74t-90 -31
t-90 31zM572.5 222.5q17.5 12.5 17.5 37.5t-17.5 37.5t-42.5 12.5t-42.5 -12.5t-17.5 -37.5t17.5 -37.5t42.5 -12.5t42.5 12.5zM577 66q18 16 18 39t-18 39t-47 16t-47 -16t-18 -39t18 -39t47 -16t47 16z" />
    <glyph glyph-name="threeeighths" unicode="&#x215c;" horiz-adv-x="760" 
d="M79 365q-34 30 -34 75h60q0 -19 17.5 -34.5t42.5 -15.5q27 0 43.5 14.5t16.5 40.5t-17.5 40.5t-47.5 14.5h-25v55h25q29 0 44.5 13.5t15.5 36.5q0 19 -15 32t-40 13t-40 -13t-15 -32h-60q0 42 32 71t83 29t83 -29t32 -71q0 -22 -13.5 -43t-36.5 -32v-5q24 -8 39.5 -29.5
t15.5 -50.5q0 -47 -32.5 -78.5t-87.5 -31.5q-52 0 -86 30zM195 0h-70l435 700h70zM500 26q-35 31 -35 74q0 32 15.5 54.5t34.5 30.5v5q-17 8 -31 28t-14 47q0 42 34 71t86 29t86 -29t34 -71q0 -27 -14 -47t-31 -28v-5q19 -8 34.5 -30.5t15.5 -54.5q0 -43 -35 -74t-90 -31
t-90 31zM632.5 222.5q17.5 12.5 17.5 37.5t-17.5 37.5t-42.5 12.5t-42.5 -12.5t-17.5 -37.5t17.5 -37.5t42.5 -12.5t42.5 12.5zM637 66q18 16 18 39t-18 39t-47 16t-47 -16t-18 -39t18 -39t47 -16t47 16z" />
    <glyph glyph-name="fiveeighths" unicode="&#x215d;" horiz-adv-x="760" 
d="M76.5 362.5q-33.5 27.5 -41.5 77.5h60q14 -50 70 -50q30 0 50 20t20 50q0 33 -19.5 51.5t-50.5 18.5q-22 0 -38.5 -8t-31.5 -27h-55l20 205h215v-55h-160l-10 -80h5q15 11 29 15.5t36 4.5q50 0 85 -35t35 -90q0 -54 -35.5 -89.5t-94.5 -35.5q-55 0 -88.5 27.5zM195 0h-70
l435 700h70zM500 26q-35 31 -35 74q0 32 15.5 54.5t34.5 30.5v5q-17 8 -31 28t-14 47q0 42 34 71t86 29t86 -29t34 -71q0 -27 -14 -47t-31 -28v-5q19 -8 34.5 -30.5t15.5 -54.5q0 -43 -35 -74t-90 -31t-90 31zM632.5 222.5q17.5 12.5 17.5 37.5t-17.5 37.5t-42.5 12.5
t-42.5 -12.5t-17.5 -37.5t17.5 -37.5t42.5 -12.5t42.5 12.5zM637 66q18 16 18 39t-18 39t-47 16t-47 -16t-18 -39t18 -39t47 -16t47 16z" />
    <glyph glyph-name="seveneighths" unicode="&#x215e;" horiz-adv-x="720" 
d="M135 340h-60l128 305h-168v55h230v-50zM155 0h-70l435 700h70zM460 26q-35 31 -35 74q0 32 15.5 54.5t34.5 30.5v5q-17 8 -31 28t-14 47q0 42 34 71t86 29t86 -29t34 -71q0 -27 -14 -47t-31 -28v-5q19 -8 34.5 -30.5t15.5 -54.5q0 -43 -35 -74t-90 -31t-90 31z
M592.5 222.5q17.5 12.5 17.5 37.5t-17.5 37.5t-42.5 12.5t-42.5 -12.5t-17.5 -37.5t17.5 -37.5t42.5 -12.5t42.5 12.5zM597 66q18 16 18 39t-18 39t-47 16t-47 -16t-18 -39t18 -39t47 -16t47 16z" />
    <glyph glyph-name="uni215F" unicode="&#x215f;" horiz-adv-x="360" 
d="M120 340v260h-85v55h55q30 0 30 30v15h60v-360h-60zM135 0h-70l435 700h70z" />
    <glyph glyph-name="arrowleft" unicode="&#x2190;" horiz-adv-x="1000" 
d="M415 160h-85l-180 180v20l180 180h85v-10l-140 -140v-5h575v-70h-575v-5l140 -140v-10z" />
    <glyph glyph-name="arrowup" unicode="&#x2191;" horiz-adv-x="1000" 
d="M537 0h-75v570h-5l-140 -140h-10v85l185 185h15l185 -185v-85h-10l-140 140h-5v-570z" />
    <glyph glyph-name="arrowright" unicode="&#x2192;" horiz-adv-x="1000" 
d="M670 160h-85v10l140 140v5h-575v70h575v5l-140 140v10h85l180 -180v-20z" />
    <glyph glyph-name="arrowdown" unicode="&#x2193;" horiz-adv-x="1000" 
d="M507 0h-15l-185 185v85h10l140 -140h5v570h75v-570h5l140 140h10v-85z" />
    <glyph glyph-name="uni2196" unicode="&#x2196;" horiz-adv-x="1000" 
d="M770 140l-50 -50l-400 400l-5 -5v-200l-5 -5l-60 60v260l10 10h260l60 -60l-5 -5h-200l-5 -5z" />
    <glyph glyph-name="uni2197" unicode="&#x2197;" horiz-adv-x="1000" 
d="M680 490l-400 -400l-50 50l400 400l-5 5h-200l-5 5l60 60h260l10 -10v-260l-60 -60l-5 5v200z" />
    <glyph glyph-name="uni2198" unicode="&#x2198;" horiz-adv-x="1000" 
d="M740 90h-260l-60 60l5 5h200l5 5l-400 400l50 50l400 -400l5 5v200l5 5l60 -60v-260z" />
    <glyph glyph-name="uni2199" unicode="&#x2199;" horiz-adv-x="1000" 
d="M520 90h-260l-10 10v260l60 60l5 -5v-200l5 -5l400 400l50 -50l-400 -400l5 -5h200l5 -5z" />
    <glyph glyph-name="partialdiff" unicode="&#x2202;" horiz-adv-x="570" 
d="M439.5 619.5q65.5 -90.5 65.5 -279.5q0 -179 -64.5 -264.5t-175.5 -85.5q-57 0 -105 29t-76.5 80.5t-28.5 115.5t28.5 115.5t78 80.5t108.5 29q53 0 94.5 -20t60.5 -45h5q-1 136 -47 200.5t-123 64.5q-39 0 -61 -12.5t-39 -37.5h-75q7 31 31 58.5t62.5 44.5t86.5 17
q109 0 174.5 -90.5zM381.5 118q43.5 58 43.5 172q-21 30 -62 55t-88 25q-64 0 -104.5 -42t-40.5 -113q0 -44 19 -79.5t51.5 -55.5t69.5 -20q68 0 111.5 58z" />
    <glyph glyph-name="emptyset" unicode="&#x2205;" horiz-adv-x="840" 
d="M780 717l-101 -118q44 -48 67.5 -111.5t23.5 -137.5q0 -103 -45.5 -185.5t-125.5 -128.5t-179 -46q-115 0 -205 63l-60 -70h-95l101 118q-44 48 -67.5 111.5t-23.5 137.5q0 103 45.5 185.5t125.5 128.5t179 46q115 0 205 -63l60 70h95zM166 246q16 -48 45 -85l364 427
q-67 47 -155 47q-77 0 -138.5 -36t-96.5 -100.5t-35 -148.5q0 -56 16 -104zM628 539l-364 -428q70 -46 156 -46q77 0 138.5 36t96.5 100.5t35 148.5q0 111 -62 189z" />
    <glyph glyph-name="uni2206" unicode="&#x2206;" horiz-adv-x="680" 
d="M645 0h-610l255 700h100zM340 615l-195 -540h390z" />
    <glyph glyph-name="product" unicode="&#x220f;" horiz-adv-x="735" 
d="M185 -110h-80v810h525v-810h-80v735h-365v-735z" />
    <glyph glyph-name="summation" unicode="&#x2211;" horiz-adv-x="600" 
d="M550 -110h-480v65l230 355l-230 325v65h480v-75h-380l225 -315l-225 -345h380v-75z" />
    <glyph glyph-name="minus" unicode="&#x2212;" horiz-adv-x="535" 
d="M485 255h-435v70h435v-70z" />
    <glyph glyph-name="radical" unicode="&#x221a;" horiz-adv-x="630" 
d="M335 -110h-110l-80 255h-125v75h180l70 -245h20l245 835h80z" />
    <glyph glyph-name="infinity" unicode="&#x221e;" horiz-adv-x="800" 
d="M147 220q-36 20 -56.5 54t-20.5 76t20.5 76.5t56.5 54t83 19.5q88 0 170 -100q82 100 170 100q47 0 83 -19.5t56.5 -54t20.5 -76.5t-20.5 -76.5t-56.5 -54t-83 -19.5q-88 0 -170 100q-82 -100 -170 -100q-47 0 -83 20zM295.5 288q32.5 23 59.5 62q-27 39 -59.5 62
t-65.5 23q-41 0 -65.5 -23.5t-24.5 -61.5t24.5 -61.5t65.5 -23.5q33 0 65.5 23zM635.5 288.5q24.5 23.5 24.5 61.5t-24.5 61.5t-65.5 23.5q-33 0 -65.5 -23t-59.5 -62q27 -39 59.5 -62t65.5 -23q41 0 65.5 23.5z" />
    <glyph glyph-name="integral" unicode="&#x222b;" horiz-adv-x="390" 
d="M55 -110v65h30q38 0 56.5 20.5t18.5 64.5v620q0 82 33 116t112 34h30v-65h-30q-38 0 -56.5 -20.5t-18.5 -64.5v-620q0 -82 -33 -116t-112 -34h-30z" />
    <glyph glyph-name="approxequal" unicode="&#x2248;" horiz-adv-x="565" 
d="M45 295q4 71 42.5 110.5t102.5 39.5q33 0 57 -11.5t55 -34.5q23 -17 39 -25.5t34 -8.5q63 0 70 80h75q-4 -71 -42.5 -110.5t-102.5 -39.5q-33 0 -57 11.5t-55 34.5q-23 17 -39 25.5t-34 8.5q-63 0 -70 -80h-75zM45 105q4 71 42.5 110.5t102.5 39.5q33 0 57 -11.5
t55 -34.5q23 -17 39 -25.5t34 -8.5q63 0 70 80h75q-4 -71 -42.5 -110.5t-102.5 -39.5q-33 0 -57 11.5t-55 34.5q-23 17 -39 25.5t-34 8.5q-63 0 -70 -80h-75z" />
    <glyph glyph-name="notequal" unicode="&#x2260;" horiz-adv-x="525" 
d="M217 70h-75l38 100h-110v70h135l40 100h-175v70h200l37 100h75l-37 -100h110v-70h-135l-40 -100h175v-70h-200z" />
    <glyph glyph-name="lessequal" unicode="&#x2264;" horiz-adv-x="535" 
d="M480 205v-75l-425 155v70l425 155v-75l-335 -115zM480 0h-425v70h425v-70z" />
    <glyph glyph-name="greaterequal" unicode="&#x2265;" horiz-adv-x="535" 
d="M480 285l-425 -155v75l335 115l-335 115v75l425 -155v-70zM480 0h-425v70h425v-70z" />
    <glyph glyph-name="uni2318" unicode="&#x2318;" horiz-adv-x="800" 
d="M83.5 36.5q-38.5 36.5 -38.5 93.5q0 68 39.5 106.5t110.5 38.5h65v150h-65q-71 0 -110.5 38.5t-39.5 106.5q0 57 38.5 93.5t101.5 36.5q68 0 106.5 -39.5t38.5 -110.5v-60h140v60q0 71 38.5 110.5t106.5 39.5q63 0 101.5 -36.5t38.5 -93.5q0 -68 -39.5 -106.5
t-110.5 -38.5h-65v-150h65q71 0 110.5 -38.5t39.5 -106.5q0 -57 -38.5 -93.5t-101.5 -36.5q-68 0 -106.5 39.5t-38.5 110.5v60h-140v-60q0 -71 -38.5 -110.5t-106.5 -39.5q-63 0 -101.5 36.5zM260 490v60q0 41 -20.5 63t-54.5 22q-30 0 -50 -20t-20 -50q0 -34 21.5 -54.5
t58.5 -20.5h65zM605 490q37 0 58.5 20.5t21.5 54.5q0 30 -20 50t-50 20q-34 0 -54.5 -22t-20.5 -63v-60h65zM330 425v-150h140v150h-140zM239.5 87q20.5 22 20.5 63v60h-65q-37 0 -58.5 -20.5t-21.5 -54.5q0 -30 20 -50t50 -20q34 0 54.5 22zM665 85q20 20 20 50
q0 34 -21.5 54.5t-58.5 20.5h-65v-60q0 -41 20.5 -63t54.5 -22q30 0 50 20z" />
    <glyph glyph-name="uni2460" unicode="&#x2460;" horiz-adv-x="1000" 
d="M288 -14q-96 56 -152 152t-56 212t56 212t152 152t212 56t212 -56t152 -152t56 -212t-56 -212t-152 -152t-212 -56t-212 56zM683.5 37q82.5 47 129.5 129.5t47 183.5t-47 183.5t-129.5 129.5t-183.5 47t-183.5 -47t-129.5 -129.5t-47 -183.5t47 -183.5t129.5 -129.5
t183.5 -47t183.5 47zM485 170v260h-85v55h55q30 0 30 30v15h60v-360h-60z" />
    <glyph glyph-name="uni2461" unicode="&#x2461;" horiz-adv-x="1000" 
d="M288 -14q-96 56 -152 152t-56 212t56 212t152 152t212 56t212 -56t152 -152t56 -212t-56 -212t-152 -152t-212 -56t-212 56zM683.5 37q82.5 47 129.5 129.5t47 183.5t-47 183.5t-129.5 129.5t-183.5 47t-183.5 -47t-129.5 -129.5t-47 -183.5t47 -183.5t129.5 -129.5
t183.5 -47t183.5 47zM385 170v50l140 145q16 16 23 29t7 31q0 23 -15 39t-40 16q-27 0 -43.5 -15.5t-16.5 -44.5h-60q0 49 34 82t86 33t83.5 -30.5t31.5 -79.5q0 -31 -11.5 -51.5t-38.5 -48.5l-90 -95v-5h145v-55h-235z" />
    <glyph glyph-name="uni2462" unicode="&#x2462;" horiz-adv-x="1000" 
d="M288 -14q-96 56 -152 152t-56 212t56 212t152 152t212 56t212 -56t152 -152t56 -212t-56 -212t-152 -152t-212 -56t-212 56zM683.5 37q82.5 47 129.5 129.5t47 183.5t-47 183.5t-129.5 129.5t-183.5 47t-183.5 -47t-129.5 -129.5t-47 -183.5t47 -183.5t129.5 -129.5
t183.5 -47t183.5 47zM414 195q-34 30 -34 75h60q0 -19 17.5 -34.5t42.5 -15.5q27 0 43.5 14.5t16.5 40.5t-17.5 40.5t-47.5 14.5h-25v55h25q29 0 44.5 13.5t15.5 36.5q0 19 -15 32t-40 13t-40 -13t-15 -32h-60q0 42 32 71t83 29t83 -29t32 -71q0 -22 -13.5 -43t-36.5 -32v-5
q24 -8 39.5 -29.5t15.5 -50.5q0 -47 -32.5 -78.5t-87.5 -31.5q-52 0 -86 30z" />
    <glyph glyph-name="uni2463" unicode="&#x2463;" horiz-adv-x="1000" 
d="M288 -14q-96 56 -152 152t-56 212t56 212t152 152t212 56t212 -56t152 -152t56 -212t-56 -212t-152 -152t-212 -56t-212 56zM683.5 37q82.5 47 129.5 129.5t47 183.5t-47 183.5t-129.5 129.5t-183.5 47t-183.5 -47t-129.5 -129.5t-47 -183.5t47 -183.5t129.5 -129.5
t183.5 -47t183.5 47zM570 170h-60v75h-165v50l135 235h90v-230h50v-55h-50v-75zM420 305v-5h90v150h-10z" />
    <glyph glyph-name="uni2464" unicode="&#x2464;" horiz-adv-x="1000" 
d="M288 -14q-96 56 -152 152t-56 212t56 212t152 152t212 56t212 -56t152 -152t56 -212t-56 -212t-152 -152t-212 -56t-212 56zM683.5 37q82.5 47 129.5 129.5t47 183.5t-47 183.5t-129.5 129.5t-183.5 47t-183.5 -47t-129.5 -129.5t-47 -183.5t47 -183.5t129.5 -129.5
t183.5 -47t183.5 47zM411.5 192.5q-33.5 27.5 -41.5 77.5h60q14 -50 70 -50q30 0 50 20t20 50q0 33 -19.5 51.5t-50.5 18.5q-22 0 -38.5 -8t-31.5 -27h-55l20 205h215v-55h-160l-10 -80h5q15 11 29 15.5t36 4.5q50 0 85 -35t35 -90q0 -54 -35.5 -89.5t-94.5 -35.5
q-55 0 -88.5 27.5z" />
    <glyph glyph-name="uni2465" unicode="&#x2465;" horiz-adv-x="1000" 
d="M288 -14q-96 56 -152 152t-56 212t56 212t152 152t212 56t212 -56t152 -152t56 -212t-56 -212t-152 -152t-212 -56t-212 56zM683.5 37q82.5 47 129.5 129.5t47 183.5t-47 183.5t-129.5 129.5t-183.5 47t-183.5 -47t-129.5 -129.5t-47 -183.5t47 -183.5t129.5 -129.5
t183.5 -47t183.5 47zM407 201q-37 36 -37 89q0 47 20 80l100 160h65l-80 -125h5q15 5 30 5q49 0 84.5 -33.5t35.5 -83.5q0 -55 -37 -91.5t-93 -36.5t-93 36zM550 240q20 20 20 50t-20 50t-50 20t-50 -20t-20 -50t20 -50t50 -20t50 20z" />
    <glyph glyph-name="uni2466" unicode="&#x2466;" horiz-adv-x="1000" 
d="M288 -14q-96 56 -152 152t-56 212t56 212t152 152t212 56t212 -56t152 -152t56 -212t-56 -212t-152 -152t-212 -56t-212 56zM683.5 37q82.5 47 129.5 129.5t47 183.5t-47 183.5t-129.5 129.5t-183.5 47t-183.5 -47t-129.5 -129.5t-47 -183.5t47 -183.5t129.5 -129.5
t183.5 -47t183.5 47zM485 170h-60l128 305h-168v55h230v-50z" />
    <glyph glyph-name="uni2467" unicode="&#x2467;" horiz-adv-x="1000" 
d="M288 -14q-96 56 -152 152t-56 212t56 212t152 152t212 56t212 -56t152 -152t56 -212t-56 -212t-152 -152t-212 -56t-212 56zM683.5 37q82.5 47 129.5 129.5t47 183.5t-47 183.5t-129.5 129.5t-183.5 47t-183.5 -47t-129.5 -129.5t-47 -183.5t47 -183.5t129.5 -129.5
t183.5 -47t183.5 47zM410 196q-35 31 -35 74q0 32 15.5 54.5t34.5 30.5v5q-17 8 -31 28t-14 47q0 42 34 71t86 29t86 -29t34 -71q0 -27 -14 -47t-31 -28v-5q19 -8 34.5 -30.5t15.5 -54.5q0 -43 -35 -74t-90 -31t-90 31zM542.5 392.5q17.5 12.5 17.5 37.5t-17.5 37.5
t-42.5 12.5t-42.5 -12.5t-17.5 -37.5t17.5 -37.5t42.5 -12.5t42.5 12.5zM547 236q18 16 18 39t-18 39t-47 16t-47 -16t-18 -39t18 -39t47 -16t47 16z" />
    <glyph glyph-name="uni2468" unicode="&#x2468;" horiz-adv-x="1000" 
d="M288 -14q-96 56 -152 152t-56 212t56 212t152 152t212 56t212 -56t152 -152t56 -212t-56 -212t-152 -152t-212 -56t-212 56zM683.5 37q82.5 47 129.5 129.5t47 183.5t-47 183.5t-129.5 129.5t-183.5 47t-183.5 -47t-129.5 -129.5t-47 -183.5t47 -183.5t129.5 -129.5
t183.5 -47t183.5 47zM445 170l80 125h-5q-15 -5 -30 -5q-49 0 -84.5 33.5t-35.5 83.5q0 55 37 91.5t93 36.5t93 -36t37 -89q0 -47 -20 -80l-100 -160h-65zM550 360q20 20 20 50t-20 50t-50 20t-50 -20t-20 -50t20 -50t50 -20t50 20z" />
    <glyph glyph-name="uni2469" unicode="&#x2469;" horiz-adv-x="1000" 
d="M288 -14q-96 56 -152 152t-56 212t56 212t152 152t212 56t212 -56t152 -152t56 -212t-56 -212t-152 -152t-212 -56t-212 56zM683.5 37q82.5 47 129.5 129.5t47 183.5t-47 183.5t-129.5 129.5t-183.5 47t-183.5 -47t-129.5 -129.5t-47 -183.5t47 -183.5t129.5 -129.5
t183.5 -47t183.5 47zM499 214q-39 49 -39 136q0 88 39 136.5t101 48.5t101 -48.5t39 -136.5q0 -87 -39 -136t-101 -49t-101 49zM335 170v260h-85v55h55q30 0 30 30v15h60v-360h-60zM656.5 253.5q23.5 33.5 23.5 96.5t-23.5 96.5t-56.5 33.5t-56.5 -33.5t-23.5 -96.5
t23.5 -96.5t56.5 -33.5t56.5 33.5z" />
    <glyph glyph-name="uni246A" unicode="&#x246a;" horiz-adv-x="1000" 
d="M288 -14q-96 56 -152 152t-56 212t56 212t152 152t212 56t212 -56t152 -152t56 -212t-56 -212t-152 -152t-212 -56t-212 56zM683.5 37q82.5 47 129.5 129.5t47 183.5t-47 183.5t-129.5 129.5t-183.5 47t-183.5 -47t-129.5 -129.5t-47 -183.5t47 -183.5t129.5 -129.5
t183.5 -47t183.5 47zM380 170v260h-85v55h55q30 0 30 30v15h60v-360h-60zM595 170v260h-85v55h55q30 0 30 30v15h60v-360h-60z" />
    <glyph glyph-name="uni246B" unicode="&#x246b;" horiz-adv-x="1000" 
d="M288 -14q-96 56 -152 152t-56 212t56 212t152 152t212 56t212 -56t152 -152t56 -212t-56 -212t-152 -152t-212 -56t-212 56zM683.5 37q82.5 47 129.5 129.5t47 183.5t-47 183.5t-129.5 129.5t-183.5 47t-183.5 -47t-129.5 -129.5t-47 -183.5t47 -183.5t129.5 -129.5
t183.5 -47t183.5 47zM480 170v50l140 145q16 16 23 29t7 31q0 23 -15 39t-40 16q-27 0 -43.5 -15.5t-16.5 -44.5h-60q0 49 34 82t86 33t83.5 -30.5t31.5 -79.5q0 -31 -11.5 -51.5t-38.5 -48.5l-90 -95v-5h145v-55h-235zM350 170v260h-85v55h55q30 0 30 30v15h60v-360h-60z
" />
    <glyph glyph-name="uni246C" unicode="&#x246c;" horiz-adv-x="1000" 
d="M288 -14q-96 56 -152 152t-56 212t56 212t152 152t212 56t212 -56t152 -152t56 -212t-56 -212t-152 -152t-212 -56t-212 56zM683.5 37q82.5 47 129.5 129.5t47 183.5t-47 183.5t-129.5 129.5t-183.5 47t-183.5 -47t-129.5 -129.5t-47 -183.5t47 -183.5t129.5 -129.5
t183.5 -47t183.5 47zM509 195q-34 30 -34 75h60q0 -19 17.5 -34.5t42.5 -15.5q27 0 43.5 14.5t16.5 40.5t-17.5 40.5t-47.5 14.5h-25v55h25q29 0 44.5 13.5t15.5 36.5q0 19 -15 32t-40 13t-40 -13t-15 -32h-60q0 42 32 71t83 29t83 -29t32 -71q0 -22 -13.5 -43t-36.5 -32v-5
q24 -8 39.5 -29.5t15.5 -50.5q0 -47 -32.5 -78.5t-87.5 -31.5q-52 0 -86 30zM350 170v260h-85v55h55q30 0 30 30v15h60v-360h-60z" />
    <glyph glyph-name="uni246D" unicode="&#x246d;" horiz-adv-x="1000" 
d="M288 -14q-96 56 -152 152t-56 212t56 212t152 152t212 56t212 -56t152 -152t56 -212t-56 -212t-152 -152t-212 -56t-212 56zM683.5 37q82.5 47 129.5 129.5t47 183.5t-47 183.5t-129.5 129.5t-183.5 47t-183.5 -47t-129.5 -129.5t-47 -183.5t47 -183.5t129.5 -129.5
t183.5 -47t183.5 47zM340 170v260h-85v55h55q30 0 30 30v15h60v-360h-60zM685 170h-60v75h-165v50l135 235h90v-230h50v-55h-50v-75zM535 305v-5h90v150h-10z" />
    <glyph glyph-name="uni246E" unicode="&#x246e;" horiz-adv-x="1000" 
d="M288 -14q-96 56 -152 152t-56 212t56 212t152 152t212 56t212 -56t152 -152t56 -212t-56 -212t-152 -152t-212 -56t-212 56zM683.5 37q82.5 47 129.5 129.5t47 183.5t-47 183.5t-129.5 129.5t-183.5 47t-183.5 -47t-129.5 -129.5t-47 -183.5t47 -183.5t129.5 -129.5
t183.5 -47t183.5 47zM340 170v260h-85v55h55q30 0 30 30v15h60v-360h-60zM506.5 192.5q-33.5 27.5 -41.5 77.5h60q14 -50 70 -50q30 0 50 20t20 50q0 33 -19.5 51.5t-50.5 18.5q-22 0 -38.5 -8t-31.5 -27h-55l20 205h215v-55h-160l-10 -80h5q15 11 29 15.5t36 4.5
q50 0 85 -35t35 -90q0 -54 -35.5 -89.5t-94.5 -35.5q-55 0 -88.5 27.5z" />
    <glyph glyph-name="uni246F" unicode="&#x246f;" horiz-adv-x="1000" 
d="M288 -14q-96 56 -152 152t-56 212t56 212t152 152t212 56t212 -56t152 -152t56 -212t-56 -212t-152 -152t-212 -56t-212 56zM683.5 37q82.5 47 129.5 129.5t47 183.5t-47 183.5t-129.5 129.5t-183.5 47t-183.5 -47t-129.5 -129.5t-47 -183.5t47 -183.5t129.5 -129.5
t183.5 -47t183.5 47zM345 170v260h-85v55h55q30 0 30 30v15h60v-360h-60zM507 201q-37 36 -37 89q0 47 20 80l100 160h65l-80 -125h5q15 5 30 5q49 0 84.5 -33.5t35.5 -83.5q0 -55 -37 -91.5t-93 -36.5t-93 36zM650 240q20 20 20 50t-20 50t-50 20t-50 -20t-20 -50t20 -50
t50 -20t50 20z" />
    <glyph glyph-name="uni2470" unicode="&#x2470;" horiz-adv-x="1000" 
d="M288 -14q-96 56 -152 152t-56 212t56 212t152 152t212 56t212 -56t152 -152t56 -212t-56 -212t-152 -152t-212 -56t-212 56zM683.5 37q82.5 47 129.5 129.5t47 183.5t-47 183.5t-129.5 129.5t-183.5 47t-183.5 -47t-129.5 -129.5t-47 -183.5t47 -183.5t129.5 -129.5
t183.5 -47t183.5 47zM360 170v260h-85v55h55q30 0 30 30v15h60v-360h-60zM580 170h-60l128 305h-168v55h230v-50z" />
    <glyph glyph-name="uni2471" unicode="&#x2471;" horiz-adv-x="1000" 
d="M288 -14q-96 56 -152 152t-56 212t56 212t152 152t212 56t212 -56t152 -152t56 -212t-56 -212t-152 -152t-212 -56t-212 56zM683.5 37q82.5 47 129.5 129.5t47 183.5t-47 183.5t-129.5 129.5t-183.5 47t-183.5 -47t-129.5 -129.5t-47 -183.5t47 -183.5t129.5 -129.5
t183.5 -47t183.5 47zM505 196q-35 31 -35 74q0 32 15.5 54.5t34.5 30.5v5q-17 8 -31 28t-14 47q0 42 34 71t86 29t86 -29t34 -71q0 -27 -14 -47t-31 -28v-5q19 -8 34.5 -30.5t15.5 -54.5q0 -43 -35 -74t-90 -31t-90 31zM345 170v260h-85v55h55q30 0 30 30v15h60v-360h-60z
M637.5 392.5q17.5 12.5 17.5 37.5t-17.5 37.5t-42.5 12.5t-42.5 -12.5t-17.5 -37.5t17.5 -37.5t42.5 -12.5t42.5 12.5zM642 236q18 16 18 39t-18 39t-47 16t-47 -16t-18 -39t18 -39t47 -16t47 16z" />
    <glyph glyph-name="uni2472" unicode="&#x2472;" horiz-adv-x="1000" 
d="M288 -14q-96 56 -152 152t-56 212t56 212t152 152t212 56t212 -56t152 -152t56 -212t-56 -212t-152 -152t-212 -56t-212 56zM683.5 37q82.5 47 129.5 129.5t47 183.5t-47 183.5t-129.5 129.5t-183.5 47t-183.5 -47t-129.5 -129.5t-47 -183.5t47 -183.5t129.5 -129.5
t183.5 -47t183.5 47zM550 170l80 125h-5q-15 -5 -30 -5q-49 0 -84.5 33.5t-35.5 83.5q0 55 37 91.5t93 36.5t93 -36t37 -89q0 -47 -20 -80l-100 -160h-65zM350 170v260h-85v55h55q30 0 30 30v15h60v-360h-60zM655 360q20 20 20 50t-20 50t-50 20t-50 -20t-20 -50t20 -50
t50 -20t50 20z" />
    <glyph glyph-name="uni2473" unicode="&#x2473;" horiz-adv-x="1000" 
d="M288 -14q-96 56 -152 152t-56 212t56 212t152 152t212 56t212 -56t152 -152t56 -212t-56 -212t-152 -152t-212 -56t-212 56zM683.5 37q82.5 47 129.5 129.5t47 183.5t-47 183.5t-129.5 129.5t-183.5 47t-183.5 -47t-129.5 -129.5t-47 -183.5t47 -183.5t129.5 -129.5
t183.5 -47t183.5 47zM230 170v50l140 145q16 16 23 29t7 31q0 23 -15 39t-40 16q-27 0 -43.5 -15.5t-16.5 -44.5h-60q0 49 34 82t86 33t83.5 -30.5t31.5 -79.5q0 -31 -11.5 -51.5t-38.5 -48.5l-90 -95v-5h145v-55h-235zM549 214q-39 49 -39 136q0 88 39 136.5t101 48.5
t101 -48.5t39 -136.5q0 -87 -39 -136t-101 -49t-101 49zM706.5 253.5q23.5 33.5 23.5 96.5t-23.5 96.5t-56.5 33.5t-56.5 -33.5t-23.5 -96.5t23.5 -96.5t56.5 -33.5t56.5 33.5z" />
    <glyph glyph-name="uni24EA" unicode="&#x24ea;" horiz-adv-x="1000" 
d="M288 -14q-96 56 -152 152t-56 212t56 212t152 152t212 56t212 -56t152 -152t56 -212t-56 -212t-152 -152t-212 -56t-212 56zM683.5 37q82.5 47 129.5 129.5t47 183.5t-47 183.5t-129.5 129.5t-183.5 47t-183.5 -47t-129.5 -129.5t-47 -183.5t47 -183.5t129.5 -129.5
t183.5 -47t183.5 47zM399 214q-39 49 -39 136q0 88 39 136.5t101 48.5t101 -48.5t39 -136.5q0 -87 -39 -136t-101 -49t-101 49zM556.5 253.5q23.5 33.5 23.5 96.5t-23.5 96.5t-56.5 33.5t-56.5 -33.5t-23.5 -96.5t23.5 -96.5t56.5 -33.5t56.5 33.5z" />
    <glyph glyph-name="uni24EB" unicode="&#x24eb;" horiz-adv-x="1000" 
d="M288 -14q-96 56 -152 152t-56 212t56 212t152 152t212 56t212 -56t152 -152t56 -212t-56 -212t-152 -152t-212 -56t-212 56zM375 170h60v360h-60v-15q0 -30 -30 -30h-55v-55h85v-260zM590 170h60v360h-60v-15q0 -30 -30 -30h-55v-55h85v-260z" />
    <glyph glyph-name="uni24EC" unicode="&#x24ec;" horiz-adv-x="1000" 
d="M288 -14q-96 56 -152 152t-56 212t56 212t152 152t212 56t212 -56t152 -152t56 -212t-56 -212t-152 -152t-212 -56t-212 56zM480 170h235v55h-145v5l90 95q27 28 38.5 48.5t11.5 51.5q0 49 -31.5 79.5t-83.5 30.5t-86 -33t-34 -82h60q0 29 16.5 44.5t43.5 15.5
q25 0 40 -16t15 -39q0 -18 -7 -31t-23 -29l-140 -145v-50zM350 170h60v360h-60v-15q0 -30 -30 -30h-55v-55h85v-260z" />
    <glyph glyph-name="uni24ED" unicode="&#x24ed;" horiz-adv-x="1000" 
d="M288 -14q-96 56 -152 152t-56 212t56 212t152 152t212 56t212 -56t152 -152t56 -212t-56 -212t-152 -152t-212 -56t-212 56zM682.5 196.5q32.5 31.5 32.5 78.5q0 29 -15.5 50.5t-39.5 29.5v5q23 11 36.5 32t13.5 43q0 42 -32 71t-83 29t-83 -29t-32 -71h60q0 19 15 32
t40 13t40 -13t15 -32q0 -23 -15.5 -36.5t-44.5 -13.5h-25v-55h25q30 0 47.5 -14.5t17.5 -40.5t-16.5 -40.5t-43.5 -14.5q-25 0 -42.5 15.5t-17.5 34.5h-60q0 -45 34 -75t86 -30q55 0 87.5 31.5zM350 170h60v360h-60v-15q0 -30 -30 -30h-55v-55h85v-260z" />
    <glyph glyph-name="uni24EE" unicode="&#x24ee;" horiz-adv-x="1000" 
d="M288 -14q-96 56 -152 152t-56 212t56 212t152 152t212 56t212 -56t152 -152t56 -212t-56 -212t-152 -152t-212 -56t-212 56zM340 170h60v360h-60v-15q0 -30 -30 -30h-55v-55h85v-260zM625 245v-75h60v75h50v55h-50v230h-90l-135 -235v-50h165zM625 300h-90v5l80 145h10
v-150z" />
    <glyph glyph-name="uni24EF" unicode="&#x24ef;" horiz-adv-x="1000" 
d="M288 -14q-96 56 -152 152t-56 212t56 212t152 152t212 56t212 -56t152 -152t56 -212t-56 -212t-152 -152t-212 -56t-212 56zM340 170h60v360h-60v-15q0 -30 -30 -30h-55v-55h85v-260zM689.5 200.5q35.5 35.5 35.5 89.5q0 55 -35 90t-85 35q-22 0 -36 -4.5t-29 -15.5h-5
l10 80h160v55h-215l-20 -205h55q15 19 31.5 27t38.5 8q31 0 50.5 -18.5t19.5 -51.5q0 -30 -20 -50t-50 -20q-56 0 -70 50h-60q8 -50 41.5 -77.5t88.5 -27.5q59 0 94.5 35.5z" />
    <glyph glyph-name="uni24F0" unicode="&#x24f0;" horiz-adv-x="1000" 
d="M288 -14q-96 56 -152 152t-56 212t56 212t152 152t212 56t212 -56t152 -152t56 -212t-56 -212t-152 -152t-212 -56t-212 56zM345 170h60v360h-60v-15q0 -30 -30 -30h-55v-55h85v-260zM693 201.5q37 36.5 37 91.5q0 50 -35.5 83.5t-84.5 33.5q-15 0 -30 -5h-5l80 125h-65
l-100 -160q-20 -33 -20 -80q0 -53 37 -89t93 -36t93 36.5zM550 240q-20 20 -20 50t20 50t50 20t50 -20t20 -50t-20 -50t-50 -20t-50 20z" />
    <glyph glyph-name="uni24F1" unicode="&#x24f1;" horiz-adv-x="1000" 
d="M288 -14q-96 56 -152 152t-56 212t56 212t152 152t212 56t212 -56t152 -152t56 -212t-56 -212t-152 -152t-212 -56t-212 56zM360 170h60v360h-60v-15q0 -30 -30 -30h-55v-55h85v-260zM648 475l-128 -305h60l130 310v50h-230v-55h168z" />
    </font>
</defs>
</svg>
